<?xml version="1.0" standalone="no"?>
<!DOCTYPE svg PUBLIC "-//W3C//DTD SVG 1.1//EN" "http://www.w3.org/Graphics/SVG/1.1/DTD/svg11.dtd" >
<svg xmlns="http://www.w3.org/2000/svg" xmlns:xlink="http://www.w3.org/1999/xlink" version="1.1">
<metadata>
Created by FontForge 20170924 at Wed Jun  4 16:07:16 2014
 By www-data
Copyright (c) 2014 Commercial Type. Druk is a registered trademark of Commercial Type/Schwartzco Inc. All rights reserved. [wfr]
</metadata>
<defs>
<font id="DrukXCond-Super" horiz-adv-x="223" >
  <font-face 
    font-family="Druk XCond Super"
    font-weight="950"
    font-stretch="extra-condensed"
    units-per-em="1000"
    panose-1="0 0 0 0 0 0 0 0 0 0"
    ascent="800"
    descent="-200"
    x-height="538"
    cap-height="744"
    bbox="-24 -210 634 945"
    underline-thickness="50"
    underline-position="-100"
    unicode-range="U+000D-FB04"
  />
<missing-glyph horiz-adv-x="492" 
d="M0 690h492v-690h-492v690zM443 94v503l-168 -252zM49 597v-503l168 251zM246 389l168 252h-335zM246 301l-167 -252h334z" />
    <glyph glyph-name="fi" unicode="fi" horiz-adv-x="267" 
d="M260 649v-100h-95v100h95zM260 538v-538h-95v538h95zM155 744v-77h-18c-6 0 -9 -3 -9 -10v-119h27v-79h-27v-459h-95v459h-29v79h29v155c0 35 23 51 50 51h72z" />
    <glyph glyph-name="fl" unicode="fl" horiz-adv-x="267" 
d="M155 744v-77h-18c-6 0 -9 -3 -9 -10v-119h27v-79h-27v-459h-95v459h-29v79h29v155c0 35 23 51 50 51h72zM260 744v-744h-95v744h95z" />
    <glyph glyph-name="f_f" unicode="ff" horiz-adv-x="290" 
d="M128 0h-95v458h-29v80h29v155c0 35 23 51 50 51h71v-77h-17c-6 0 -9 -3 -9 -10v-119h35v155c0 35 23 51 50 51h73v-77h-19c-8 0 -9 -3 -9 -10v-119h28v-80h-28v-458h-95v458h-35v-458z" />
    <glyph glyph-name=".notdef" horiz-adv-x="492" 
d="M0 690h492v-690h-492v690zM443 94v503l-168 -252zM49 597v-503l168 251zM246 389l168 252h-335zM246 301l-167 -252h334z" />
    <glyph glyph-name="NULL" horiz-adv-x="0" 
 />
    <glyph glyph-name="NULL" horiz-adv-x="0" 
 />
    <glyph glyph-name="CR" unicode="&#xd;" horiz-adv-x="63" 
 />
    <glyph glyph-name="space" unicode=" " horiz-adv-x="63" 
 />
    <glyph glyph-name="exclam" unicode="!" horiz-adv-x="111" 
d="M6 744h99c0 -65 -20 -469 -24 -623h-52c-4 154 -23 560 -23 623zM97 108v-108h-84v108h84z" />
    <glyph glyph-name="quotedbl" unicode="&#x22;" horiz-adv-x="152" 
d="M145 744v-130h-64v130h64zM71 744v-130h-64v130h64z" />
    <glyph glyph-name="numbersign" unicode="#" horiz-adv-x="197" 
d="M104 324l5 121h-15l-4 -121h14zM93 0l9 264h-14l-10 -264h-58l9 264h-27l3 60h26l5 121h-27l3 60h26l8 239h59l-9 -239h15l8 239h60l-9 -239h25l-3 -60h-24l-5 -121h25l-2 -60h-25l-10 -264h-58z" />
    <glyph glyph-name="dollar" unicode="$" horiz-adv-x="228" 
d="M95 656v-161c0 -19 2 -25 10 -36v217c-7 -1 -10 -7 -10 -20zM132 92v189c0 21 -2 29 -11 40v-249c7 2 11 9 11 20zM121 -5v-36h-16v36h-1c-69 0 -97 32 -97 88v236h88v-227c0 -11 3 -18 10 -20v264l-50 43c-33 28 -46 59 -46 106v173c0 57 28 91 96 91v34h16v-34h1
c69 0 95 -27 95 -86v-199h-85v192c0 13 -4 19 -11 20v-232l53 -46c35 -31 47 -58 47 -107v-198c0 -64 -33 -98 -100 -98z" />
    <glyph glyph-name="percent" unicode="%" horiz-adv-x="311" 
d="M7 488v195c0 44 24 65 63 65h10c43 0 64 -22 64 -65v-195c0 -43 -25 -65 -64 -65h-10c-42 0 -63 22 -63 65zM214 744h55l-172 -744h-55zM82 480v212c0 6 -2 9 -6 9c-5 0 -7 -3 -7 -9v-212c0 -6 2 -9 7 -9c4 0 6 3 6 9zM167 61v195c0 44 24 65 63 65h10
c43 0 64 -22 64 -65v-195c0 -43 -25 -65 -64 -65h-10c-42 0 -63 22 -63 65zM236 44c4 0 6 3 6 9v212c0 6 -2 9 -6 9c-5 0 -7 -3 -7 -9v-212c0 -6 2 -9 7 -9z" />
    <glyph glyph-name="ampersand" unicode="&#x26;" horiz-adv-x="274" 
d="M274 73l-21 -78c-33 0 -58 7 -75 16c-13 -8 -32 -15 -59 -15c-75 0 -113 36 -113 131v97c0 88 18 126 63 189l-8 29c-15 55 -22 90 -22 137v89c0 47 22 81 85 81h11c56 0 81 -29 81 -78v-97c0 -69 -25 -102 -70 -164l42 -224c0 72 -1 139 -4 259h78
c0 -205 -10 -309 -26 -365c11 -5 22 -6 38 -7zM121 674v-116c0 -27 3 -46 7 -75c10 36 11 48 11 75v116c0 9 -3 13 -9 13s-9 -4 -9 -13zM132 69c5 0 8 0 10 1l-50 252c-1 -44 2 -83 2 -151v-37c1 -47 11 -65 38 -65z" />
    <glyph glyph-name="quotesingle" unicode="'" horiz-adv-x="79" 
d="M72 744v-130h-65v130h65z" />
    <glyph glyph-name="parenleft" unicode="(" horiz-adv-x="121" 
d="M8 352c0 210 28 347 58 441h54c-16 -82 -33 -255 -33 -439c0 -189 18 -361 34 -447h-55c-28 92 -58 234 -58 445z" />
    <glyph glyph-name="parenright" unicode=")" horiz-adv-x="121" 
d="M54 -93h-54c16 86 34 258 34 447c0 184 -17 357 -33 439h54c30 -94 58 -231 58 -441c0 -211 -30 -353 -59 -445z" />
    <glyph glyph-name="asterisk" unicode="*" horiz-adv-x="146" 
d="M92 706l27 24l25 -41l-36 -14l36 -12l-25 -42l-27 25l6 -38h-51l8 38l-28 -24l-24 41l36 12l-37 14l24 41l28 -24l-7 38h51z" />
    <glyph glyph-name="plus" unicode="+" horiz-adv-x="183" 
d="M176 274h-53v-60h-63v60h-53v58h53v60h63v-60h53v-58z" />
    <glyph glyph-name="comma" unicode="," horiz-adv-x="98" 
d="M72 -69h-49c7 15 15 46 15 69h-31v108h84v-86c0 -40 -12 -74 -19 -91z" />
    <glyph glyph-name="hyphen" unicode="-" horiz-adv-x="114" 
d="M7 345h100v-90h-100v90z" />
    <glyph glyph-name="period" unicode="." horiz-adv-x="98" 
d="M91 108v-108h-84v108h84z" />
    <glyph glyph-name="slash" unicode="/" horiz-adv-x="132" 
d="M131 793l-71 -886h-63l71 886h63z" />
    <glyph glyph-name="zero" unicode="0" horiz-adv-x="235" 
d="M227 636v-530c0 -72 -37 -111 -102 -111h-14c-68 0 -103 40 -103 111v530c0 71 31 113 103 113h14c72 0 102 -44 102 -113zM127 97v551c0 9 -1 15 -9 15c-7 0 -10 -5 -10 -15v-551c0 -10 3 -15 10 -15c6 0 9 5 9 15z" />
    <glyph glyph-name="one" unicode="1" horiz-adv-x="150" 
d="M45 621h-41v81c36 0 51 15 54 42h82v-744h-95v621z" />
    <glyph glyph-name="two" unicode="2" horiz-adv-x="221" 
d="M106 672c-6 0 -9 -4 -9 -11v-169h-87v175c0 45 27 82 90 82h14c64 0 98 -31 98 -90v-119c0 -54 -5 -79 -32 -149c-11 -28 -23 -54 -36 -85c-48 -98 -50 -119 -50 -162v-62h36v175h84v-257h-208v136c0 67 2 94 50 198l33 84c18 58 26 74 26 104v139c0 7 -3 11 -9 11z" />
    <glyph glyph-name="three" unicode="3" horiz-adv-x="221" 
d="M99 476h-87v191c0 47 23 81 90 81h13c68 0 95 -32 95 -80v-202c0 -31 -19 -45 -27 -50c15 -7 31 -24 31 -51v-280c0 -59 -34 -90 -98 -90h-14c-72 0 -95 38 -95 81v246h92v-229c0 -8 3 -12 9 -12s9 4 9 12v253c0 6 -3 9 -9 9h-44v88h42c7 0 10 3 10 10v205
c0 8 -3 12 -9 12c-5 0 -8 -4 -8 -12v-182z" />
    <glyph glyph-name="four" unicode="4" horiz-adv-x="215" 
d="M5 137v77c21 147 55 394 79 532h97v-519h30v-90h-30v-137h-94v137h-82zM87 227v266c-3 -67 -15 -154 -23 -266h23z" />
    <glyph glyph-name="five" unicode="5" horiz-adv-x="222" 
d="M99 363h-89v381h198v-85h-110v-137c11 15 30 36 59 36h4c35 0 53 -28 53 -63v-415c0 -48 -32 -85 -96 -85h-19c-67 0 -91 36 -91 79v236h91v-222c0 -7 3 -11 9 -11s9 4 9 11v382c0 7 -3 11 -9 11s-9 -4 -9 -11v-107z" />
    <glyph glyph-name="six" unicode="6" horiz-adv-x="234" 
d="M168 466h5c36 0 54 -28 54 -63v-312c0 -59 -40 -96 -100 -96h-19c-65 0 -100 36 -100 96v563c0 51 31 94 100 94h15c72 0 99 -40 99 -93v-169h-97v167c0 9 -3 13 -9 13s-9 -4 -9 -13v-223c11 12 28 36 61 36zM107 377v-283c0 -9 3 -14 10 -14c9 0 10 5 10 14v283
c0 11 -1 15 -9 15c-7 0 -11 -5 -11 -15z" />
    <glyph glyph-name="seven" unicode="7" horiz-adv-x="207" 
d="M7 744h194v-67c-3 -128 -16 -203 -29 -347c-9 -107 -13 -191 -13 -283v-47h-115v42c0 74 2 144 26 259c40 191 49 223 49 366h-28v-174h-84v251z" />
    <glyph glyph-name="eight" unicode="8" horiz-adv-x="233" 
d="M222 661v-212c0 -35 -16 -49 -31 -58c19 -11 34 -24 34 -59v-243c0 -65 -41 -94 -101 -94h-14c-65 0 -102 30 -102 95v242c0 35 14 48 33 59c-15 9 -30 23 -30 58v212c0 52 28 87 99 87h14c69 0 98 -36 98 -87zM126 434v221c0 9 -3 13 -10 13c-6 0 -9 -4 -9 -13v-221
c0 -9 3 -13 10 -13c6 0 9 4 9 13zM126 93v246c0 9 -3 14 -10 14c-6 0 -9 -5 -9 -14v-246c0 -9 3 -13 10 -13c6 0 9 4 9 13z" />
    <glyph glyph-name="nine" unicode="9" horiz-adv-x="234" 
d="M126 369v281c0 9 -3 14 -9 14c-9 0 -10 -6 -10 -14v-281c0 -11 1 -15 9 -15c7 0 10 5 10 15zM69 280h-4c-39 0 -58 28 -58 68v303c0 55 29 97 97 97h21c65 0 101 -37 101 -97v-561c0 -51 -31 -95 -100 -95h-17c-72 0 -97 39 -97 90v175h97v-170c0 -9 3 -13 9 -13
c5 0 8 4 8 13v226c-9 -15 -29 -36 -57 -36z" />
    <glyph glyph-name="colon" unicode=":" horiz-adv-x="100" 
d="M92 426v-108h-84v108h84zM92 108v-108h-84v108h84z" />
    <glyph glyph-name="semicolon" unicode=";" horiz-adv-x="100" 
d="M92 426v-108h-84v108h84zM72 -69h-49c7 15 15 46 16 69h-31v108h84v-86c0 -40 -12 -74 -20 -91z" />
    <glyph glyph-name="less" unicode="&#x3c;" horiz-adv-x="158" 
d="M151 217l-144 57v58l144 57v-64l-75 -23l75 -22v-63z" />
    <glyph glyph-name="equal" unicode="=" horiz-adv-x="180" 
d="M8 361h164v-52h-164v52zM8 298h164v-53h-164v53z" />
    <glyph glyph-name="greater" unicode="&#x3e;" horiz-adv-x="159" 
d="M7 217v63l76 22l-76 23v64l145 -57v-58z" />
    <glyph glyph-name="question" unicode="?" horiz-adv-x="214" 
d="M134 121h-72v152c0 41 5 57 18 91l24 59c8 20 9 33 9 62v174c0 9 -1 14 -9 14s-9 -5 -9 -14v-208h-88v207c0 51 21 90 90 90h17c68 0 93 -34 93 -89v-162c0 -46 -5 -66 -23 -105l-31 -62c-16 -32 -19 -46 -19 -78v-131zM140 108v-108h-84v108h84z" />
    <glyph glyph-name="at" unicode="@" horiz-adv-x="354" 
d="M281 26l32 -29c-16 -32 -62 -79 -139 -79h-1c-72 0 -166 38 -166 200v345c0 125 68 202 173 202h1c97 0 166 -52 166 -175v-312c0 -120 -43 -146 -90 -146h-8c-32 0 -52 14 -60 37c-15 -25 -34 -37 -55 -37h-1c-33 0 -57 28 -54 71l6 378c1 39 21 59 48 59h2
c27 0 44 -17 55 -34l1 32h87l-10 -445c0 -9 2 -14 7 -14c15 0 20 44 20 99v310c0 104 -51 133 -114 133h-1c-69 0 -120 -47 -120 -159v-344c0 -129 67 -156 113 -156h1c60 0 90 39 107 64zM182 103l6 365c0 8 -3 12 -8 12s-7 -4 -7 -12l-6 -364c0 -8 2 -12 7 -12s8 4 8 11z
" />
    <glyph glyph-name="A" unicode="A" horiz-adv-x="219" 
d="M117 236l-12 314l-12 -314h24zM126 0l-6 151h-31l-6 -151h-84l47 744h124l50 -744h-94z" />
    <glyph glyph-name="B" unicode="B" horiz-adv-x="233" 
d="M8 0v744h147c40 0 65 -21 65 -72v-211c0 -37 -23 -55 -38 -59c17 -5 45 -23 45 -68v-248c0 -57 -24 -86 -73 -86h-146zM113 669h-7v-240h7c8 0 12 5 12 14v212c0 11 -1 14 -12 14zM115 356h-9v-279h9c11 0 11 4 11 15v248c0 11 -4 16 -11 16z" />
    <glyph glyph-name="C" unicode="C" horiz-adv-x="229" 
d="M117 80c7 0 10 5 10 16v251h95v-253c0 -55 -28 -99 -96 -99h-16c-73 0 -102 39 -102 107v543c0 61 27 104 102 104h16c68 0 96 -38 96 -95v-229h-95v226c0 10 -3 15 -10 15s-10 -5 -10 -15v-555c0 -11 3 -16 10 -16z" />
    <glyph glyph-name="D" unicode="D" horiz-adv-x="230" 
d="M8 0v744h139c43 0 75 -23 75 -83v-574c0 -59 -30 -87 -73 -87h-141zM104 664v-582h9c8 0 12 6 12 19v545c0 12 -4 18 -12 18h-9z" />
    <glyph glyph-name="E" unicode="E" horiz-adv-x="179" 
d="M8 744h163v-89h-67v-217h58v-92h-58v-256h69v-90h-165v744z" />
    <glyph glyph-name="F" unicode="F" horiz-adv-x="175" 
d="M8 0v744h161v-89h-66v-218h56l1 -91h-57v-346h-95z" />
    <glyph glyph-name="G" unicode="G" horiz-adv-x="233" 
d="M84 -5h-2c-51 0 -74 43 -74 94v562c0 52 25 98 102 98h13c77 0 99 -45 99 -92v-198h-94v193c0 9 0 15 -11 15c-7 0 -10 -5 -10 -15v-558c0 -12 4 -18 13 -18s14 6 14 18v265h-19v76h111v-435h-66c-1 11 -7 30 -10 39c-13 -20 -33 -44 -66 -44z" />
    <glyph glyph-name="H" unicode="H" horiz-adv-x="231" 
d="M8 0v744h98v-304h20v304h97v-744h-97v339h-20v-339h-98z" />
    <glyph glyph-name="I" unicode="I" horiz-adv-x="114" 
d="M106 744v-744h-98v744h98z" />
    <glyph glyph-name="J" unicode="J" horiz-adv-x="219" 
d="M118 -5h-26c-63 0 -85 38 -85 85v234h88v-225c0 -7 3 -10 9 -10c5 0 8 3 8 10v655h99v-662c0 -49 -28 -87 -93 -87z" />
    <glyph glyph-name="K" unicode="K" horiz-adv-x="236" 
d="M105 0h-96v744h96l-1 -281l32 281h96l-47 -343l51 -401h-102l-30 300z" />
    <glyph glyph-name="L" unicode="L" horiz-adv-x="171" 
d="M8 744h96l1 -653h60v-91h-157v744z" />
    <glyph glyph-name="M" unicode="M" horiz-adv-x="272" 
d="M9 0v744h110l18 -379l18 379h108v-744h-82v434l-29 -434h-34l-30 434v-434h-79z" />
    <glyph glyph-name="N" unicode="N" horiz-adv-x="232" 
d="M9 744h99l38 -429l-2 429h80v-744h-91l-46 478l1 -478h-79v744z" />
    <glyph glyph-name="O" unicode="O" horiz-adv-x="237" 
d="M229 636v-530c0 -72 -38 -111 -103 -111h-14c-68 0 -104 40 -104 111v530c0 71 32 113 104 113h14c72 0 103 -44 103 -113zM130 98v548c0 11 -4 17 -11 17s-11 -6 -11 -17v-548c0 -11 4 -16 11 -16s11 5 11 16z" />
    <glyph glyph-name="P" unicode="P" horiz-adv-x="226" 
d="M151 321h-46v-321h-97v744h142c40 0 69 -22 69 -75v-273c0 -51 -29 -75 -68 -75zM105 668v-268h7c8 0 12 5 12 16v237c0 9 -1 15 -12 15h-7z" />
    <glyph glyph-name="Q" unicode="Q" horiz-adv-x="237" 
d="M86 -112v109c-51 11 -78 49 -78 109v530c0 71 32 113 104 113h14c72 0 103 -44 103 -113v-530c0 -59 -23 -94 -70 -107l33 -111h-106zM130 98v548c0 11 -4 17 -11 17s-11 -6 -11 -17v-548c0 -11 4 -16 11 -16s11 5 11 16z" />
    <glyph glyph-name="R" unicode="R" horiz-adv-x="230" 
d="M106 669v-243h7c7 0 11 4 11 13v217c0 9 -1 13 -10 13h-8zM106 342v-342h-98v744h152c35 0 60 -22 60 -69v-215c0 -39 -19 -55 -34 -62c16 -7 36 -23 36 -54v-317c0 -11 1 -18 4 -25v-2h-95c-5 5 -7 13 -7 24v305c0 7 0 13 -11 13h-7z" />
    <glyph glyph-name="S" unicode="S" horiz-adv-x="230" 
d="M124 -5h-22c-64 0 -96 30 -96 90v232h96v-225c0 -11 3 -16 10 -16s11 5 11 16v193c0 20 -2 27 -17 42l-53 52c-32 31 -44 62 -44 109v169c0 56 26 92 97 92h22c71 0 92 -36 92 -84v-200h-93v196c0 8 -3 12 -10 12s-10 -4 -10 -12v-169c0 -19 3 -25 15 -38l52 -52
c37 -35 50 -61 50 -113v-192c0 -64 -32 -102 -100 -102z" />
    <glyph glyph-name="T" unicode="T" horiz-adv-x="195" 
d="M49 0v655h-43v89h183v-89h-44v-655h-96z" />
    <glyph glyph-name="U" unicode="U" horiz-adv-x="235" 
d="M125 -5h-15c-75 0 -102 43 -102 94v655h99v-644c0 -10 3 -15 10 -15s11 5 11 15v644h99v-655c0 -51 -31 -94 -102 -94z" />
    <glyph glyph-name="V" unicode="V" horiz-adv-x="238" 
d="M56 0l-56 744h104l20 -539l19 539h95l-52 -744h-130z" />
    <glyph glyph-name="W" unicode="W" horiz-adv-x="343" 
d="M160 0h-114l-46 744h101l10 -520l18 520h91l18 -509l11 509h94l-46 -744h-111l-13 439z" />
    <glyph glyph-name="X" unicode="X" horiz-adv-x="227" 
d="M96 0h-96l38 388l-35 356h99l13 -293l14 293h92l-34 -356l40 -388h-97l-18 314z" />
    <glyph glyph-name="Y" unicode="Y" horiz-adv-x="215" 
d="M61 0v302l-62 442h96l17 -279l17 279h87l-58 -442v-302h-97z" />
    <glyph glyph-name="Z" unicode="Z" horiz-adv-x="197" 
d="M9 744h178v-80l-79 -576h83v-88h-185v80l78 576h-75v88z" />
    <glyph glyph-name="bracketleft" unicode="[" horiz-adv-x="113" 
d="M8 -94v887h101v-64h-27v-759h27v-64h-101z" />
    <glyph glyph-name="backslash" unicode="\" horiz-adv-x="132" 
d="M72 -93l-71 886h63l71 -886h-63z" />
    <glyph glyph-name="bracketright" unicode="]" horiz-adv-x="113" 
d="M4 -94v64h27v759h-27v64h101v-887h-101z" />
    <glyph glyph-name="asciicircum" unicode="^" horiz-adv-x="148" 
d="M83 418l-9 206l-10 -206h-62l27 326h90l27 -326h-63z" />
    <glyph glyph-name="underscore" unicode="_" horiz-adv-x="212" 
d="M2 -82v64h208v-64h-208z" />
    <glyph glyph-name="grave" unicode="`" horiz-adv-x="171" 
d="M110 649l27 -100h-75l-30 100h78z" />
    <glyph glyph-name="a" unicode="a" horiz-adv-x="217" 
d="M112 75v207c-15 -9 -16 -14 -16 -29v-179c0 -7 3 -11 8 -11c7 0 8 5 8 12zM6 53v196c0 35 11 51 38 66c16 8 49 22 61 27c5 2 7 6 7 12v116c0 7 -3 11 -8 11h-1c-5 0 -8 -4 -8 -11v-125h-87v127c0 52 37 72 90 72h10c60 0 96 -17 96 -72v-390c0 -3 1 -4 4 -4h7v-78h-79
c-15 0 -23 12 -23 37c-9 -19 -29 -41 -58 -41h-2c-32 0 -47 29 -47 57z" />
    <glyph glyph-name="b" unicode="b" 
d="M7 744h95v-243c13 20 32 40 61 40h3c33 0 50 -29 50 -65v-412c0 -35 -22 -69 -57 -69h-2c-31 0 -48 18 -64 45c-3 -11 -4 -27 -5 -40h-81v744zM111 64c7 0 9 5 9 12v385c0 7 -1 12 -9 12s-9 -6 -9 -13v-383c0 -7 1 -13 9 -13z" />
    <glyph glyph-name="c" unicode="c" horiz-adv-x="210" 
d="M117 -6h-20c-52 0 -90 26 -90 86v377c0 48 23 87 90 87h23c60 0 84 -33 84 -78v-157h-87v157c0 7 -3 11 -8 11s-8 -4 -8 -11v-391c0 -7 3 -11 8 -11s8 4 8 11v177h87v-179c0 -48 -34 -79 -87 -79z" />
    <glyph glyph-name="d" unicode="d" 
d="M112 64c7 0 9 7 9 14v381c0 9 -3 14 -9 14c-7 0 -10 -4 -10 -13v-383c0 -9 3 -13 10 -13zM121 744h95v-744h-95v35c-12 -20 -30 -40 -57 -40h-2c-35 0 -55 32 -55 71v409c0 39 20 66 51 66h3c29 0 45 -17 60 -36v239z" />
    <glyph glyph-name="e" unicode="e" horiz-adv-x="214" 
d="M99 468v-146h18v146c0 11 -1 15 -9 15c-6 0 -9 -5 -9 -15zM207 242v-162c0 -55 -34 -86 -90 -86h-18c-57 0 -92 28 -92 89v370c0 56 29 91 92 91h18c51 0 90 -24 90 -89v-189h-108v-192c0 -9 3 -13 9 -13c8 0 9 5 9 13v168h90z" />
    <glyph glyph-name="f" unicode="f" horiz-adv-x="161" 
d="M157 744v-77h-21c-5 0 -8 -3 -8 -10v-119h29v-80h-29v-458h-95v458h-29v80h29v155c0 35 23 51 50 51h74z" />
    <glyph glyph-name="g" unicode="g" 
d="M112 63c7 0 9 5 9 12v385c0 8 -3 12 -9 12c-8 0 -10 -5 -10 -12v-385c0 -7 2 -12 10 -12zM123 -163h-23c-67 0 -89 29 -89 68v83h92v-72c0 -7 3 -11 9 -11s9 4 9 11v118c-11 -16 -28 -38 -59 -38s-55 22 -55 65v415c0 35 17 65 52 65h3c29 0 47 -21 59 -37v34h95v-623
c0 -47 -30 -78 -93 -78z" />
    <glyph glyph-name="h" unicode="h" 
d="M7 0v744h95v-242c12 20 32 40 61 40h4c37 0 49 -33 49 -54v-488h-95v458c0 7 -2 12 -10 12c-6 0 -9 -4 -9 -13v-457h-95z" />
    <glyph glyph-name="i" unicode="i" horiz-adv-x="109" 
d="M102 649v-100h-95v100h95zM102 538v-538h-95v538h95z" />
    <glyph glyph-name="j" unicode="j" horiz-adv-x="109" 
d="M102 649v-100h-95v100h95zM-20 -76h19c5 0 8 3 8 9v605h95v-651c0 -31 -19 -46 -42 -46h-80v83z" />
    <glyph glyph-name="k" unicode="k" horiz-adv-x="220" 
d="M102 0h-95v744h95v-276l-1 -114l24 184h90l-35 -230l41 -308h-94l-26 235z" />
    <glyph glyph-name="l" unicode="l" horiz-adv-x="109" 
d="M102 744v-744h-95v744h95z" />
    <glyph glyph-name="m" unicode="m" horiz-adv-x="334" 
d="M102 0h-95v538h94v-37c11 17 29 41 60 41h4c28 0 41 -20 46 -39c12 19 32 39 63 39h4c37 0 49 -34 49 -55v-487h-96v458c0 8 -3 12 -8 12c-7 0 -9 -5 -9 -12v-458h-95v458c0 8 -3 12 -8 12c-7 0 -9 -5 -9 -12v-458z" />
    <glyph glyph-name="n" unicode="n" 
d="M7 0v538h94v-37c13 20 33 41 62 41h4c40 0 49 -33 49 -54v-488h-95v458c0 7 -2 12 -10 12c-6 0 -9 -4 -9 -13v-457h-95z" />
    <glyph glyph-name="o" unicode="o" 
d="M118 -6h-14c-65 0 -97 33 -97 100v350c0 68 36 100 97 100h15c65 0 97 -33 97 -100v-350c0 -68 -37 -100 -98 -100zM111 66c7 0 10 5 10 14v380c0 7 -2 14 -10 14s-9 -7 -9 -14v-380c0 -9 3 -14 9 -14z" />
    <glyph glyph-name="p" unicode="p" 
d="M111 63c8 0 9 6 9 13v385c0 9 -3 13 -9 13c-8 0 -9 -6 -9 -13v-385c0 -7 1 -13 9 -13zM7 538h94v-39c19 27 37 43 61 43h2c36 0 52 -29 52 -70v-409c0 -37 -23 -68 -55 -68h-1c-27 0 -45 15 -58 38v-192h-95v697z" />
    <glyph glyph-name="q" unicode="q" horiz-adv-x="222" 
d="M142 538h73v-697h-94v194c-15 -23 -33 -40 -58 -40h-2c-31 0 -54 30 -54 71v399c0 45 20 77 60 77h4c32 0 50 -22 63 -43c3 8 7 28 8 39zM112 63c6 0 9 5 9 16v383c0 9 -3 14 -10 14c-6 0 -9 -4 -9 -12v-388c0 -9 3 -13 10 -13z" />
    <glyph glyph-name="r" unicode="r" horiz-adv-x="205" 
d="M102 461v-461h-95v538h94v-38c7 15 26 41 54 41h5c27 0 39 -20 39 -43v-193h-83v156c0 6 -2 9 -7 9s-7 -3 -7 -9z" />
    <glyph glyph-name="s" unicode="s" horiz-adv-x="200" 
d="M109 -6h-23c-51 0 -81 22 -81 73v157h83v-154c0 -7 3 -10 9 -10c5 0 8 3 8 10v131c0 17 -2 22 -15 35l-40 32c-36 31 -43 53 -43 92v110c0 49 28 74 84 74h21c51 0 79 -19 79 -67v-132h-81v128c0 7 -3 11 -8 11s-8 -4 -8 -11v-108c0 -19 2 -21 13 -32l42 -33
c37 -33 46 -55 46 -96v-131c0 -52 -33 -79 -86 -79z" />
    <glyph glyph-name="t" unicode="t" horiz-adv-x="160" 
d="M155 0h-89c-17 0 -33 11 -33 38v421h-29v79h29v169h95v-169h27v-79h-27v-369c0 -7 3 -10 9 -10h18v-80z" />
    <glyph glyph-name="u" unicode="u" 
d="M216 538v-538h-93v37c-15 -20 -33 -40 -64 -40h-3c-36 0 -49 33 -49 54v487h96v-457c0 -9 3 -13 9 -13s9 4 9 13v457h95z" />
    <glyph glyph-name="v" unicode="v" horiz-adv-x="211" 
d="M44 0l-44 538h96l11 -389l11 389h93l-44 -538h-123z" />
    <glyph glyph-name="w" unicode="w" horiz-adv-x="319" 
d="M149 0h-106l-43 538h95l9 -375l13 375h86l15 -378l8 378h93l-44 -538h-104l-11 345z" />
    <glyph glyph-name="x" unicode="x" horiz-adv-x="208" 
d="M90 0h-90l37 286l-36 252h92l12 -188l10 188h91l-36 -250l38 -288h-93l-12 205z" />
    <glyph glyph-name="y" unicode="y" horiz-adv-x="208" 
d="M24 -159v78h28c5 0 8 3 8 9c0 5 1 20 1 31c0 12 0 21 -3 40l-58 539h93l15 -338l9 338h92l-65 -656c-5 -32 -24 -41 -43 -41h-77z" />
    <glyph glyph-name="z" unicode="z" horiz-adv-x="172" 
d="M6 538h159v-68l-62 -391h64v-79h-163v68l64 394h-62v76z" />
    <glyph glyph-name="braceleft" unicode="{" horiz-adv-x="121" 
d="M117 -93h-40c-39 0 -62 17 -62 56c0 23 15 305 15 336c0 14 -6 21 -17 21h-8v62h10c13 0 15 8 15 20c0 37 -15 298 -15 332c0 39 21 59 62 59h40v-62h-14c-11 0 -17 -6 -17 -17c0 -19 15 -289 15 -312c0 -28 -9 -43 -34 -51c25 -7 34 -21 34 -44c0 -26 -15 -293 -15 -315
c0 -15 7 -23 20 -23h11v-62z" />
    <glyph glyph-name="bar" unicode="|" horiz-adv-x="114" 
d="M88 793v-886h-62v886h62z" />
    <glyph glyph-name="braceright" unicode="}" horiz-adv-x="121" 
d="M4 -93v62h11c13 0 20 8 20 23c0 22 -14 289 -14 315c0 23 9 37 34 44c-25 8 -34 23 -34 51c0 23 14 293 14 312c0 11 -6 17 -17 17h-14v62h40c41 0 62 -20 62 -59c0 -34 -15 -295 -15 -332c0 -12 3 -20 16 -20h10v-62h-8c-15 0 -18 -6 -18 -21c0 -31 15 -313 15 -336
c0 -39 -23 -56 -62 -56h-40z" />
    <glyph glyph-name="asciitilde" unicode="~" horiz-adv-x="176" 
d="M128 281c-20 0 -31 5 -43 16c-8 6 -13 9 -14 9c-3 0 -5 -2 -5 -6v-22h-61v50c0 35 15 58 43 58c19 0 29 -6 42 -17c7 -5 12 -8 15 -8s4 2 4 6v22h62v-56c0 -32 -16 -52 -43 -52z" />
    <glyph glyph-name="Adieresis" unicode="&#xc4;" horiz-adv-x="219" 
d="M117 236l-12 314l-12 -314h24zM126 0l-6 151h-31l-6 -151h-84l47 744h124l50 -744h-94zM102 833v-78h-70v78h70zM185 833v-78h-71v78h71z" />
    <glyph glyph-name="Aring" unicode="&#xc5;" horiz-adv-x="219" 
d="M117 236l-12 314l-12 -314h24zM126 0l-6 151h-31l-6 -151h-84l47 744h124l50 -744h-94zM54 805c0 31 23 52 54 52s55 -21 55 -52s-24 -52 -55 -52s-54 21 -54 52zM108 826c-12 0 -21 -8 -21 -21s9 -22 21 -22s21 9 21 22s-9 21 -21 21z" />
    <glyph glyph-name="Ccedilla" unicode="&#xc7;" horiz-adv-x="229" 
d="M72 -117v45h33c7 0 11 3 11 8s-4 7 -11 7h-26v55c-21 3 -37 12 -48 25c-15 19 -23 45 -23 79v543c0 61 27 104 102 104h16c68 0 96 -38 96 -95v-229h-95v226c0 10 -3 15 -10 15s-10 -5 -10 -15v-555c0 -21 20 -21 20 0v251h95v-253c0 -55 -28 -99 -96 -99h-5v-13h2
c35 0 52 -19 52 -46v-1c0 -31 -19 -52 -56 -52h-47z" />
    <glyph glyph-name="Eacute" unicode="&#xc9;" horiz-adv-x="179" 
d="M53 755l30 81h81l-33 -81h-78zM8 744h163v-89h-67v-217h58v-92h-58v-256h69v-90h-165v744z" />
    <glyph glyph-name="Ntilde" unicode="&#xd1;" horiz-adv-x="232" 
d="M120 821c12 -4 16 -7 20 -7c3 0 4 2 4 6v14h52v-35c0 -27 -11 -43 -34 -43h-2c-13 0 -24 4 -40 11c-10 5 -16 7 -19 7s-5 -2 -5 -6v-14h-51v37c0 27 12 42 36 42h1c12 0 22 -5 38 -12zM9 744h99l38 -429l-2 429h80v-744h-91l-46 478l1 -478h-79v744z" />
    <glyph glyph-name="Odieresis" unicode="&#xd6;" horiz-adv-x="237" 
d="M229 636v-530c0 -72 -38 -111 -103 -111h-14c-68 0 -104 40 -104 111v530c0 71 32 113 104 113h14c72 0 103 -44 103 -113zM130 98v548c0 11 -4 17 -11 17s-11 -6 -11 -17v-548c0 -11 4 -16 11 -16s11 5 11 16zM112 833v-78h-70v78h70zM195 833v-78h-71v78h71z" />
    <glyph glyph-name="Udieresis" unicode="&#xdc;" horiz-adv-x="235" 
d="M125 -5h-15c-75 0 -102 43 -102 94v655h99v-644c0 -10 3 -15 10 -15s11 5 11 15v644h99v-655c0 -51 -31 -94 -102 -94zM111 833v-78h-70v78h70zM194 833v-78h-71v78h71z" />
    <glyph glyph-name="aacute" unicode="&#xe1;" horiz-adv-x="217" 
d="M112 75v207c-15 -9 -16 -14 -16 -29v-179c0 -7 3 -11 8 -11c7 0 8 5 8 12zM6 53v196c0 35 11 51 38 66c16 8 49 22 61 27c5 2 7 6 7 12v116c0 7 -3 11 -8 11h-1c-5 0 -8 -4 -8 -11v-125h-87v127c0 52 37 72 90 72h10c60 0 96 -17 96 -72v-390c0 -3 1 -4 4 -4h7v-78h-79
c-15 0 -23 12 -23 37c-9 -19 -29 -41 -58 -41h-2c-32 0 -47 29 -47 57zM66 549l28 100h77l-29 -100h-76z" />
    <glyph glyph-name="agrave" unicode="&#xe0;" horiz-adv-x="217" 
d="M112 75v207c-15 -9 -16 -14 -16 -29v-179c0 -7 3 -11 8 -11c7 0 8 5 8 12zM6 53v196c0 35 11 51 38 66c16 8 49 22 61 27c5 2 7 6 7 12v116c0 7 -3 11 -8 11h-1c-5 0 -8 -4 -8 -11v-125h-87v127c0 52 37 72 90 72h10c60 0 96 -17 96 -72v-390c0 -3 1 -4 4 -4h7v-78h-79
c-15 0 -23 12 -23 37c-9 -19 -29 -41 -58 -41h-2c-32 0 -47 29 -47 57zM115 649l27 -100h-75l-30 100h78z" />
    <glyph glyph-name="acircumflex" unicode="&#xe2;" horiz-adv-x="217" 
d="M112 75v207c-15 -9 -16 -14 -16 -29v-179c0 -7 3 -11 8 -11c7 0 8 5 8 12zM6 53v196c0 35 11 51 38 66c16 8 49 22 61 27c5 2 7 6 7 12v116c0 7 -3 11 -8 11h-1c-5 0 -8 -4 -8 -11v-125h-87v127c0 52 37 72 90 72h10c60 0 96 -17 96 -72v-390c0 -3 1 -4 4 -4h7v-78h-79
c-15 0 -23 12 -23 37c-9 -19 -29 -41 -58 -41h-2c-32 0 -47 29 -47 57zM144 649l36 -100h-64l-12 49l-11 -49h-65l37 100h79z" />
    <glyph glyph-name="adieresis" unicode="&#xe4;" horiz-adv-x="217" 
d="M112 75v207c-15 -9 -16 -14 -16 -29v-179c0 -7 3 -11 8 -11c7 0 8 5 8 12zM6 53v196c0 35 11 51 38 66c16 8 49 22 61 27c5 2 7 6 7 12v116c0 7 -3 11 -8 11h-1c-5 0 -8 -4 -8 -11v-125h-87v127c0 52 37 72 90 72h10c60 0 96 -17 96 -72v-390c0 -3 1 -4 4 -4h7v-78h-79
c-15 0 -23 12 -23 37c-9 -19 -29 -41 -58 -41h-2c-32 0 -47 29 -47 57zM180 631v-80h-70v80h70zM98 631v-80h-69v80h69z" />
    <glyph glyph-name="atilde" unicode="&#xe3;" horiz-adv-x="217" 
d="M112 75v207c-15 -9 -16 -14 -16 -29v-179c0 -7 3 -11 8 -11c7 0 8 5 8 12zM6 53v196c0 35 11 51 38 66c16 8 49 22 61 27c5 2 7 6 7 12v116c0 7 -3 11 -8 11h-1c-5 0 -8 -4 -8 -11v-125h-87v127c0 52 37 72 90 72h10c60 0 96 -17 96 -72v-390c0 -3 1 -4 4 -4h7v-78h-79
c-15 0 -23 12 -23 37c-9 -19 -29 -41 -58 -41h-2c-32 0 -47 29 -47 57zM126 638h52v-43c0 -24 -11 -42 -36 -42h-1c-13 0 -22 5 -37 13c-11 7 -14 9 -18 9c-2 0 -3 -2 -3 -7v-17h-52v43c0 25 11 43 36 43h1c13 0 24 -5 37 -13c9 -5 15 -8 18 -8c2 0 3 2 3 6v16z" />
    <glyph glyph-name="aring" unicode="&#xe5;" horiz-adv-x="217" 
d="M112 75v207c-15 -9 -16 -14 -16 -29v-179c0 -7 3 -11 8 -11c7 0 8 5 8 12zM6 53v196c0 35 11 51 38 66c16 8 49 22 61 27c5 2 7 6 7 12v116c0 7 -3 11 -8 11h-1c-5 0 -8 -4 -8 -11v-125h-87v127c0 52 37 72 90 72h10c60 0 96 -17 96 -72v-390c0 -3 1 -4 4 -4h7v-78h-79
c-15 0 -23 12 -23 37c-9 -19 -29 -41 -58 -41h-2c-32 0 -47 29 -47 57zM159 603c0 -31 -24 -52 -55 -52s-54 21 -54 52s23 52 54 52s55 -21 55 -52zM83 603c0 -13 9 -22 21 -22s21 9 21 22s-9 21 -21 21s-21 -8 -21 -21z" />
    <glyph glyph-name="ccedilla" unicode="&#xe7;" horiz-adv-x="210" 
d="M60 -117v45h33c7 0 11 3 11 8s-4 7 -11 7h-26v55c-13 3 -25 8 -35 16c-17 14 -25 36 -25 66v377c0 48 23 87 90 87h23c60 0 84 -33 84 -78v-157h-87v157c0 7 -3 11 -8 11s-8 -4 -8 -11v-391c0 -7 3 -11 8 -11s8 4 8 11v177h87v-179c0 -48 -34 -79 -87 -79h-8v-12h2
c35 0 52 -19 52 -46v-1c0 -31 -19 -52 -56 -52h-47z" />
    <glyph glyph-name="eacute" unicode="&#xe9;" horiz-adv-x="214" 
d="M99 468v-146h18v146c0 11 -1 15 -9 15c-6 0 -9 -5 -9 -15zM207 242v-162c0 -55 -34 -86 -90 -86h-18c-57 0 -92 28 -92 89v370c0 56 29 91 92 91h18c51 0 90 -24 90 -89v-189h-108v-192c0 -9 3 -13 9 -13c8 0 9 5 9 13v168h90zM69 549l28 100h77l-29 -100h-76z" />
    <glyph glyph-name="egrave" unicode="&#xe8;" horiz-adv-x="214" 
d="M99 468v-146h18v146c0 11 -1 15 -9 15c-6 0 -9 -5 -9 -15zM207 242v-162c0 -55 -34 -86 -90 -86h-18c-57 0 -92 28 -92 89v370c0 56 29 91 92 91h18c51 0 90 -24 90 -89v-189h-108v-192c0 -9 3 -13 9 -13c8 0 9 5 9 13v168h90zM119 649l27 -100h-75l-30 100h78z" />
    <glyph glyph-name="ecircumflex" unicode="&#xea;" horiz-adv-x="214" 
d="M99 468v-146h18v146c0 11 -1 15 -9 15c-6 0 -9 -5 -9 -15zM207 242v-162c0 -55 -34 -86 -90 -86h-18c-57 0 -92 28 -92 89v370c0 56 29 91 92 91h18c51 0 90 -24 90 -89v-189h-108v-192c0 -9 3 -13 9 -13c8 0 9 5 9 13v168h90zM147 649l36 -100h-64l-12 49l-11 -49h-65
l37 100h79z" />
    <glyph glyph-name="edieresis" unicode="&#xeb;" horiz-adv-x="214" 
d="M99 468v-146h18v146c0 11 -1 15 -9 15c-6 0 -9 -5 -9 -15zM207 242v-162c0 -55 -34 -86 -90 -86h-18c-57 0 -92 28 -92 89v370c0 56 29 91 92 91h18c51 0 90 -24 90 -89v-189h-108v-192c0 -9 3 -13 9 -13c8 0 9 5 9 13v168h90zM183 631v-80h-70v80h70zM101 631v-80h-69
v80h69z" />
    <glyph glyph-name="iacute" unicode="&#xed;" horiz-adv-x="109" 
d="M18 549l28 100h77l-29 -100h-76zM102 538v-538h-95v538h95z" />
    <glyph glyph-name="igrave" unicode="&#xec;" horiz-adv-x="109" 
d="M102 538v-538h-95v538h95zM66 649l27 -100h-75l-30 100h78z" />
    <glyph glyph-name="icircumflex" unicode="&#xee;" horiz-adv-x="109" 
d="M95 649l24 -100h-55l-10 52l-9 -52h-55l26 100h79zM102 538v-538h-95v538h95z" />
    <glyph glyph-name="idieresis" unicode="&#xef;" horiz-adv-x="109" 
d="M118 629v-80h-59v80h59zM50 629v-80h-59v80h59zM102 538v-538h-95v538h95z" />
    <glyph glyph-name="ntilde" unicode="&#xf1;" 
d="M7 0v538h94v-37c13 20 33 41 62 41h4c40 0 49 -33 49 -54v-488h-95v458c0 7 -2 12 -10 12c-6 0 -9 -4 -9 -13v-457h-95zM134 635h52v-43c0 -24 -11 -42 -36 -42h-1c-13 0 -22 5 -37 13c-11 7 -14 9 -18 9c-2 0 -3 -2 -3 -7v-17h-52v43c0 25 11 43 36 43h1
c13 0 24 -5 37 -13c9 -5 15 -8 18 -8c2 0 3 2 3 6v16z" />
    <glyph glyph-name="oacute" unicode="&#xf3;" 
d="M118 -6h-14c-65 0 -97 33 -97 100v350c0 68 36 100 97 100h15c65 0 97 -33 97 -100v-350c0 -68 -37 -100 -98 -100zM111 66c7 0 10 5 10 14v380c0 7 -2 14 -10 14s-9 -7 -9 -14v-380c0 -9 3 -14 9 -14zM73 549l28 100h77l-29 -100h-76z" />
    <glyph glyph-name="ograve" unicode="&#xf2;" 
d="M118 -6h-14c-65 0 -97 33 -97 100v350c0 68 36 100 97 100h15c65 0 97 -33 97 -100v-350c0 -68 -37 -100 -98 -100zM111 66c7 0 10 5 10 14v380c0 7 -2 14 -10 14s-9 -7 -9 -14v-380c0 -9 3 -14 9 -14zM123 649l27 -100h-75l-30 100h78z" />
    <glyph glyph-name="ocircumflex" unicode="&#xf4;" 
d="M118 -6h-14c-65 0 -97 33 -97 100v350c0 68 36 100 97 100h15c65 0 97 -33 97 -100v-350c0 -68 -37 -100 -98 -100zM111 66c7 0 10 5 10 14v380c0 7 -2 14 -10 14s-9 -7 -9 -14v-380c0 -9 3 -14 9 -14zM152 649l36 -100h-64l-12 49l-11 -49h-65l37 100h79z" />
    <glyph glyph-name="odieresis" unicode="&#xf6;" 
d="M118 -6h-14c-65 0 -97 33 -97 100v350c0 68 36 100 97 100h15c65 0 97 -33 97 -100v-350c0 -68 -37 -100 -98 -100zM111 66c7 0 10 5 10 14v380c0 7 -2 14 -10 14s-9 -7 -9 -14v-380c0 -9 3 -14 9 -14zM187 631v-80h-70v80h70zM105 631v-80h-69v80h69z" />
    <glyph glyph-name="otilde" unicode="&#xf5;" 
d="M118 -6h-14c-65 0 -97 33 -97 100v350c0 68 36 100 97 100h15c65 0 97 -33 97 -100v-350c0 -68 -37 -100 -98 -100zM111 66c7 0 10 5 10 14v380c0 7 -2 14 -10 14s-9 -7 -9 -14v-380c0 -9 3 -14 9 -14zM133 638h52v-43c0 -24 -11 -42 -36 -42h-1c-13 0 -22 5 -37 13
c-11 7 -14 9 -18 9c-2 0 -3 -2 -3 -7v-17h-52v43c0 25 11 43 36 43h1c13 0 24 -5 37 -13c9 -5 15 -8 18 -8c2 0 3 2 3 6v16z" />
    <glyph glyph-name="uacute" unicode="&#xfa;" 
d="M74 549l28 100h77l-29 -100h-76zM216 538v-538h-93v37c-15 -20 -33 -40 -64 -40h-3c-36 0 -49 33 -49 54v487h96v-457c0 -9 3 -13 9 -13s9 4 9 13v457h95z" />
    <glyph glyph-name="ugrave" unicode="&#xf9;" 
d="M216 538v-538h-93v37c-15 -20 -33 -40 -64 -40h-3c-36 0 -49 33 -49 54v487h96v-457c0 -9 3 -13 9 -13s9 4 9 13v457h95zM123 649l27 -100h-75l-30 100h78z" />
    <glyph glyph-name="ucircumflex" unicode="&#xfb;" 
d="M151 649l36 -100h-64l-12 49l-11 -49h-65l37 100h79zM216 538v-538h-93v37c-15 -20 -33 -40 -64 -40h-3c-36 0 -49 33 -49 54v487h96v-457c0 -9 3 -13 9 -13s9 4 9 13v457h95z" />
    <glyph glyph-name="udieresis" unicode="&#xfc;" 
d="M188 629v-80h-70v80h70zM106 629v-80h-69v80h69zM216 538v-538h-93v37c-15 -20 -33 -40 -64 -40h-3c-36 0 -49 33 -49 54v487h96v-457c0 -9 3 -13 9 -13s9 4 9 13v457h95z" />
    <glyph glyph-name="dagger" unicode="&#x2020;" horiz-adv-x="174" 
d="M41 0v577h-35l1 79h35l-1 88h92v-88h35v-79h-35v-577h-92z" />
    <glyph glyph-name="degree" unicode="&#xb0;" horiz-adv-x="140" 
d="M5 685c0 35 25 62 65 62s65 -27 65 -62s-25 -62 -65 -62s-65 27 -65 62zM46 685c0 -15 9 -24 24 -24s23 9 23 24s-8 24 -23 24s-24 -9 -24 -24z" />
    <glyph glyph-name="cent" unicode="&#xa2;" horiz-adv-x="210" 
d="M91 460v-378c0 -11 4 -18 11 -20v417c-7 -2 -11 -8 -11 -19zM117 -42h-15v36h-7c-51 0 -88 25 -88 85v378c0 49 24 87 88 87h7v34h15v-34h4c60 0 84 -33 84 -77v-158h-77v151c0 11 -4 17 -11 19v-417c7 2 11 9 11 20v170h77v-180c0 -48 -35 -78 -86 -78h-2v-36z" />
    <glyph glyph-name="sterling" unicode="&#xa3;" horiz-adv-x="246" 
d="M238 299v-299h-232v76h7c19 3 31 10 31 61v4c0 37 -3 100 -6 179h-32v74h29c-3 72 -5 148 -5 224v33c0 61 29 98 102 98h6c72 0 95 -36 95 -87v-247h-87v243c0 9 -3 13 -10 13s-10 -4 -10 -13v-2c0 -51 2 -158 2 -262h64v-74h-64c1 -63 1 -117 1 -150
c0 -59 -13 -80 -25 -93h48v222h86z" />
    <glyph glyph-name="section" unicode="&#xa7;" horiz-adv-x="257" 
d="M97 341l66 -122c5 5 7 11 7 18c0 8 -2 15 -13 34l-65 119c-3 -4 -7 -9 -7 -18c0 -7 1 -12 12 -31zM134 -163h-21c-57 0 -85 25 -85 82v172h87v-172c0 -8 5 -11 9 -11c7 0 10 4 10 11v126c0 32 -2 36 -18 65l-89 152c-19 31 -23 54 -23 89v6c0 47 25 70 62 82l-10 18
c-21 36 -24 57 -24 97v114c0 49 28 81 89 81h23c52 0 84 -22 84 -77v-147h-86v142c0 8 -3 12 -9 12s-9 -4 -9 -12v-98c0 -29 1 -36 17 -66l89 -165c17 -32 23 -52 23 -80v-6c0 -52 -21 -73 -60 -88l8 -15c19 -38 25 -49 25 -92v-134c0 -56 -32 -86 -92 -86z" />
    <glyph glyph-name="bullet" unicode="&#x2022;" horiz-adv-x="159" 
d="M79 257c-43 0 -73 31 -73 72c0 43 30 73 73 73c44 0 74 -30 74 -73c0 -41 -30 -72 -74 -72z" />
    <glyph glyph-name="paragraph" unicode="&#xb6;" horiz-adv-x="236" 
d="M80 0v362h-3c-35 0 -70 21 -70 76v227c0 52 26 79 70 79h155v-64h-20v-680h-58v680h-15v-680h-59z" />
    <glyph glyph-name="germandbls" unicode="&#xdf;" horiz-adv-x="224" 
d="M178 466c20 -7 41 -26 41 -58v-341c0 -40 -24 -67 -61 -67h-48v73h5c4 0 6 2 6 7v320c0 6 -2 9 -7 9h-4v73h4c5 0 7 2 7 7v174c0 9 -3 13 -9 13h-1c-6 0 -9 -4 -9 -13v-663h-95v664c0 47 25 84 92 84h25c64 0 89 -33 89 -70v-155c0 -32 -20 -50 -35 -57z" />
    <glyph glyph-name="registered" unicode="&#xae;" horiz-adv-x="170" 
d="M89 429h-8c-44 0 -74 24 -74 75v169c0 49 27 74 74 74h9c47 0 73 -25 73 -72v-171c0 -49 -31 -75 -74 -75zM32 673v-168c0 -37 16 -55 49 -56h8c33 1 50 19 50 56v170c0 35 -16 52 -49 52h-9c-35 0 -49 -15 -49 -54zM81 683v-76h5c3 0 4 2 4 5v65c0 4 -1 6 -4 6h-5z
M81 578v-109h-35v241h52c19 0 28 -9 28 -26v-68c0 -11 -4 -17 -12 -20c8 -3 12 -9 12 -16v-101c0 -4 1 -7 2 -8v-2h-34c-1 1 -4 4 -4 8v95c0 4 -1 6 -4 6h-5z" />
    <glyph glyph-name="copyright" unicode="&#xa9;" horiz-adv-x="299" 
d="M153 -5h-5c-84 0 -140 40 -140 136v483c0 89 57 135 141 135h5c81 0 137 -40 137 -135v-483c0 -95 -66 -136 -138 -136zM53 602v-461c0 -73 32 -109 96 -109h4c63 0 94 36 94 109v461c0 73 -31 110 -94 110h-4c-63 0 -96 -30 -96 -110zM145 620v-492c0 -9 2 -13 7 -13
s8 4 8 13v237h69v-240c0 -39 -21 -71 -72 -71h-8c-53 0 -78 28 -78 76v484c0 48 25 77 76 77h10c47 0 72 -25 72 -68v-196h-69v193c0 7 -3 11 -8 11s-7 -4 -7 -11z" />
    <glyph glyph-name="trademark" unicode="&#x2122;" horiz-adv-x="221" 
d="M85 702h-16v-247h-49v247h-16v42h81v-42zM131 627v-172h-40v289h55l6 -110l3 -36l1 37l5 109h53v-289h-40v172l-4 -53l-8 -119h-20l-7 119z" />
    <glyph glyph-name="acute" unicode="&#xb4;" horiz-adv-x="171" 
d="M33 549l28 100h77l-29 -100h-76z" />
    <glyph glyph-name="dieresis" unicode="&#xa8;" horiz-adv-x="171" 
d="M161 629v-80h-70v80h70zM79 629v-80h-69v80h69z" />
    <glyph glyph-name="AE" unicode="&#xc6;" horiz-adv-x="293" 
d="M129 210v360l-23 -360h23zM129 0v124h-29l-8 -124h-93l66 744h219v-89h-59v-217h50v-92h-50v-256h62v-90h-158z" />
    <glyph glyph-name="Oslash" unicode="&#xd8;" horiz-adv-x="237" 
d="M106 646v-94c0 -49 0 -123 -3 -196l28 213v77c0 12 -4 18 -12 18c-9 0 -13 -6 -13 -18zM119 82c8 0 12 6 12 17v93c0 49 1 133 4 213l-29 -214v-92c0 -11 4 -17 13 -17zM52 -6h-43l16 47c-9 16 -17 37 -17 65v533c0 65 32 110 104 110h11c23 0 41 -6 53 -14l6 15h43
l-15 -41c12 -17 19 -38 19 -69v-537c0 -67 -39 -108 -103 -108h-12c-27 0 -44 6 -56 17z" />
    <glyph glyph-name="yen" unicode="&#xa5;" horiz-adv-x="213" 
d="M60 0v266h-46v53h46v11h-46v53h41l-56 361h96l15 -224l1 -69l2 69l16 224h85l-53 -361h43v-53h-46v-11h46v-53h-46v-266h-98z" />
    <glyph glyph-name="ordfeminine" unicode="&#xaa;" horiz-adv-x="138" 
d="M73 457c-7 -11 -18 -24 -35 -24h-2c-20 0 -30 15 -30 34v106c0 23 6 31 25 40l36 15c4 2 6 5 6 8v64c0 5 -2 8 -6 8s-6 -3 -6 -8v-69h-52v73c0 31 21 43 54 43h7c39 0 58 -12 58 -43v-220c0 -3 1 -4 3 -4h4v-45h-48c-9 0 -14 7 -14 22zM61 575v-94c0 -5 2 -7 6 -7
s6 2 6 7v111c-9 -4 -12 -6 -12 -17z" />
    <glyph glyph-name="ordmasculine" unicode="&#xba;" horiz-adv-x="140" 
d="M75 430h-9c-36 0 -59 18 -59 55v207c0 37 23 55 59 55h9c36 0 58 -18 58 -55v-207c0 -37 -23 -55 -58 -55zM70 473c7 0 6 5 6 9v213c0 4 1 9 -6 9c-5 0 -5 -5 -5 -9v-213c0 -4 0 -9 5 -9z" />
    <glyph glyph-name="ae" unicode="&#xe6;" horiz-adv-x="319" 
d="M205 468v-143h18v143c0 11 -1 14 -9 14c-6 0 -9 -5 -9 -14zM112 75v195c-15 -9 -16 -14 -16 -29v-167c0 -7 3 -11 8 -11c7 0 8 5 8 12zM313 245v-165c0 -55 -34 -86 -90 -86h-18c-49 0 -73 20 -82 44c-12 -17 -31 -42 -66 -42h-2c-35 0 -49 29 -49 57v183
c0 35 11 51 38 66c16 8 49 20 61 27c5 2 7 6 7 11v130c0 7 -3 11 -8 11h-1c-5 0 -8 -4 -8 -11v-138h-86v140c0 52 35 72 86 72h9c36 0 51 -10 58 -17c7 7 20 17 52 17h10c49 0 89 -24 89 -89v-186h-108v-195c0 -9 3 -13 9 -13c8 0 9 5 9 13v171h90z" />
    <glyph glyph-name="oslash" unicode="&#xf8;" horiz-adv-x="220" 
d="M52 -5h-39l14 32c-13 17 -20 40 -20 69v346c0 68 33 102 100 102h4c23 0 39 -5 51 -13l6 13h40l-16 -33c12 -15 21 -38 21 -69v-346c0 -68 -37 -101 -102 -101h-2c-23 0 -40 5 -52 12zM109 66c7 0 11 5 11 15v56c0 36 1 93 4 148l-25 -136v-68c0 -10 3 -15 10 -15z
M99 459v-66c0 -29 0 -81 -3 -133l24 134v65c0 8 0 15 -11 15c-9 0 -10 -7 -10 -15z" />
    <glyph glyph-name="questiondown" unicode="&#xbf;" horiz-adv-x="214" 
d="M78 417h72v-152c0 -41 -5 -57 -18 -91l-24 -59c-8 -20 -9 -33 -9 -62v-174c0 -9 1 -14 9 -14s9 5 9 14v208h88v-207c0 -51 -21 -90 -90 -90h-17c-68 0 -93 34 -93 89v162c0 46 5 66 23 105l31 62c16 32 19 46 19 78v131zM72 430v108h84v-108h-84z" />
    <glyph glyph-name="exclamdown" unicode="&#xa1;" horiz-adv-x="111" 
d="M103 -206h-99c0 65 20 469 24 623h52c4 -154 23 -560 23 -623zM12 430v108h84v-108h-84z" />
    <glyph glyph-name="florin" unicode="&#x192;" horiz-adv-x="162" 
d="M157 378h-33l-13 -537h-93l11 537h-25v77h27l5 234c1 39 24 55 60 55h61v-77h-17c-7 0 -10 -4 -10 -11l-5 -201h32v-77z" />
    <glyph glyph-name="guillemotleft" unicode="&#xab;" horiz-adv-x="185" 
d="M155 276l23 -139h-66l-28 139l29 136h67zM73 276l28 -139h-67l-28 122v35l28 118h68z" />
    <glyph glyph-name="guillemotright" unicode="&#xbb;" horiz-adv-x="185" 
d="M6 137l24 138l-25 137h67l28 -137l-27 -138h-67zM83 137l29 138l-29 137h67l29 -118v-36l-29 -121h-67z" />
    <glyph glyph-name="ellipsis" unicode="&#x2026;" horiz-adv-x="292" 
d="M91 0h-84v108h84v-108zM104 0v108h84v-108h-84zM201 108h84v-108h-84v108z" />
    <glyph glyph-name="nbspace" unicode="&#xa0;" horiz-adv-x="63" 
 />
    <glyph glyph-name="Agrave" unicode="&#xc0;" horiz-adv-x="219" 
d="M117 236l-12 314l-12 -314h24zM126 0l-6 151h-31l-6 -151h-84l47 744h124l50 -744h-94zM121 836l29 -81h-78l-32 81h81z" />
    <glyph glyph-name="Atilde" unicode="&#xc3;" horiz-adv-x="219" 
d="M117 236l-12 314l-12 -314h24zM126 0l-6 151h-31l-6 -151h-84l47 744h124l50 -744h-94zM108 821c12 -4 16 -7 20 -7c3 0 4 2 4 6v14h52v-35c0 -27 -11 -43 -34 -43h-2c-13 0 -24 4 -40 11c-10 5 -16 7 -19 7s-5 -2 -5 -6v-14h-51v37c0 27 12 42 36 42h1
c12 0 22 -5 38 -12z" />
    <glyph glyph-name="Otilde" unicode="&#xd5;" horiz-adv-x="237" 
d="M119 824c12 -4 16 -7 20 -7c3 0 4 2 4 6v14h52v-35c0 -27 -11 -43 -34 -43h-2c-13 0 -24 4 -40 11c-10 5 -16 7 -19 7s-5 -2 -5 -6v-14h-51v37c0 27 12 42 36 42h1c12 0 22 -5 38 -12zM229 636v-530c0 -72 -38 -111 -103 -111h-14c-68 0 -104 40 -104 111v530
c0 71 32 113 104 113h14c72 0 103 -44 103 -113zM130 98v548c0 11 -4 17 -11 17s-11 -6 -11 -17v-548c0 -11 4 -16 11 -16s11 5 11 16z" />
    <glyph glyph-name="OE" unicode="&#x152;" horiz-adv-x="294" 
d="M129 98v549c0 11 -3 17 -10 17s-11 -6 -11 -17v-549c0 -11 4 -16 11 -16s10 5 10 16zM133 0v26c-7 -13 -24 -31 -51 -31h-3c-47 0 -71 36 -71 103v549c0 55 20 101 71 101h3c31 0 44 -18 51 -29v25h153v-89h-59v-217h49v-92h-49v-256h61v-90h-155z" />
    <glyph glyph-name="oe" unicode="&#x153;" horiz-adv-x="329" 
d="M215 468v-146h18v148c0 8 -3 12 -9 12c-8 0 -9 -3 -9 -14zM111 65c7 0 10 5 10 14v380c0 8 -2 15 -10 15s-9 -7 -9 -15v-380c0 -9 1 -14 9 -14zM167 11c-8 -7 -25 -18 -56 -18h-10c-63 0 -94 34 -94 102v349c0 71 37 100 94 100h12c31 0 49 -10 56 -17c7 7 22 17 50 17
h16c49 0 88 -24 88 -89v-189h-108v-192c0 -9 3 -13 9 -13s9 4 9 13v168h90v-162c0 -55 -35 -86 -87 -86h-17c-28 0 -44 10 -52 17z" />
    <glyph glyph-name="endash" unicode="&#x2013;" horiz-adv-x="218" 
d="M7 332h204v-63h-204v63z" />
    <glyph glyph-name="emdash" unicode="&#x2014;" horiz-adv-x="328" 
d="M7 332h314v-63h-314v63z" />
    <glyph glyph-name="quotedblleft" unicode="&#x201c;" horiz-adv-x="175" 
d="M109 744h44c-7 -17 -13 -44 -13 -64h28v-92h-76v74c0 32 10 65 17 82zM24 744h44c-7 -17 -13 -44 -14 -64h29v-92h-76v74c0 32 10 65 17 82z" />
    <glyph glyph-name="quotedblright" unicode="&#x201d;" horiz-adv-x="175" 
d="M152 588h-45c7 19 14 44 14 64h-29v92h76v-74c0 -31 -9 -65 -16 -82zM67 588h-45c7 19 14 44 14 64h-29v92h76v-74c0 -31 -9 -65 -16 -82z" />
    <glyph glyph-name="quoteleft" unicode="&#x2018;" horiz-adv-x="90" 
d="M24 744h44c-7 -17 -13 -44 -14 -64h29v-92h-76v74c0 32 10 65 17 82z" />
    <glyph glyph-name="quoteright" unicode="&#x2019;" horiz-adv-x="90" 
d="M67 588h-45c7 19 14 44 14 64h-29v92h76v-74c0 -31 -9 -65 -16 -82z" />
    <glyph glyph-name="divide" unicode="&#xf7;" horiz-adv-x="183" 
d="M123 404v-62h-63v62h63zM7 332h169v-58h-169v58zM123 264v-62h-63v62h63z" />
    <glyph glyph-name="ydieresis" unicode="&#xff;" horiz-adv-x="208" 
d="M24 -159v78h28c5 0 8 3 8 9c0 5 1 20 1 31c0 12 0 21 -3 40l-58 539h93l15 -338l9 338h92l-65 -656c-5 -32 -24 -41 -43 -41h-77zM180 629v-80h-70v80h70zM98 629v-80h-69v80h69z" />
    <glyph glyph-name="Ydieresis" unicode="&#x178;" horiz-adv-x="215" 
d="M61 0v302l-62 442h96l17 -279l17 279h87l-58 -442v-302h-97zM106 833v-78h-70v78h70zM189 833v-78h-71v78h71z" />
    <glyph glyph-name="fraction" unicode="&#x2044;" horiz-adv-x="218" 
d="M162 744h55l-161 -744h-55z" />
    <glyph glyph-name="Euro" unicode="&#x20ac;" horiz-adv-x="251" 
d="M147 -5h-14c-76 0 -104 39 -104 107v226h-26v54h26v10h-26v53h26v200c0 61 29 104 102 104h16c68 0 96 -38 96 -95v-198h-95v195c0 11 -1 15 -10 15c-7 0 -10 -5 -10 -15v-206h58v-53h-58v-10h58v-54h-58v-232c0 -11 3 -16 10 -16c9 0 10 7 10 16v222h95v-224
c0 -55 -28 -99 -96 -99z" />
    <glyph glyph-name="guilsinglleft" unicode="&#x2039;" horiz-adv-x="109" 
d="M77 276l26 -139h-70l-27 122v35l27 118h71z" />
    <glyph glyph-name="guilsinglright" unicode="&#x203a;" horiz-adv-x="109" 
d="M32 276l-27 136h71l27 -118v-35l-27 -122h-70z" />
    <glyph glyph-name="daggerdbl" unicode="&#x2021;" horiz-adv-x="174" 
d="M41 92h-35v79h35v406h-35v79h35v88h92v-88h35v-79h-35v-406h35v-79h-35v-92h-92v92z" />
    <glyph glyph-name="periodcentered" unicode="&#xb7;" horiz-adv-x="98" 
d="M91 369v-108h-84v108h84z" />
    <glyph glyph-name="quotesinglbase" unicode="&#x201a;" horiz-adv-x="90" 
d="M83 92v-74c0 -32 -9 -65 -16 -82h-45c7 17 14 44 14 64h-29v92h76z" />
    <glyph glyph-name="quotedblbase" unicode="&#x201e;" horiz-adv-x="175" 
d="M168 92v-74c0 -32 -9 -65 -16 -82h-45c7 17 14 44 14 64h-29v92h76zM83 92v-74c0 -32 -9 -65 -16 -82h-45c7 17 14 44 14 64h-29v92h76z" />
    <glyph glyph-name="perthousand" unicode="&#x2030;" horiz-adv-x="457" 
d="M7 488v195c0 44 24 65 63 65h10c43 0 64 -22 64 -65v-195c0 -43 -25 -65 -64 -65h-10c-42 0 -63 22 -63 65zM214 744h55l-172 -744h-55zM82 480v212c0 6 -2 9 -6 9c-5 0 -7 -3 -7 -9v-212c0 -6 2 -9 7 -9c4 0 6 3 6 9zM240 -4h-10c-42 0 -63 22 -63 65v195
c0 44 24 65 63 65h10c43 0 64 -22 64 -65v-195c0 -43 -25 -65 -64 -65zM386 -4h-9c-43 0 -64 22 -64 65v195c0 44 24 65 63 65h11c42 0 63 -22 63 -65v-195c0 -43 -25 -65 -64 -65zM236 44c4 0 6 3 6 9v212c0 6 -2 9 -6 9c-5 0 -7 -3 -7 -9v-212c0 -6 2 -9 7 -9zM382 44
c4 0 6 3 6 9v212c0 6 -2 9 -6 9s-6 -3 -6 -9v-212c0 -6 2 -9 6 -9z" />
    <glyph glyph-name="Acircumflex" unicode="&#xc2;" horiz-adv-x="219" 
d="M117 236l-12 314l-12 -314h24zM126 0l-6 151h-31l-6 -151h-84l47 744h124l50 -744h-94zM149 836l40 -81h-68l-13 33l-13 -33h-67l39 81h82z" />
    <glyph glyph-name="Ecircumflex" unicode="&#xca;" horiz-adv-x="179" 
d="M131 836l40 -81h-68l-13 33l-13 -33h-67l39 81h82zM8 744h163v-89h-67v-217h58v-92h-58v-256h69v-90h-165v744z" />
    <glyph glyph-name="Aacute" unicode="&#xc1;" horiz-adv-x="219" 
d="M117 236l-12 314l-12 -314h24zM126 0l-6 151h-31l-6 -151h-84l47 744h124l50 -744h-94zM69 755l30 81h81l-33 -81h-78z" />
    <glyph glyph-name="Edieresis" unicode="&#xcb;" horiz-adv-x="179" 
d="M8 744h163v-89h-67v-217h58v-92h-58v-256h69v-90h-165v744zM84 833v-78h-70v78h70zM167 833v-78h-71v78h71z" />
    <glyph glyph-name="Egrave" unicode="&#xc8;" horiz-adv-x="179" 
d="M103 836l29 -81h-78l-32 81h81zM8 744h163v-89h-67v-217h58v-92h-58v-256h69v-90h-165v744z" />
    <glyph glyph-name="Iacute" unicode="&#xcd;" horiz-adv-x="114" 
d="M106 744v-744h-98v744h98zM18 755l30 81h81l-33 -81h-78z" />
    <glyph glyph-name="Icircumflex" unicode="&#xce;" horiz-adv-x="114" 
d="M106 744v-744h-98v744h98zM97 836l40 -81h-68l-13 33l-13 -33h-67l39 81h82z" />
    <glyph glyph-name="Idieresis" unicode="&#xcf;" horiz-adv-x="114" 
d="M106 744v-744h-98v744h98zM50 833v-78h-70v78h70zM133 833v-78h-71v78h71z" />
    <glyph glyph-name="Igrave" unicode="&#xcc;" horiz-adv-x="114" 
d="M106 744v-744h-98v744h98zM67 836l29 -81h-78l-32 81h81z" />
    <glyph glyph-name="Oacute" unicode="&#xd3;" horiz-adv-x="237" 
d="M229 636v-530c0 -72 -38 -111 -103 -111h-14c-68 0 -104 40 -104 111v530c0 71 32 113 104 113h14c72 0 103 -44 103 -113zM130 98v548c0 11 -4 17 -11 17s-11 -6 -11 -17v-548c0 -11 4 -16 11 -16s11 5 11 16zM80 755l30 81h81l-33 -81h-78z" />
    <glyph glyph-name="Ocircumflex" unicode="&#xd4;" horiz-adv-x="237" 
d="M229 636v-530c0 -72 -38 -111 -103 -111h-14c-68 0 -104 40 -104 111v530c0 71 32 113 104 113h14c72 0 103 -44 103 -113zM130 98v548c0 11 -4 17 -11 17s-11 -6 -11 -17v-548c0 -11 4 -16 11 -16s11 5 11 16zM160 836l40 -81h-68l-13 33l-13 -33h-67l39 81h82z" />
    <glyph glyph-name="Ograve" unicode="&#xd2;" horiz-adv-x="237" 
d="M229 636v-530c0 -72 -38 -111 -103 -111h-14c-68 0 -104 40 -104 111v530c0 71 32 113 104 113h14c72 0 103 -44 103 -113zM130 98v548c0 11 -4 17 -11 17s-11 -6 -11 -17v-548c0 -11 4 -16 11 -16s11 5 11 16zM129 836l29 -81h-78l-32 81h81z" />
    <glyph glyph-name="Uacute" unicode="&#xda;" horiz-adv-x="235" 
d="M79 755l30 81h81l-33 -81h-78zM125 -5h-15c-75 0 -102 43 -102 94v655h99v-644c0 -10 3 -15 10 -15s11 5 11 15v644h99v-655c0 -51 -31 -94 -102 -94z" />
    <glyph glyph-name="Ucircumflex" unicode="&#xdb;" horiz-adv-x="235" 
d="M158 836l40 -81h-68l-13 33l-13 -33h-67l39 81h82zM125 -5h-15c-75 0 -102 43 -102 94v655h99v-644c0 -10 3 -15 10 -15s11 5 11 15v644h99v-655c0 -51 -31 -94 -102 -94z" />
    <glyph glyph-name="Ugrave" unicode="&#xd9;" horiz-adv-x="235" 
d="M129 836l29 -81h-78l-32 81h81zM125 -5h-15c-75 0 -102 43 -102 94v655h99v-644c0 -10 3 -15 10 -15s11 5 11 15v644h99v-655c0 -51 -31 -94 -102 -94z" />
    <glyph glyph-name="dotlessi" unicode="&#x131;" horiz-adv-x="109" 
d="M102 538v-538h-95v538h95z" />
    <glyph glyph-name="circumflex" unicode="&#x2c6;" horiz-adv-x="171" 
d="M125 649l36 -100h-64l-12 49l-11 -49h-65l37 100h79z" />
    <glyph glyph-name="tilde" unicode="&#x2dc;" horiz-adv-x="171" 
d="M107 635h52v-43c0 -24 -11 -42 -36 -42h-1c-13 0 -22 5 -37 13c-11 7 -14 9 -18 9c-2 0 -3 -2 -3 -7v-17h-52v43c0 25 11 43 36 43h1c13 0 24 -5 37 -13c9 -5 15 -8 18 -8c2 0 3 2 3 6v16z" />
    <glyph glyph-name="macron" unicode="&#xaf;" horiz-adv-x="171" 
d="M20 554v64h131v-64h-131z" />
    <glyph glyph-name="breve" unicode="&#x2d8;" horiz-adv-x="171" 
d="M87 547h-2c-51 0 -74 28 -74 72v11h62v-8c0 -13 4 -20 12 -20c9 0 13 7 13 20v8h61v-11c0 -44 -25 -72 -72 -72z" />
    <glyph glyph-name="dotaccent" unicode="&#x2d9;" horiz-adv-x="171" 
d="M133 649v-100h-95v100h95z" />
    <glyph glyph-name="ring" unicode="&#x2da;" horiz-adv-x="171" 
d="M140 600c0 -31 -24 -52 -55 -52s-54 21 -54 52s23 52 54 52s55 -21 55 -52zM64 600c0 -13 9 -22 21 -22s21 9 21 22s-9 21 -21 21s-21 -8 -21 -21z" />
    <glyph glyph-name="cedilla" unicode="&#xb8;" horiz-adv-x="171" 
d="M34 -117v45h33c7 0 11 3 11 8s-4 7 -11 7h-26v57h42v-18h2c35 0 52 -19 52 -46v-1c0 -31 -19 -52 -56 -52h-47z" />
    <glyph glyph-name="hungarumlaut" unicode="&#x2dd;" horiz-adv-x="171" 
d="M81 549l22 100h64l-22 -100h-64zM5 549l22 100h64l-22 -100h-64z" />
    <glyph glyph-name="ogonek" unicode="&#x2db;" horiz-adv-x="171" 
d="M41 -105v4c0 37 24 74 51 101h39c-13 -20 -21 -53 -21 -76v-2c0 -19 6 -24 17 -24h4v-57h-26c-32 0 -64 14 -64 54z" />
    <glyph glyph-name="caron" unicode="&#x2c7;" horiz-adv-x="171" 
d="M46 549l-37 100h65l11 -50l12 50h64l-36 -100h-79z" />
    <glyph glyph-name="idotaccent" horiz-adv-x="109" 
d="M102 649v-100h-95v100h95zM102 538v-538h-95v538h95z" />
    <glyph glyph-name="space_uni0326" horiz-adv-x="171" 
d="M109 -139h-41c7 16 10 36 10 51h-30v77h76v-58c0 -28 -8 -55 -15 -70z" />
    <glyph glyph-name="zero.num" horiz-adv-x="160" 
d="M76 747h10c52 0 68 -33 68 -68v-213c0 -32 -17 -68 -68 -68h-10c-53 0 -70 36 -70 68v213c0 33 17 68 70 68zM87 464v218c0 7 -2 10 -7 10c-4 0 -6 -3 -6 -10v-218c0 -6 2 -9 6 -9c5 0 7 3 7 9z" />
    <glyph glyph-name="one.num" horiz-adv-x="98" 
d="M27 673h-24v50c19 0 29 7 30 21h57v-343h-63v272z" />
    <glyph glyph-name="two.num" horiz-adv-x="149" 
d="M144 401h-139v52c0 52 13 67 45 126c27 52 28 52 28 76v37c0 5 -2 8 -6 8s-6 -3 -6 -8v-65h-59v63c0 32 14 57 61 57h8c51 0 67 -22 67 -55v-31c0 -45 -11 -59 -44 -108c-34 -49 -36 -58 -36 -86v-18h25v72h56v-120z" />
    <glyph glyph-name="three.num" horiz-adv-x="148" 
d="M64 621h-58v76c0 29 17 50 60 50h8c43 0 65 -16 65 -49v-76c0 -19 -12 -28 -21 -31c11 -4 26 -13 26 -38v-98c0 -35 -20 -58 -68 -58h-9c-49 0 -62 23 -62 54v94h61v-90c0 -5 2 -8 6 -8c3 0 5 3 5 8v98c0 4 -2 6 -5 6h-29v49h28c3 0 5 2 5 6v80c0 5 -2 8 -6 8
s-6 -3 -6 -8v-73z" />
    <glyph glyph-name="four.num" horiz-adv-x="136" 
d="M4 456v47l43 242h69v-235h17v-54h-17v-55h-60v55h-52zM42 510h14v142z" />
    <glyph glyph-name="five.num" horiz-adv-x="149" 
d="M66 559h-58v185h129v-52h-72v-70c7 12 19 26 38 26h3c27 0 37 -19 37 -44v-146c0 -36 -19 -60 -66 -60h-10c-49 0 -62 23 -62 54v82h61v-81c0 -5 2 -8 6 -8s6 3 6 8v136c0 8 -2 9 -6 9s-6 -3 -6 -9v-30z" />
    <glyph glyph-name="six.num" horiz-adv-x="157" 
d="M72 689v-91c7 8 20 22 40 22h2c27 0 38 -19 38 -43v-114c0 -43 -24 -65 -67 -65h-12c-45 0 -67 22 -67 65v221c0 35 17 63 68 63h9c51 0 66 -24 66 -59v-57h-65v58c0 6 -2 9 -6 9s-6 -3 -6 -9zM72 566v-109c0 -7 2 -10 7 -10c4 0 6 3 6 10v109c0 7 -2 10 -6 10
c-5 0 -7 -3 -7 -10z" />
    <glyph glyph-name="seven.num" horiz-adv-x="135" 
d="M4 744h128v-32c0 -49 -10 -87 -18 -167c-7 -55 -7 -91 -7 -132v-12h-74v11c0 43 2 70 18 131c24 90 27 113 27 158h-19v-77h-55v120z" />
    <glyph glyph-name="eight.num" horiz-adv-x="150" 
d="M143 694v-74c0 -23 -14 -32 -22 -36c11 -4 23 -15 23 -38v-91c0 -38 -21 -57 -64 -57h-10c-43 0 -65 19 -65 57v91c0 23 12 34 23 38c-9 5 -21 13 -21 36v74c0 33 19 53 63 53h10c43 0 63 -20 63 -53zM81 615v76c0 7 -2 10 -6 10s-6 -3 -6 -10v-76c0 -7 2 -10 6 -10
s6 3 6 10zM81 457v95c0 7 -2 10 -6 10s-6 -3 -6 -10v-95c0 -7 2 -10 6 -10s6 3 6 10z" />
    <glyph glyph-name="nine.num" horiz-adv-x="157" 
d="M78 698c-4 0 -6 -3 -6 -10v-109c0 -7 2 -10 6 -10c5 0 7 3 7 10v109c0 7 -2 10 -7 10zM5 569v114c0 43 22 64 67 64h12c45 0 67 -21 67 -64v-221c0 -37 -17 -64 -68 -64h-9c-51 0 -65 23 -65 58v57h64v-57c0 -6 2 -9 6 -9s6 3 6 9v91c-7 -8 -19 -22 -39 -22h-2
c-27 0 -39 20 -39 44z" />
    <glyph glyph-name="zero.den" horiz-adv-x="160" 
d="M76 346h10c52 0 68 -33 68 -68v-213c0 -32 -17 -68 -68 -68h-10c-53 0 -70 36 -70 68v213c0 33 17 68 70 68zM87 63v218c0 7 -2 10 -7 10c-4 0 -6 -3 -6 -10v-218c0 -6 2 -9 6 -9c5 0 7 3 7 9z" />
    <glyph glyph-name="one.den" horiz-adv-x="98" 
d="M27 272h-24v50c19 0 29 7 30 21h57v-343h-63v272z" />
    <glyph glyph-name="two.den" horiz-adv-x="149" 
d="M144 0h-139v52c0 52 13 67 45 126c27 52 28 52 28 76v37c0 5 -2 8 -6 8s-6 -3 -6 -8v-65h-59v63c0 32 14 57 61 57h8c51 0 67 -22 67 -55v-31c0 -45 -11 -59 -44 -108c-34 -49 -36 -58 -36 -86v-18h25v72h56v-120z" />
    <glyph glyph-name="three.den" horiz-adv-x="148" 
d="M64 220h-58v76c0 29 17 50 60 50h8c43 0 65 -16 65 -49v-76c0 -19 -12 -28 -21 -31c11 -4 26 -13 26 -38v-98c0 -35 -20 -58 -68 -58h-9c-49 0 -62 23 -62 54v94h61v-90c0 -5 2 -8 6 -8c3 0 5 3 5 8v98c0 4 -2 6 -5 6h-29v49h28c3 0 5 2 5 6v80c0 5 -2 8 -6 8
s-6 -3 -6 -8v-73z" />
    <glyph glyph-name="four.den" horiz-adv-x="136" 
d="M4 55v47l43 242h69v-235h17v-54h-17v-55h-60v55h-52zM42 109h14v142z" />
    <glyph glyph-name="five.den" horiz-adv-x="149" 
d="M66 158h-58v185h129v-52h-72v-70c7 12 19 26 38 26h3c27 0 37 -19 37 -44v-146c0 -36 -19 -60 -66 -60h-10c-49 0 -62 23 -62 54v82h61v-81c0 -5 2 -8 6 -8s6 3 6 8v136c0 8 -2 9 -6 9s-6 -3 -6 -9v-30z" />
    <glyph glyph-name="six.den" horiz-adv-x="157" 
d="M72 288v-91c7 8 20 22 40 22h2c27 0 38 -19 38 -43v-114c0 -43 -24 -65 -67 -65h-12c-45 0 -67 22 -67 65v221c0 35 17 63 68 63h9c51 0 66 -24 66 -59v-57h-65v58c0 6 -2 9 -6 9s-6 -3 -6 -9zM72 165v-109c0 -7 2 -10 7 -10c4 0 6 3 6 10v109c0 7 -2 10 -6 10
c-5 0 -7 -3 -7 -10z" />
    <glyph glyph-name="seven.den" horiz-adv-x="136" 
d="M4 343h128v-32c0 -49 -10 -87 -18 -167c-7 -55 -7 -91 -7 -132v-12h-74v11c0 43 2 70 18 131c24 90 27 113 27 158h-19v-77h-55v120z" />
    <glyph glyph-name="eight.den" horiz-adv-x="150" 
d="M143 293v-74c0 -23 -14 -32 -22 -36c11 -4 23 -15 23 -38v-91c0 -38 -21 -57 -64 -57h-10c-43 0 -65 19 -65 57v91c0 23 12 34 23 38c-9 5 -21 13 -21 36v74c0 33 19 53 63 53h10c43 0 63 -20 63 -53zM81 214v76c0 7 -2 10 -6 10s-6 -3 -6 -10v-76c0 -7 2 -10 6 -10
s6 3 6 10zM81 56v95c0 7 -2 10 -6 10s-6 -3 -6 -10v-95c0 -7 2 -10 6 -10s6 3 6 10z" />
    <glyph glyph-name="nine.den" horiz-adv-x="157" 
d="M78 297c-4 0 -6 -3 -6 -10v-109c0 -7 2 -10 6 -10c5 0 7 3 7 10v109c0 7 -2 10 -7 10zM5 168v114c0 43 22 64 67 64h12c45 0 67 -21 67 -64v-221c0 -37 -17 -64 -68 -64h-9c-51 0 -65 23 -65 58v57h64v-57c0 -6 2 -9 6 -9s6 3 6 9v91c-7 -8 -19 -22 -39 -22h-2
c-27 0 -39 20 -39 44z" />
    <glyph glyph-name="zero.sub" horiz-adv-x="160" 
d="M76 219h10c52 0 68 -33 68 -68v-213c0 -32 -17 -68 -68 -68h-10c-53 0 -70 36 -70 68v213c0 33 17 68 70 68zM87 -64v218c0 7 -2 10 -7 10c-4 0 -6 -3 -6 -10v-218c0 -6 2 -9 6 -9c5 0 7 3 7 9z" />
    <glyph glyph-name="one.sub" horiz-adv-x="98" 
d="M27 145h-24v50c19 0 29 7 30 21h57v-343h-63v272z" />
    <glyph glyph-name="two.sub" horiz-adv-x="149" 
d="M144 -127h-139v52c0 52 13 67 45 126c27 52 28 52 28 76v37c0 5 -2 8 -6 8s-6 -3 -6 -8v-65h-59v63c0 32 14 57 61 57h8c51 0 67 -22 67 -55v-31c0 -45 -11 -59 -44 -108c-34 -49 -36 -58 -36 -86v-18h25v72h56v-120z" />
    <glyph glyph-name="three.sub" horiz-adv-x="148" 
d="M64 93h-58v76c0 29 17 50 60 50h8c43 0 65 -16 65 -49v-76c0 -19 -12 -28 -21 -31c11 -4 26 -13 26 -38v-98c0 -35 -20 -58 -68 -58h-9c-49 0 -62 23 -62 54v94h61v-90c0 -5 2 -8 6 -8c3 0 5 3 5 8v98c0 4 -2 6 -5 6h-29v49h28c3 0 5 2 5 6v80c0 5 -2 8 -6 8s-6 -3 -6 -8
v-73z" />
    <glyph glyph-name="four.sub" horiz-adv-x="136" 
d="M4 -72v47l43 242h69v-235h17v-54h-17v-55h-60v55h-52zM42 -18h14v142z" />
    <glyph glyph-name="five.sub" horiz-adv-x="149" 
d="M66 31h-58v185h129v-52h-72v-70c7 12 19 26 38 26h3c27 0 37 -19 37 -44v-146c0 -36 -19 -60 -66 -60h-10c-49 0 -62 23 -62 54v82h61v-81c0 -5 2 -8 6 -8s6 3 6 8v136c0 8 -2 9 -6 9s-6 -3 -6 -9v-30z" />
    <glyph glyph-name="six.sub" horiz-adv-x="157" 
d="M72 161v-91c7 8 20 22 40 22h2c27 0 38 -19 38 -43v-114c0 -43 -24 -65 -67 -65h-12c-45 0 -67 22 -67 65v221c0 35 17 63 68 63h9c51 0 66 -24 66 -59v-57h-65v58c0 6 -2 9 -6 9s-6 -3 -6 -9zM72 38v-109c0 -7 2 -10 7 -10c4 0 6 3 6 10v109c0 7 -2 10 -6 10
c-5 0 -7 -3 -7 -10z" />
    <glyph glyph-name="seven.sub" horiz-adv-x="136" 
d="M4 216h128v-32c0 -49 -10 -87 -18 -167c-7 -55 -7 -91 -7 -132v-12h-74v11c0 43 2 70 18 131c24 90 27 113 27 158h-19v-77h-55v120z" />
    <glyph glyph-name="eight.sub" horiz-adv-x="150" 
d="M143 166v-74c0 -23 -14 -32 -22 -36c11 -4 23 -15 23 -38v-91c0 -38 -21 -57 -64 -57h-10c-43 0 -65 19 -65 57v91c0 23 12 34 23 38c-9 5 -21 13 -21 36v74c0 33 19 53 63 53h10c43 0 63 -20 63 -53zM81 87v76c0 7 -2 10 -6 10s-6 -3 -6 -10v-76c0 -7 2 -10 6 -10
s6 3 6 10zM81 -71v95c0 7 -2 10 -6 10s-6 -3 -6 -10v-95c0 -7 2 -10 6 -10s6 3 6 10z" />
    <glyph glyph-name="nine.sub" horiz-adv-x="157" 
d="M78 170c-4 0 -6 -3 -6 -10v-109c0 -7 2 -10 6 -10c5 0 7 3 7 10v109c0 7 -2 10 -7 10zM5 41v114c0 43 22 64 67 64h12c45 0 67 -21 67 -64v-221c0 -37 -17 -64 -68 -64h-9c-51 0 -65 23 -65 58v57h64v-57c0 -6 2 -9 6 -9s6 3 6 9v91c-7 -8 -19 -22 -39 -22h-2
c-27 0 -39 20 -39 44z" />
    <glyph glyph-name="zero.sup" horiz-adv-x="160" 
d="M76 747h10c52 0 68 -33 68 -68v-213c0 -32 -17 -68 -68 -68h-10c-53 0 -70 36 -70 68v213c0 33 17 68 70 68zM87 464v218c0 7 -2 10 -7 10c-4 0 -6 -3 -6 -10v-218c0 -6 2 -9 6 -9c5 0 7 3 7 9z" />
    <glyph glyph-name="one.sup" horiz-adv-x="98" 
d="M27 673h-24v50c19 0 29 7 30 21h57v-343h-63v272z" />
    <glyph glyph-name="two.sup" horiz-adv-x="149" 
d="M144 401h-139v52c0 52 13 67 45 126c27 52 28 52 28 76v37c0 5 -2 8 -6 8s-6 -3 -6 -8v-65h-59v63c0 32 14 57 61 57h8c51 0 67 -22 67 -55v-31c0 -45 -11 -59 -44 -108c-34 -49 -36 -58 -36 -86v-18h25v72h56v-120z" />
    <glyph glyph-name="three.sup" horiz-adv-x="148" 
d="M64 621h-58v76c0 29 17 50 60 50h8c43 0 65 -16 65 -49v-76c0 -19 -12 -28 -21 -31c11 -4 26 -13 26 -38v-98c0 -35 -20 -58 -68 -58h-9c-49 0 -62 23 -62 54v94h61v-90c0 -5 2 -8 6 -8c3 0 5 3 5 8v98c0 4 -2 6 -5 6h-29v49h28c3 0 5 2 5 6v80c0 5 -2 8 -6 8
s-6 -3 -6 -8v-73z" />
    <glyph glyph-name="four.sup" horiz-adv-x="136" 
d="M4 456v47l43 242h69v-235h17v-54h-17v-55h-60v55h-52zM42 510h14v142z" />
    <glyph glyph-name="five.sup" horiz-adv-x="149" 
d="M66 559h-58v185h129v-52h-72v-70c7 12 19 26 38 26h3c27 0 37 -19 37 -44v-146c0 -36 -19 -60 -66 -60h-10c-49 0 -62 23 -62 54v82h61v-81c0 -5 2 -8 6 -8s6 3 6 8v136c0 8 -2 9 -6 9s-6 -3 -6 -9v-30z" />
    <glyph glyph-name="six.sup" horiz-adv-x="157" 
d="M72 689v-91c7 8 20 22 40 22h2c27 0 38 -19 38 -43v-114c0 -43 -24 -65 -67 -65h-12c-45 0 -67 22 -67 65v221c0 35 17 63 68 63h9c51 0 66 -24 66 -59v-57h-65v58c0 6 -2 9 -6 9s-6 -3 -6 -9zM72 566v-109c0 -7 2 -10 7 -10c4 0 6 3 6 10v109c0 7 -2 10 -6 10
c-5 0 -7 -3 -7 -10z" />
    <glyph glyph-name="seven.sup" horiz-adv-x="135" 
d="M4 744h128v-32c0 -49 -10 -87 -18 -167c-7 -55 -7 -91 -7 -132v-12h-74v11c0 43 2 70 18 131c24 90 27 113 27 158h-19v-77h-55v120z" />
    <glyph glyph-name="eight.sup" horiz-adv-x="150" 
d="M143 694v-74c0 -23 -14 -32 -22 -36c11 -4 23 -15 23 -38v-91c0 -38 -21 -57 -64 -57h-10c-43 0 -65 19 -65 57v91c0 23 12 34 23 38c-9 5 -21 13 -21 36v74c0 33 19 53 63 53h10c43 0 63 -20 63 -53zM81 615v76c0 7 -2 10 -6 10s-6 -3 -6 -10v-76c0 -7 2 -10 6 -10
s6 3 6 10zM81 457v95c0 7 -2 10 -6 10s-6 -3 -6 -10v-95c0 -7 2 -10 6 -10s6 3 6 10z" />
    <glyph glyph-name="nine.sup" horiz-adv-x="157" 
d="M78 698c-4 0 -6 -3 -6 -10v-109c0 -7 2 -10 6 -10c5 0 7 3 7 10v109c0 7 -2 10 -7 10zM5 569v114c0 43 22 64 67 64h12c45 0 67 -21 67 -64v-221c0 -37 -17 -64 -68 -64h-9c-51 0 -65 23 -65 58v57h64v-57c0 -6 2 -9 6 -9s6 3 6 9v91c-7 -8 -19 -22 -39 -22h-2
c-27 0 -39 20 -39 44z" />
    <glyph glyph-name="IJ.alt" horiz-adv-x="265" 
d="M106 744v-744h-98v744h98zM117 0v91h26c12 0 14 5 14 16v637h100v-671c0 -45 -23 -73 -66 -73h-74z" />
    <glyph glyph-name="a.alt2" horiz-adv-x="222" 
d="M111 65c7 0 10 4 10 13v381c0 9 -3 14 -10 14c-6 0 -9 -4 -9 -13v-382c0 -9 3 -13 9 -13zM121 538h94v-538h-94v35c-13 -20 -32 -40 -57 -40h-3c-32 0 -54 32 -54 72v408c0 39 20 66 51 66h3c29 0 45 -16 60 -36v33z" />
    <glyph glyph-name="Eacute.alt" horiz-adv-x="178" 
d="M52 755l30 81h81l-33 -81h-78zM8 744h162v-89h-66v-218h64v-91h-64v-256h68v-90h-164v744z" />
    <glyph glyph-name="Ebreve.alt" horiz-adv-x="178" 
d="M92 753h-3c-49 0 -73 30 -73 69v9h62v-8c0 -11 4 -16 12 -16c9 0 13 5 13 16v8h61v-9c0 -39 -25 -69 -72 -69zM8 744h162v-89h-66v-218h64v-91h-64v-256h68v-90h-164v744z" />
    <glyph glyph-name="Ecaron.alt" horiz-adv-x="178" 
d="M50 755l-39 81h67l13 -34l13 34h67l-39 -81h-82zM8 744h162v-89h-66v-218h64v-91h-64v-256h68v-90h-164v744z" />
    <glyph glyph-name="Ecircumflex.alt" horiz-adv-x="178" 
d="M130 836l40 -81h-68l-13 33l-13 -33h-67l39 81h82zM8 744h162v-89h-66v-218h64v-91h-64v-256h68v-90h-164v744z" />
    <glyph glyph-name="Edieresis.alt" horiz-adv-x="178" 
d="M83 833v-78h-70v78h70zM166 833v-78h-71v78h71zM8 744h162v-89h-66v-218h64v-91h-64v-256h68v-90h-164v744z" />
    <glyph glyph-name="Edotaccent.alt" horiz-adv-x="178" 
d="M138 844v-89h-95v89h95zM8 744h162v-89h-66v-218h64v-91h-64v-256h68v-90h-164v744z" />
    <glyph glyph-name="Egrave.alt" horiz-adv-x="178" 
d="M102 836l29 -81h-78l-32 81h81zM8 744h162v-89h-66v-218h64v-91h-64v-256h68v-90h-164v744z" />
    <glyph glyph-name="Emacron.alt" horiz-adv-x="178" 
d="M25 758v63h131v-63h-131zM8 744h162v-89h-66v-218h64v-91h-64v-256h68v-90h-164v744z" />
    <glyph glyph-name="Eogonek.alt" horiz-adv-x="178" 
d="M58 -105v4c0 37 25 74 52 101h38c-12 -20 -21 -53 -21 -76v-2c0 -19 7 -24 19 -24h4v-57h-27c-32 0 -65 14 -65 54zM8 744h162v-89h-66v-218h64v-91h-64v-256h68v-90h-164v744z" />
    <glyph glyph-name="Jcircumflex.alt" horiz-adv-x="153" 
d="M135 836l40 -81h-68l-13 33l-13 -33h-67l39 81h82zM5 0v91h26c12 0 14 5 14 16v637h100v-671c0 -45 -23 -73 -66 -73h-74z" />
    <glyph glyph-name="aacute.alt" horiz-adv-x="211" 
d="M67 551l27 98h77l-29 -98h-75zM112 75v207c-13 -9 -16 -14 -16 -29v-179c0 -7 3 -11 8 -11c7 0 8 5 8 12zM113 37c-9 -19 -29 -41 -58 -41h-2c-32 0 -47 29 -47 57v196c0 35 11 51 38 66c16 8 49 22 61 27c5 2 7 6 7 12v116c0 7 -3 11 -8 11h-1c-5 0 -8 -4 -8 -11v-125
h-87v127c0 52 37 72 90 72h10c60 0 96 -17 96 -72v-400c0 -49 2 -60 5 -69v-3h-91c-3 4 -5 14 -5 37z" />
    <glyph glyph-name="aacute.alt2" horiz-adv-x="222" 
d="M73 549l28 100h77l-29 -100h-76zM111 65c7 0 10 4 10 13v381c0 9 -3 14 -10 14c-6 0 -9 -4 -9 -13v-382c0 -9 3 -13 9 -13zM121 538h94v-538h-94v35c-13 -20 -32 -40 -57 -40h-3c-32 0 -54 32 -54 72v408c0 39 20 66 51 66h3c29 0 45 -16 60 -36v33z" />
    <glyph glyph-name="abreve.alt" horiz-adv-x="211" 
d="M112 75v207c-13 -9 -16 -14 -16 -29v-179c0 -7 3 -11 8 -11c7 0 8 5 8 12zM113 37c-9 -19 -29 -41 -58 -41h-2c-32 0 -47 29 -47 57v196c0 35 11 51 38 66c16 8 49 22 61 27c5 2 7 6 7 12v116c0 7 -3 11 -8 11h-1c-5 0 -8 -4 -8 -11v-125h-87v127c0 52 37 72 90 72h10
c60 0 96 -17 96 -72v-400c0 -49 2 -60 5 -69v-3h-91c-3 4 -5 14 -5 37zM104 550h-2c-51 0 -74 28 -74 72v11h62v-8c0 -13 4 -20 12 -20c9 0 13 7 13 20v8h61v-11c0 -44 -25 -72 -72 -72z" />
    <glyph glyph-name="abreve.alt2" horiz-adv-x="222" 
d="M111 65c7 0 10 4 10 13v381c0 9 -3 14 -10 14c-6 0 -9 -4 -9 -13v-382c0 -9 3 -13 9 -13zM121 538h94v-538h-94v35c-13 -20 -32 -40 -57 -40h-3c-32 0 -54 32 -54 72v408c0 39 20 66 51 66h3c29 0 45 -16 60 -36v33zM109 547h-2c-51 0 -74 28 -74 72v11h62v-8
c0 -13 4 -20 12 -20c9 0 13 7 13 20v8h61v-11c0 -44 -25 -72 -72 -72z" />
    <glyph glyph-name="acircumflex.alt" horiz-adv-x="211" 
d="M144 649l36 -98h-64l-12 47l-11 -47h-65l37 98h79zM112 75v207c-13 -9 -16 -14 -16 -29v-179c0 -7 3 -11 8 -11c7 0 8 5 8 12zM113 37c-9 -19 -29 -41 -58 -41h-2c-32 0 -47 29 -47 57v196c0 35 11 51 38 66c16 8 49 22 61 27c5 2 7 6 7 12v116c0 7 -3 11 -8 11h-1
c-5 0 -8 -4 -8 -11v-125h-87v127c0 52 37 72 90 72h10c60 0 96 -17 96 -72v-400c0 -49 2 -60 5 -69v-3h-91c-3 4 -5 14 -5 37z" />
    <glyph glyph-name="acircumflex.alt2" horiz-adv-x="222" 
d="M149 649l36 -100h-64l-12 49l-11 -49h-65l37 100h79zM111 65c7 0 10 4 10 13v381c0 9 -3 14 -10 14c-6 0 -9 -4 -9 -13v-382c0 -9 3 -13 9 -13zM121 538h94v-538h-94v35c-13 -20 -32 -40 -57 -40h-3c-32 0 -54 32 -54 72v408c0 39 20 66 51 66h3c29 0 45 -16 60 -36v33z
" />
    <glyph glyph-name="adieresis.alt" horiz-adv-x="211" 
d="M179 631v-80h-69v80h69zM98 631v-80h-70v80h70zM112 75v207c-13 -9 -16 -14 -16 -29v-179c0 -7 3 -11 8 -11c7 0 8 5 8 12zM113 37c-9 -19 -29 -41 -58 -41h-2c-32 0 -47 29 -47 57v196c0 35 11 51 38 66c16 8 49 22 61 27c5 2 7 6 7 12v116c0 7 -3 11 -8 11h-1
c-5 0 -8 -4 -8 -11v-125h-87v127c0 52 37 72 90 72h10c60 0 96 -17 96 -72v-400c0 -49 2 -60 5 -69v-3h-91c-3 4 -5 14 -5 37z" />
    <glyph glyph-name="adieresis.alt2" horiz-adv-x="222" 
d="M187 629v-80h-70v80h70zM105 629v-80h-69v80h69zM111 65c7 0 10 4 10 13v381c0 9 -3 14 -10 14c-6 0 -9 -4 -9 -13v-382c0 -9 3 -13 9 -13zM121 538h94v-538h-94v35c-13 -20 -32 -40 -57 -40h-3c-32 0 -54 32 -54 72v408c0 39 20 66 51 66h3c29 0 45 -16 60 -36v33z" />
    <glyph glyph-name="agrave.alt" horiz-adv-x="211" 
d="M115 649l26 -98h-75l-29 98h78zM112 75v207c-13 -9 -16 -14 -16 -29v-179c0 -7 3 -11 8 -11c7 0 8 5 8 12zM113 37c-9 -19 -29 -41 -58 -41h-2c-32 0 -47 29 -47 57v196c0 35 11 51 38 66c16 8 49 22 61 27c5 2 7 6 7 12v116c0 7 -3 11 -8 11h-1c-5 0 -8 -4 -8 -11v-125
h-87v127c0 52 37 72 90 72h10c60 0 96 -17 96 -72v-400c0 -49 2 -60 5 -69v-3h-91c-3 4 -5 14 -5 37z" />
    <glyph glyph-name="agrave.alt2" horiz-adv-x="222" 
d="M111 65c7 0 10 4 10 13v381c0 9 -3 14 -10 14c-6 0 -9 -4 -9 -13v-382c0 -9 3 -13 9 -13zM121 538h94v-538h-94v35c-13 -20 -32 -40 -57 -40h-3c-32 0 -54 32 -54 72v408c0 39 20 66 51 66h3c29 0 45 -16 60 -36v33zM119 649l27 -100h-75l-30 100h78z" />
    <glyph glyph-name="amacron.alt" horiz-adv-x="211" 
d="M112 75v207c-13 -9 -16 -14 -16 -29v-179c0 -7 3 -11 8 -11c7 0 8 5 8 12zM113 37c-9 -19 -29 -41 -58 -41h-2c-32 0 -47 29 -47 57v196c0 35 11 51 38 66c16 8 49 22 61 27c5 2 7 6 7 12v116c0 7 -3 11 -8 11h-1c-5 0 -8 -4 -8 -11v-125h-87v127c0 52 37 72 90 72h10
c60 0 96 -17 96 -72v-400c0 -49 2 -60 5 -69v-3h-91c-3 4 -5 14 -5 37zM40 556v64h131v-64h-131z" />
    <glyph glyph-name="amacron.alt2" horiz-adv-x="222" 
d="M44 554v64h131v-64h-131zM111 65c7 0 10 4 10 13v381c0 9 -3 14 -10 14c-6 0 -9 -4 -9 -13v-382c0 -9 3 -13 9 -13zM121 538h94v-538h-94v35c-13 -20 -32 -40 -57 -40h-3c-32 0 -54 32 -54 72v408c0 39 20 66 51 66h3c29 0 45 -16 60 -36v33z" />
    <glyph glyph-name="aogonek.alt" horiz-adv-x="211" 
d="M112 75v207c-13 -9 -16 -14 -16 -29v-179c0 -7 3 -11 8 -11c7 0 8 5 8 12zM113 37c-9 -19 -29 -41 -58 -41h-2c-32 0 -47 29 -47 57v196c0 35 11 51 38 66c16 8 49 22 61 27c5 2 7 6 7 12v116c0 7 -3 11 -8 11h-1c-5 0 -8 -4 -8 -11v-125h-87v127c0 52 37 72 90 72h10
c60 0 96 -17 96 -72v-400c0 -49 2 -60 5 -69v-3h-91c-3 4 -5 14 -5 37zM119 -105v4c0 37 24 74 51 101h39c-13 -20 -21 -53 -21 -76v-2c0 -19 6 -24 17 -24h4v-57h-26c-32 0 -64 14 -64 54z" />
    <glyph glyph-name="aogonek.alt2" horiz-adv-x="222" 
d="M125 -105v4c0 37 24 74 51 101h39c-13 -20 -21 -53 -21 -76v-2c0 -19 6 -24 17 -24h4v-57h-26c-32 0 -64 14 -64 54zM111 65c7 0 10 4 10 13v381c0 9 -3 14 -10 14c-6 0 -9 -4 -9 -13v-382c0 -9 3 -13 9 -13zM121 538h94v-538h-94v35c-13 -20 -32 -40 -57 -40h-3
c-32 0 -54 32 -54 72v408c0 39 20 66 51 66h3c29 0 45 -16 60 -36v33z" />
    <glyph glyph-name="aring.alt" horiz-adv-x="211" 
d="M158 603c0 -31 -24 -52 -55 -52s-54 21 -54 52s23 52 54 52s55 -21 55 -52zM82 603c0 -13 9 -22 21 -22s21 9 21 22s-9 21 -21 21s-21 -8 -21 -21zM112 75v207c-13 -9 -16 -14 -16 -29v-179c0 -7 3 -11 8 -11c7 0 8 5 8 12zM113 37c-9 -19 -29 -41 -58 -41h-2
c-32 0 -47 29 -47 57v196c0 35 11 51 38 66c16 8 49 22 61 27c5 2 7 6 7 12v116c0 7 -3 11 -8 11h-1c-5 0 -8 -4 -8 -11v-125h-87v127c0 52 37 72 90 72h10c60 0 96 -17 96 -72v-400c0 -49 2 -60 5 -69v-3h-91c-3 4 -5 14 -5 37z" />
    <glyph glyph-name="aring.alt2" horiz-adv-x="222" 
d="M160 600c0 -31 -24 -52 -55 -52s-54 21 -54 52s23 52 54 52s55 -21 55 -52zM84 600c0 -13 9 -22 21 -22s21 9 21 22s-9 21 -21 21s-21 -8 -21 -21zM111 65c7 0 10 4 10 13v381c0 9 -3 14 -10 14c-6 0 -9 -4 -9 -13v-382c0 -9 3 -13 9 -13zM121 538h94v-538h-94v35
c-13 -20 -32 -40 -57 -40h-3c-32 0 -54 32 -54 72v408c0 39 20 66 51 66h3c29 0 45 -16 60 -36v33z" />
    <glyph glyph-name="aringacute.alt" horiz-adv-x="211" 
d="M67 661l28 100h77l-29 -100h-76zM158 603c0 -31 -24 -52 -55 -52s-54 21 -54 52s23 52 54 52s55 -21 55 -52zM82 603c0 -13 9 -22 21 -22s21 9 21 22s-9 21 -21 21s-21 -8 -21 -21zM112 75v207c-13 -9 -16 -14 -16 -29v-179c0 -7 3 -11 8 -11c7 0 8 5 8 12zM113 37
c-9 -19 -29 -41 -58 -41h-2c-32 0 -47 29 -47 57v196c0 35 11 51 38 66c16 8 49 22 61 27c5 2 7 6 7 12v116c0 7 -3 11 -8 11h-1c-5 0 -8 -4 -8 -11v-125h-87v127c0 52 37 72 90 72h10c60 0 96 -17 96 -72v-400c0 -49 2 -60 5 -69v-3h-91c-3 4 -5 14 -5 37z" />
    <glyph glyph-name="aringacute.alt2" horiz-adv-x="222" 
d="M68 659l28 100h77l-29 -100h-76zM159 600c0 -31 -24 -52 -55 -52s-54 21 -54 52s23 52 54 52s55 -21 55 -52zM83 600c0 -13 9 -22 21 -22s21 9 21 22s-9 21 -21 21s-21 -8 -21 -21zM111 65c7 0 10 4 10 13v381c0 9 -3 14 -10 14c-6 0 -9 -4 -9 -13v-382c0 -9 3 -13 9 -13
zM121 538h94v-538h-94v35c-13 -20 -32 -40 -57 -40h-3c-32 0 -54 32 -54 72v408c0 39 20 66 51 66h3c29 0 45 -16 60 -36v33z" />
    <glyph glyph-name="atilde.alt" horiz-adv-x="211" 
d="M112 75v207c-13 -9 -16 -14 -16 -29v-179c0 -7 3 -11 8 -11c7 0 8 5 8 12zM113 37c-9 -19 -29 -41 -58 -41h-2c-32 0 -47 29 -47 57v196c0 35 11 51 38 66c16 8 49 22 61 27c5 2 7 6 7 12v116c0 7 -3 11 -8 11h-1c-5 0 -8 -4 -8 -11v-125h-87v127c0 52 37 72 90 72h10
c60 0 96 -17 96 -72v-400c0 -49 2 -60 5 -69v-3h-91c-3 4 -5 14 -5 37zM126 638h52v-43c0 -24 -11 -42 -36 -42h-1c-13 0 -22 5 -37 13c-11 7 -14 9 -18 9c-2 0 -3 -2 -3 -7v-17h-52v43c0 25 11 43 36 43h1c13 0 24 -5 37 -13c9 -5 15 -8 18 -8c2 0 3 2 3 6v16z" />
    <glyph glyph-name="atilde.alt2" horiz-adv-x="222" 
d="M111 65c7 0 10 4 10 13v381c0 9 -3 14 -10 14c-6 0 -9 -4 -9 -13v-382c0 -9 3 -13 9 -13zM121 538h94v-538h-94v35c-13 -20 -32 -40 -57 -40h-3c-32 0 -54 32 -54 72v408c0 39 20 66 51 66h3c29 0 45 -16 60 -36v33zM133 635h52v-43c0 -24 -11 -42 -36 -42h-1
c-13 0 -22 5 -37 13c-11 7 -14 9 -18 9c-2 0 -3 -2 -3 -7v-17h-52v43c0 25 11 43 36 43h1c13 0 24 -5 37 -13c9 -5 15 -8 18 -8c2 0 3 2 3 6v16z" />
    <glyph glyph-name="racute.alt" horiz-adv-x="171" 
d="M54 549l28 100h77l-29 -100h-76zM101 538v-47c10 33 25 50 46 50h3c7 0 15 -3 16 -3v-108c-5 1 -13 4 -29 4h-4c-24 0 -32 -8 -32 -23v-411h-94v538h94z" />
    <glyph glyph-name="rcaron.alt" horiz-adv-x="171" 
d="M51 549l-37 100h65l11 -50l12 50h64l-36 -100h-79zM101 538v-47c10 33 25 50 46 50h3c7 0 15 -3 16 -3v-108c-5 1 -13 4 -29 4h-4c-24 0 -32 -8 -32 -23v-411h-94v538h94z" />
    <glyph glyph-name="rcommaaccent.alt" horiz-adv-x="171" 
d="M78 -139h-41c7 16 10 36 10 51h-30v77h76v-58c0 -28 -8 -55 -15 -70zM101 538v-47c10 33 25 50 46 50h3c7 0 15 -3 16 -3v-108c-5 1 -13 4 -29 4h-4c-24 0 -32 -8 -32 -23v-411h-94v538h94z" />
    <glyph glyph-name="space_uni0326.alt" horiz-adv-x="171" 
d="M62 677h41c-5 -16 -10 -36 -10 -51h31v-77h-76v58c0 28 7 55 14 70z" />
    <glyph glyph-name="ordfeminine.alt" horiz-adv-x="135" 
d="M73 457c-7 -11 -18 -24 -35 -24h-2c-20 0 -30 15 -30 34v106c0 23 6 31 25 40l36 15c4 1 6 4 6 8v65c0 5 -2 7 -7 7c-3 0 -5 -2 -5 -7v-70h-52v73c0 31 21 43 54 43h7c39 0 58 -12 58 -43v-236c0 -19 0 -26 3 -30v-3h-55c-2 3 -3 10 -3 22zM61 575v-94c0 -5 2 -7 6 -7
s6 2 6 7v111c-9 -4 -12 -6 -12 -17z" />
    <glyph glyph-name="ordfeminine.alt2" horiz-adv-x="141" 
d="M71 474c4 0 6 3 6 9v212c0 6 -2 9 -6 9s-6 -3 -6 -9v-212c0 -6 2 -9 6 -9zM77 435v22c-7 -13 -19 -24 -36 -24c-21 0 -34 18 -34 41v233c0 23 12 38 31 38h2c19 0 28 -10 37 -22v21h57v-309h-57z" />
    <glyph glyph-name="emdash.alt" horiz-adv-x="641" 
d="M7 332h627v-63h-627v63z" />
    <glyph glyph-name="caron.alt" horiz-adv-x="171" 
d="M50 642l3 102h66l-7 -102h-62z" />
    <glyph glyph-name="plus.uc" horiz-adv-x="183" 
d="M176 313h-53v-60h-63v60h-53v58h53v60h63v-60h53v-58z" />
    <glyph glyph-name="minus.uc" horiz-adv-x="177" 
d="M7 371h163v-58h-163v58z" />
    <glyph glyph-name="multiply.uc" horiz-adv-x="169" 
d="M126 261l-41 42l-42 -42l-39 40l41 42l-41 41l39 41l42 -42l41 42l40 -41l-41 -41l41 -42z" />
    <glyph glyph-name="divide.uc" horiz-adv-x="183" 
d="M123 443v-62h-63v62h63zM7 371h169v-58h-169v58zM123 303v-62h-63v62h63z" />
    <glyph glyph-name="equal.uc" horiz-adv-x="180" 
d="M8 400h164v-52h-164v52zM8 337h164v-53h-164v53z" />
    <glyph glyph-name="less.uc" horiz-adv-x="158" 
d="M151 256l-144 57v58l144 57v-64l-75 -23l75 -22v-63z" />
    <glyph glyph-name="greater.uc" horiz-adv-x="159" 
d="M7 256v63l76 22l-76 23v64l145 -57v-58z" />
    <glyph glyph-name="questiondown.uc" horiz-adv-x="214" 
d="M78 623h72v-152c0 -41 -5 -57 -18 -91l-24 -59c-8 -20 -9 -33 -9 -62v-174c0 -9 1 -14 9 -14s9 5 9 14v208h88v-207c0 -51 -21 -90 -90 -90h-17c-68 0 -93 34 -93 89v162c0 46 5 66 23 105l31 62c16 32 19 46 19 78v131zM72 636v108h84v-108h-84z" />
    <glyph glyph-name="exclamdown.uc" horiz-adv-x="110" 
d="M105 0h-99c0 63 19 469 23 623h52c4 -154 24 -558 24 -623zM97 744v-108h-84v108h84z" />
    <glyph glyph-name="hyphen.uc" horiz-adv-x="114" 
d="M7 387h100v-90h-100v90z" />
    <glyph glyph-name="endash.uc" horiz-adv-x="218" 
d="M7 374h204v-63h-204v63z" />
    <glyph glyph-name="emdash.uc" horiz-adv-x="328" 
d="M7 374h314v-63h-314v63z" />
    <glyph glyph-name="guilsinglleft.uc" horiz-adv-x="108" 
d="M77 297l26 -139h-70l-27 122v35l27 118h71z" />
    <glyph glyph-name="guilsinglright.uc" horiz-adv-x="108" 
d="M32 297l-27 136h71l27 -118v-35l-27 -122h-70z" />
    <glyph glyph-name="guillemotleft.uc" horiz-adv-x="185" 
d="M155 297l23 -139h-66l-28 139l29 136h67zM73 297l28 -139h-67l-28 122v35l28 118h68z" />
    <glyph glyph-name="guillemotright.uc" horiz-adv-x="184" 
d="M6 158l24 138l-25 137h67l28 -137l-27 -138h-67zM83 158l29 138l-29 137h67l29 -118v-36l-29 -121h-67z" />
    <glyph glyph-name="parenleft.uc" horiz-adv-x="121" 
d="M8 367v5c0 205 37 350 58 429h54c-13 -77 -33 -250 -33 -431c0 -184 20 -356 33 -436h-54c-22 78 -58 226 -58 433z" />
    <glyph glyph-name="parenright.uc" horiz-adv-x="121" 
d="M112 372v-5c0 -207 -35 -355 -57 -433h-54c13 80 32 252 32 436c0 181 -19 354 -32 431h54c21 -79 57 -224 57 -429z" />
    <glyph glyph-name="bracketleft.uc" horiz-adv-x="113" 
d="M8 -66v868h101v-64h-27v-740h27v-64h-101z" />
    <glyph glyph-name="bracketright.uc" horiz-adv-x="114" 
d="M4 -66v64h27v740h-27v64h101v-868h-101z" />
    <glyph glyph-name="braceleft.uc" horiz-adv-x="121" 
d="M117 -66h-40c-39 0 -62 16 -62 55c0 24 15 296 15 327c0 14 -6 21 -17 21h-8v62h10c13 0 15 8 15 20c0 35 -15 292 -15 324c0 39 21 59 62 59h40v-63h-14c-11 0 -17 -6 -17 -17c0 -17 15 -282 15 -303c0 -28 -9 -44 -36 -51c27 -8 36 -23 36 -48c0 -23 -15 -287 -15 -308
c0 -11 6 -16 17 -16h14v-62z" />
    <glyph glyph-name="braceright.uc" horiz-adv-x="121" 
d="M44 -66h-40v62h14c11 0 17 5 17 16c0 21 -14 285 -14 308c0 25 9 40 36 48c-27 7 -36 23 -36 51c0 21 14 284 14 303c0 11 -6 17 -17 18h-14v62h40c41 0 62 -20 62 -59c0 -32 -15 -289 -15 -324c0 -12 3 -20 16 -20h10v-62h-8c-15 0 -18 -6 -18 -21
c0 -30 15 -305 15 -327c0 -39 -23 -55 -62 -55z" />
    <glyph glyph-name="slash.uc" horiz-adv-x="132" 
d="M131 801l-69 -867h-62l68 867h63z" />
    <glyph glyph-name="backslash.uc" horiz-adv-x="132" 
d="M70 -66l-69 867h63l68 -867h-62z" />
    <glyph glyph-name="bar.uc" horiz-adv-x="114" 
d="M88 801v-867h-62v867h62z" />
    <glyph glyph-name="at.uc" horiz-adv-x="356" 
d="M177 -30c-75 0 -169 37 -169 200v385c0 125 68 202 173 202h1c97 0 166 -53 166 -174v-344c0 -122 -43 -147 -90 -147h-8c-32 0 -52 15 -60 38c-16 -25 -34 -38 -55 -38h-1c-33 0 -57 28 -54 71l6 400c1 39 21 59 48 59h2c27 0 44 -17 55 -34l1 32h87l-10 -467
c0 -9 2 -14 7 -14c15 0 20 44 20 100v342c0 104 -51 132 -114 132h-1c-69 0 -120 -47 -120 -159v-384c0 -130 67 -155 116 -155c59 0 89 42 105 71l32 -28c-16 -33 -55 -88 -137 -88zM183 164l6 386c0 8 -3 12 -8 12s-7 -4 -7 -12l-6 -386c0 -8 2 -12 7 -12s8 4 8 12z" />
    <glyph glyph-name="grave.uc" horiz-adv-x="171" 
d="M111 836l29 -81h-78l-32 81h81z" />
    <glyph glyph-name="dieresis.uc" horiz-adv-x="171" 
d="M79 833v-78h-70v78h70zM162 833v-78h-71v78h71z" />
    <glyph glyph-name="macron.uc" horiz-adv-x="171" 
d="M20 758v63h131v-63h-131z" />
    <glyph glyph-name="acute.uc" horiz-adv-x="171" 
d="M31 755l30 81h81l-33 -81h-78z" />
    <glyph glyph-name="circumflex.uc" horiz-adv-x="171" 
d="M126 836l40 -81h-68l-13 33l-13 -33h-67l39 81h82z" />
    <glyph glyph-name="caron.uc" horiz-adv-x="171" 
d="M44 755l-39 81h67l13 -34l13 34h67l-39 -81h-82z" />
    <glyph glyph-name="breve.uc" horiz-adv-x="171" 
d="M87 753h-3c-49 0 -73 30 -73 69v9h62v-8c0 -11 4 -16 12 -16c9 0 13 5 13 16v8h61v-9c0 -39 -25 -69 -72 -69z" />
    <glyph glyph-name="dotaccent.uc" horiz-adv-x="171" 
d="M133 844v-89h-95v89h95z" />
    <glyph glyph-name="ring.uc" horiz-adv-x="171" 
d="M31 805c0 31 23 52 54 52s55 -21 55 -52s-24 -52 -55 -52s-54 21 -54 52zM85 826c-12 0 -21 -8 -21 -21s9 -22 21 -22s21 9 21 22s-9 21 -21 21z" />
    <glyph glyph-name="tilde.uc" horiz-adv-x="171" 
d="M85 821c12 -4 16 -7 20 -7c3 0 4 2 4 6v14h52v-35c0 -27 -11 -43 -34 -43h-2c-13 0 -24 4 -40 11c-10 5 -16 7 -19 7s-5 -2 -5 -6v-14h-51v37c0 27 12 42 36 42h1c12 0 22 -5 38 -12z" />
    <glyph glyph-name="hungarumlaut.uc" horiz-adv-x="171" 
d="M80 755l23 81h67l-24 -81h-66zM2 755l22 81h67l-23 -81h-66z" />
    <glyph glyph-name="emdash.altuc" horiz-adv-x="641" 
d="M7 374h627v-63h-627v63z" />
    <glyph glyph-name="f.short" horiz-adv-x="160" 
d="M155 744v-77h-18c-6 0 -9 -3 -9 -10v-119h27v-79h-27v-459h-95v459h-29v79h29v155c0 35 23 51 50 51h72z" />
    <glyph glyph-name="f_f.short" horiz-adv-x="290" 
d="M128 0h-95v459h-29v79h29v155c0 35 23 51 50 51h71v-77h-17c-6 0 -9 -3 -9 -10v-119h35v155c0 35 23 51 50 51h72v-77h-19c-5 0 -8 -3 -8 -10v-119h27v-79h-27v-459h-95v459h-35v-459z" />
    <glyph glyph-name="j.short" horiz-adv-x="109" 
d="M102 649v-100h-95v100h95zM-10 -76h9c5 0 8 3 8 9v605h95v-651c0 -31 -19 -46 -42 -46h-70v83z" />
    <glyph glyph-name="brokenbar" unicode="&#xa6;" horiz-adv-x="114" 
d="M88 793v-431h-62v431h62zM88 348v-441h-62v441h62z" />
    <glyph glyph-name="onequarter" unicode="&#xbc;" horiz-adv-x="248" 
d="M27 673h-24v50c19 0 29 7 30 21h57v-343h-63v272zM173 744h55l-161 -744h-55zM116 55v47l43 242h69v-235h17v-54h-17v-55h-60v55h-52zM154 109h14v142z" />
    <glyph glyph-name="onehalf" unicode="&#xbd;" horiz-adv-x="282" 
d="M173 744h55l-161 -744h-55zM27 673h-24v50c19 0 29 7 30 21h57v-343h-63v272zM276 0h-139v52c0 52 13 67 45 126c27 52 28 52 28 76v37c0 5 -2 8 -6 8s-6 -3 -6 -8v-65h-59v63c0 32 14 57 61 57h8c51 0 67 -22 67 -55v-31c0 -45 -11 -59 -44 -108
c-34 -49 -36 -58 -36 -86v-18h25v72h56v-120z" />
    <glyph glyph-name="threequarters" unicode="&#xbe;" horiz-adv-x="292" 
d="M217 744h55l-161 -744h-55zM64 621h-58v76c0 29 17 50 60 50h8c43 0 65 -16 65 -49v-76c0 -19 -12 -28 -21 -31c11 -4 26 -13 26 -38v-98c0 -35 -20 -58 -68 -58h-9c-49 0 -62 23 -62 54v94h61v-90c0 -5 2 -8 6 -8c3 0 5 3 5 8v98c0 4 -2 6 -5 6h-29v49h28c3 0 5 2 5 6
v80c0 5 -2 8 -6 8s-6 -3 -6 -8v-73zM160 55v47l43 242h69v-235h17v-54h-17v-55h-60v55h-52zM198 109h14v142z" />
    <glyph glyph-name="Eth" unicode="&#xd0;" horiz-adv-x="234" 
d="M12 0v338h-11v84h11v322h139c43 0 75 -23 75 -83v-574c0 -59 -30 -87 -73 -87h-141zM108 664v-242h14v-84h-14v-256h9c8 0 12 6 12 19v545c0 12 -4 18 -12 18h-9z" />
    <glyph glyph-name="multiply" unicode="&#xd7;" horiz-adv-x="169" 
d="M126 222l-41 42l-42 -42l-39 40l41 42l-41 41l39 41l42 -42l41 42l40 -41l-41 -41l41 -42z" />
    <glyph glyph-name="Yacute" unicode="&#xdd;" horiz-adv-x="215" 
d="M61 0v302l-62 442h96l17 -279l17 279h87l-58 -442v-302h-97zM73 755l30 81h81l-33 -81h-78z" />
    <glyph glyph-name="Thorn" unicode="&#xde;" horiz-adv-x="228" 
d="M151 166h-46v-166h-96v744h96v-135h46c44 0 70 -23 70 -74v-295c0 -49 -29 -74 -70 -74zM105 535v-292h8c8 0 12 5 12 15v263c0 11 -1 14 -12 14h-8z" />
    <glyph glyph-name="eth" unicode="&#xf0;" horiz-adv-x="221" 
d="M113 -7h-6c-72 0 -100 32 -100 92v375c0 47 17 80 53 80h3c27 0 44 -15 56 -28l-29 85l-56 -39v61l39 27l-33 98h94l15 -45l43 30v-61l-26 -18l26 -78c17 -41 22 -68 22 -113v-370c0 -57 -33 -96 -101 -96zM110 66c7 0 10 5 10 14v379c0 7 -1 14 -10 14
c-8 0 -9 -7 -9 -14v-379c0 -9 3 -14 9 -14z" />
    <glyph glyph-name="yacute" unicode="&#xfd;" horiz-adv-x="208" 
d="M24 -159v78h28c5 0 8 3 8 9c0 5 1 20 1 31c0 12 0 21 -3 40l-58 539h93l15 -338l9 338h92l-65 -656c-5 -32 -24 -41 -43 -41h-77zM67 549l28 100h77l-29 -100h-76z" />
    <glyph glyph-name="thorn" unicode="&#xfe;" 
d="M111 63c8 0 9 6 9 13v385c0 9 -3 13 -9 13c-8 0 -9 -6 -9 -13v-385c0 -7 1 -13 9 -13zM7 744h95v-243c17 25 36 41 60 41h3c35 0 51 -29 51 -70v-409c0 -37 -23 -68 -55 -68h-1c-27 0 -45 15 -58 38v-192h-95v903z" />
    <glyph glyph-name="Amacron" unicode="&#x100;" horiz-adv-x="219" 
d="M117 236l-12 314l-12 -314h24zM126 0l-6 151h-31l-6 -151h-84l47 744h124l50 -744h-94zM43 758v63h131v-63h-131z" />
    <glyph glyph-name="amacron" unicode="&#x101;" horiz-adv-x="217" 
d="M112 75v207c-15 -9 -16 -14 -16 -29v-179c0 -7 3 -11 8 -11c7 0 8 5 8 12zM6 53v196c0 35 11 51 38 66c16 8 49 22 61 27c5 2 7 6 7 12v116c0 7 -3 11 -8 11h-1c-5 0 -8 -4 -8 -11v-125h-87v127c0 52 37 72 90 72h10c60 0 96 -17 96 -72v-390c0 -3 1 -4 4 -4h7v-78h-79
c-15 0 -23 12 -23 37c-9 -19 -29 -41 -58 -41h-2c-32 0 -47 29 -47 57zM38 556v64h131v-64h-131z" />
    <glyph glyph-name="Abreve" unicode="&#x102;" horiz-adv-x="219" 
d="M117 236l-12 314l-12 -314h24zM126 0l-6 151h-31l-6 -151h-84l47 744h124l50 -744h-94zM110 753h-3c-49 0 -73 30 -73 69v9h62v-8c0 -11 4 -16 12 -16c9 0 13 5 13 16v8h61v-9c0 -39 -25 -69 -72 -69z" />
    <glyph glyph-name="abreve" unicode="&#x103;" horiz-adv-x="217" 
d="M112 75v207c-15 -9 -16 -14 -16 -29v-179c0 -7 3 -11 8 -11c7 0 8 5 8 12zM6 53v196c0 35 11 51 38 66c16 8 49 22 61 27c5 2 7 6 7 12v116c0 7 -3 11 -8 11h-1c-5 0 -8 -4 -8 -11v-125h-87v127c0 52 37 72 90 72h10c60 0 96 -17 96 -72v-390c0 -3 1 -4 4 -4h7v-78h-79
c-15 0 -23 12 -23 37c-9 -19 -29 -41 -58 -41h-2c-32 0 -47 29 -47 57zM105 550h-2c-51 0 -74 28 -74 72v11h62v-8c0 -13 4 -20 12 -20c9 0 13 7 13 20v8h61v-11c0 -44 -25 -72 -72 -72z" />
    <glyph glyph-name="Aogonek" unicode="&#x104;" horiz-adv-x="219" 
d="M117 236l-12 314l-12 -314h24zM126 0l-6 151h-31l-6 -151h-84l47 744h124l50 -744h-94zM131 -105v4c0 37 24 74 51 101h39c-13 -20 -21 -53 -21 -76v-2c0 -19 6 -24 17 -24h4v-57h-26c-32 0 -64 14 -64 54z" />
    <glyph glyph-name="aogonek" unicode="&#x105;" horiz-adv-x="217" 
d="M112 75v207c-15 -9 -16 -14 -16 -29v-179c0 -7 3 -11 8 -11c7 0 8 5 8 12zM6 53v196c0 35 11 51 38 66c16 8 49 22 61 27c5 2 7 6 7 12v116c0 7 -3 11 -8 11h-1c-5 0 -8 -4 -8 -11v-125h-87v127c0 52 37 72 90 72h10c60 0 96 -17 96 -72v-390c0 -3 1 -4 4 -4h7v-78h-79
c-15 0 -23 12 -23 37c-9 -19 -29 -41 -58 -41h-2c-32 0 -47 29 -47 57zM126 -105v4c0 37 24 74 51 101h39c-13 -20 -21 -53 -21 -76v-2c0 -19 6 -24 17 -24h4v-57h-26c-32 0 -64 14 -64 54z" />
    <glyph glyph-name="Cacute" unicode="&#x106;" horiz-adv-x="229" 
d="M80 757l30 79h81l-33 -79h-78zM117 80c7 0 10 5 10 16v251h95v-253c0 -55 -28 -99 -96 -99h-16c-73 0 -102 39 -102 107v543c0 61 27 104 102 104h16c68 0 96 -38 96 -95v-229h-95v226c0 10 -3 15 -10 15s-10 -5 -10 -15v-555c0 -11 3 -16 10 -16z" />
    <glyph glyph-name="cacute" unicode="&#x107;" horiz-adv-x="210" 
d="M70 552l27 97h78l-29 -97h-76zM117 -6h-20c-52 0 -90 26 -90 86v377c0 48 23 87 90 87h23c60 0 84 -33 84 -78v-157h-87v157c0 7 -3 11 -8 11s-8 -4 -8 -11v-391c0 -7 3 -11 8 -11s8 4 8 11v177h87v-179c0 -48 -34 -79 -87 -79z" />
    <glyph glyph-name="Ccircumflex" unicode="&#x108;" horiz-adv-x="229" 
d="M161 836l38 -79h-68l-13 32l-13 -32h-68l38 79h86zM117 80c7 0 10 5 10 16v251h95v-253c0 -55 -28 -99 -96 -99h-16c-73 0 -102 39 -102 107v543c0 61 27 104 102 104h16c68 0 96 -38 96 -95v-229h-95v226c0 10 -3 15 -10 15s-10 -5 -10 -15v-555c0 -11 3 -16 10 -16z
" />
    <glyph glyph-name="ccircumflex" unicode="&#x109;" horiz-adv-x="210" 
d="M147 649l37 -97h-64l-12 46l-11 -46h-65l37 97h78zM117 -6h-20c-52 0 -90 26 -90 86v377c0 48 23 87 90 87h23c60 0 84 -33 84 -78v-157h-87v157c0 7 -3 11 -8 11s-8 -4 -8 -11v-391c0 -7 3 -11 8 -11s8 4 8 11v177h87v-179c0 -48 -34 -79 -87 -79z" />
    <glyph glyph-name="Cdotaccent" unicode="&#x10a;" horiz-adv-x="229" 
d="M165 844v-87h-95v87h95zM117 80c7 0 10 5 10 16v251h95v-253c0 -55 -28 -99 -96 -99h-16c-73 0 -102 39 -102 107v543c0 61 27 104 102 104h16c68 0 96 -38 96 -95v-229h-95v226c0 10 -3 15 -10 15s-10 -5 -10 -15v-555c0 -11 3 -16 10 -16z" />
    <glyph glyph-name="cdotaccent" unicode="&#x10b;" horiz-adv-x="210" 
d="M155 649v-97h-95v97h95zM117 -6h-20c-52 0 -90 26 -90 86v377c0 48 23 87 90 87h23c60 0 84 -33 84 -78v-157h-87v157c0 7 -3 11 -8 11s-8 -4 -8 -11v-391c0 -7 3 -11 8 -11s8 4 8 11v177h87v-179c0 -48 -34 -79 -87 -79z" />
    <glyph glyph-name="Ccaron" unicode="&#x10c;" horiz-adv-x="229" 
d="M76 757l-39 79h69l13 -34l13 34h68l-38 -79h-86zM117 80c7 0 10 5 10 16v251h95v-253c0 -55 -28 -99 -96 -99h-16c-73 0 -102 39 -102 107v543c0 61 27 104 102 104h16c68 0 96 -38 96 -95v-229h-95v226c0 10 -3 15 -10 15s-10 -5 -10 -15v-555c0 -11 3 -16 10 -16z" />
    <glyph glyph-name="ccaron" unicode="&#x10d;" horiz-adv-x="210" 
d="M68 552l-36 97h65l11 -50l12 50h64l-35 -97h-81zM117 -6h-20c-52 0 -90 26 -90 86v377c0 48 23 87 90 87h23c60 0 84 -33 84 -78v-157h-87v157c0 7 -3 11 -8 11s-8 -4 -8 -11v-391c0 -7 3 -11 8 -11s8 4 8 11v177h87v-179c0 -48 -34 -79 -87 -79z" />
    <glyph glyph-name="Dcaron" unicode="&#x10e;" horiz-adv-x="230" 
d="M63 755l-39 81h67l13 -34l13 34h67l-39 -81h-82zM8 0v744h139c43 0 75 -23 75 -83v-574c0 -59 -30 -87 -73 -87h-141zM104 664v-582h9c8 0 12 6 12 19v545c0 12 -4 18 -12 18h-9z" />
    <glyph glyph-name="dcaron" unicode="&#x10f;" 
d="M223 642l3 102h66l-7 -102h-62zM112 64c7 0 9 7 9 14v381c0 9 -3 14 -9 14c-7 0 -10 -4 -10 -13v-383c0 -9 3 -13 10 -13zM121 744h95v-744h-95v35c-12 -20 -30 -40 -57 -40h-2c-35 0 -55 32 -55 71v409c0 39 20 66 51 66h3c29 0 45 -17 60 -36v239z" />
    <glyph glyph-name="Dcroat" unicode="&#x110;" horiz-adv-x="234" 
d="M12 0v338h-11v84h11v322h139c43 0 75 -23 75 -83v-574c0 -59 -30 -87 -73 -87h-141zM108 664v-242h14v-84h-14v-256h9c8 0 12 6 12 19v545c0 12 -4 18 -12 18h-9z" />
    <glyph glyph-name="dcroat" unicode="&#x111;" 
d="M74 599v71h157v-71h-157zM112 64c7 0 9 7 9 14v381c0 9 -3 14 -9 14c-7 0 -10 -4 -10 -13v-383c0 -9 3 -13 10 -13zM121 744h95v-744h-95v35c-12 -20 -30 -40 -57 -40h-2c-35 0 -55 32 -55 71v409c0 39 20 66 51 66h3c29 0 45 -17 60 -36v239z" />
    <glyph glyph-name="Emacron" unicode="&#x112;" horiz-adv-x="179" 
d="M8 744h163v-89h-67v-217h58v-92h-58v-256h69v-90h-165v744zM25 758v63h131v-63h-131z" />
    <glyph glyph-name="emacron" unicode="&#x113;" horiz-adv-x="214" 
d="M99 468v-146h18v146c0 11 -1 15 -9 15c-6 0 -9 -5 -9 -15zM207 242v-162c0 -55 -34 -86 -90 -86h-18c-57 0 -92 28 -92 89v370c0 56 29 91 92 91h18c51 0 90 -24 90 -89v-189h-108v-192c0 -9 3 -13 9 -13c8 0 9 5 9 13v168h90zM43 557v64h131v-64h-131z" />
    <glyph glyph-name="Ebreve" unicode="&#x114;" horiz-adv-x="179" 
d="M8 744h163v-89h-67v-217h58v-92h-58v-256h69v-90h-165v744zM93 753h-3c-49 0 -73 30 -73 69v9h62v-8c0 -11 4 -16 12 -16c9 0 13 5 13 16v8h61v-9c0 -39 -25 -69 -72 -69z" />
    <glyph glyph-name="ebreve" unicode="&#x115;" horiz-adv-x="214" 
d="M99 468v-146h18v146c0 11 -1 15 -9 15c-6 0 -9 -5 -9 -15zM207 242v-162c0 -55 -34 -86 -90 -86h-18c-57 0 -92 28 -92 89v370c0 56 29 91 92 91h18c51 0 90 -24 90 -89v-189h-108v-192c0 -9 3 -13 9 -13c8 0 9 5 9 13v168h90zM109 550h-2c-51 0 -74 28 -74 72v11h62v-8
c0 -13 4 -20 12 -20c9 0 13 7 13 20v8h61v-11c0 -44 -25 -72 -72 -72z" />
    <glyph glyph-name="Edotaccent" unicode="&#x116;" horiz-adv-x="179" 
d="M139 844v-89h-95v89h95zM8 744h163v-89h-67v-217h58v-92h-58v-256h69v-90h-165v744z" />
    <glyph glyph-name="edotaccent" unicode="&#x117;" horiz-adv-x="214" 
d="M155 649v-97h-95v97h95zM99 468v-146h18v146c0 11 -1 15 -9 15c-6 0 -9 -5 -9 -15zM207 242v-162c0 -55 -34 -86 -90 -86h-18c-57 0 -92 28 -92 89v370c0 56 29 91 92 91h18c51 0 90 -24 90 -89v-189h-108v-192c0 -9 3 -13 9 -13c8 0 9 5 9 13v168h90z" />
    <glyph glyph-name="Eogonek" unicode="&#x118;" horiz-adv-x="179" 
d="M59 -105v4c0 37 24 74 51 101h39c-13 -20 -21 -53 -21 -76v-2c0 -19 6 -24 18 -24h4v-57h-27c-32 0 -64 14 -64 54zM8 744h163v-89h-67v-217h58v-92h-58v-256h69v-90h-165v744z" />
    <glyph glyph-name="eogonek" unicode="&#x119;" horiz-adv-x="214" 
d="M99 468v-146h18v146c0 11 -1 15 -9 15c-6 0 -9 -5 -9 -15zM179 -102v-57h-27c-32 0 -65 14 -65 54v4c0 33 20 69 47 96c-5 0 -10 -1 -17 -1h-18c-57 0 -92 28 -92 89v370c0 56 29 91 92 91h18c51 0 90 -24 90 -89v-189h-108v-192c0 -9 3 -13 9 -13c8 0 9 5 9 13v168h90
v-162c0 -39 -15 -61 -30 -88c-13 -25 -21 -45 -21 -68v-2c0 -19 7 -24 19 -24h4z" />
    <glyph glyph-name="Ecaron" unicode="&#x11a;" horiz-adv-x="179" 
d="M50 755l-39 81h67l13 -34l13 34h67l-39 -81h-82zM8 744h163v-89h-67v-217h58v-92h-58v-256h69v-90h-165v744z" />
    <glyph glyph-name="ecaron" unicode="&#x11b;" horiz-adv-x="214" 
d="M67 552l-36 95h65l11 -48l12 48h64l-35 -95h-81zM99 468v-146h18v146c0 11 -1 15 -9 15c-6 0 -9 -5 -9 -15zM207 242v-162c0 -55 -34 -86 -90 -86h-18c-57 0 -92 28 -92 89v370c0 56 29 91 92 91h18c51 0 90 -24 90 -89v-189h-108v-192c0 -9 3 -13 9 -13c8 0 9 5 9 13
v168h90z" />
    <glyph glyph-name="Gcircumflex" unicode="&#x11c;" horiz-adv-x="233" 
d="M159 836l39 -79h-68l-14 32l-13 -32h-67l38 79h85zM84 -5h-2c-51 0 -74 43 -74 94v562c0 52 25 98 102 98h13c77 0 99 -45 99 -92v-198h-94v193c0 9 0 15 -11 15c-7 0 -10 -5 -10 -15v-558c0 -12 4 -18 13 -18s14 6 14 18v265h-19v76h111v-435h-66c-1 11 -7 30 -10 39
c-13 -20 -33 -44 -66 -44z" />
    <glyph glyph-name="gcircumflex" unicode="&#x11d;" 
d="M149 649l36 -100h-64l-12 49l-11 -49h-65l37 100h79zM112 63c7 0 9 5 9 12v385c0 8 -3 12 -9 12c-8 0 -10 -5 -10 -12v-385c0 -7 2 -12 10 -12zM123 -163h-23c-67 0 -89 29 -89 68v83h92v-72c0 -7 3 -11 9 -11s9 4 9 11v118c-11 -16 -28 -38 -59 -38s-55 22 -55 65v415
c0 35 17 65 52 65h3c29 0 47 -21 59 -37v34h95v-623c0 -47 -30 -78 -93 -78z" />
    <glyph glyph-name="Gbreve" unicode="&#x11e;" horiz-adv-x="233" 
d="M119 756h-3c-49 0 -73 30 -73 69v9h62v-8c0 -11 4 -16 12 -16c9 0 13 5 13 16v8h61v-9c0 -39 -25 -69 -72 -69zM84 -5h-2c-51 0 -74 43 -74 94v562c0 52 25 98 102 98h13c77 0 99 -45 99 -92v-198h-94v193c0 9 0 15 -11 15c-7 0 -10 -5 -10 -15v-558c0 -12 4 -18 13 -18
s14 6 14 18v265h-19v76h111v-435h-66c-1 11 -7 30 -10 39c-13 -20 -33 -44 -66 -44z" />
    <glyph glyph-name="gbreve" unicode="&#x11f;" 
d="M112 63c7 0 9 5 9 12v385c0 8 -3 12 -9 12c-8 0 -10 -5 -10 -12v-385c0 -7 2 -12 10 -12zM123 -163h-23c-67 0 -89 29 -89 68v83h92v-72c0 -7 3 -11 9 -11s9 4 9 11v118c-11 -16 -28 -38 -59 -38s-55 22 -55 65v415c0 35 17 65 52 65h3c29 0 47 -21 59 -37v34h95v-623
c0 -47 -30 -78 -93 -78zM110 547h-2c-51 0 -74 28 -74 72v11h62v-8c0 -13 4 -20 12 -20c9 0 13 7 13 20v8h61v-11c0 -44 -25 -72 -72 -72z" />
    <glyph glyph-name="Gdotaccent" unicode="&#x120;" horiz-adv-x="233" 
d="M164 844v-87h-94v87h94zM84 -5h-2c-51 0 -74 43 -74 94v562c0 52 25 98 102 98h13c77 0 99 -45 99 -92v-198h-94v193c0 9 0 15 -11 15c-7 0 -10 -5 -10 -15v-558c0 -12 4 -18 13 -18s14 6 14 18v265h-19v76h111v-435h-66c-1 11 -7 30 -10 39c-13 -20 -33 -44 -66 -44z
" />
    <glyph glyph-name="gdotaccent" unicode="&#x121;" 
d="M112 63c7 0 9 5 9 12v385c0 8 -3 12 -9 12c-8 0 -10 -5 -10 -12v-385c0 -7 2 -12 10 -12zM123 -163h-23c-67 0 -89 29 -89 68v83h92v-72c0 -7 3 -11 9 -11s9 4 9 11v118c-11 -16 -28 -38 -59 -38s-55 22 -55 65v415c0 35 17 65 52 65h3c29 0 47 -21 59 -37v34h95v-623
c0 -47 -30 -78 -93 -78zM157 649v-100h-95v100h95z" />
    <glyph glyph-name="uni0122" unicode="&#x122;" horiz-adv-x="233" 
d="M144 -140h-41c7 16 10 36 10 51h-30v77h76v-58c0 -28 -8 -55 -15 -70zM84 -5h-2c-51 0 -74 43 -74 94v562c0 52 25 98 102 98h13c77 0 99 -45 99 -92v-198h-94v193c0 9 0 15 -11 15c-7 0 -10 -5 -10 -15v-558c0 -12 4 -18 13 -18s14 6 14 18v265h-19v76h111v-435h-66
c-1 11 -7 30 -10 39c-13 -20 -33 -44 -66 -44z" />
    <glyph glyph-name="uni0123" unicode="&#x123;" 
d="M83 677h41c-5 -16 -10 -36 -10 -51h31v-77h-76v58c0 28 7 55 14 70zM112 63c7 0 9 5 9 12v385c0 8 -3 12 -9 12c-8 0 -10 -5 -10 -12v-385c0 -7 2 -12 10 -12zM123 -163h-23c-67 0 -89 29 -89 68v83h92v-72c0 -7 3 -11 9 -11s9 4 9 11v118c-11 -16 -28 -38 -59 -38
s-55 22 -55 65v415c0 35 17 65 52 65h3c29 0 47 -21 59 -37v34h95v-623c0 -47 -30 -78 -93 -78z" />
    <glyph glyph-name="Hcircumflex" unicode="&#x124;" horiz-adv-x="231" 
d="M8 0v744h98v-304h20v304h97v-744h-97v339h-20v-339h-98zM156 836l40 -81h-68l-13 33l-13 -33h-67l39 81h82z" />
    <glyph glyph-name="hcircumflex" unicode="&#x125;" 
d="M7 0v744h95v-242c12 20 32 40 61 40h4c37 0 49 -33 49 -54v-488h-95v458c0 7 -2 12 -10 12c-6 0 -9 -4 -9 -13v-457h-95zM148 835l40 -81h-68l-13 33l-13 -33h-67l39 81h82z" />
    <glyph glyph-name="Hbar" unicode="&#x126;" horiz-adv-x="236" 
d="M2 555v69h232v-69h-232zM10 0v744h98v-304h20v304h97v-744h-97v339h-20v-339h-98z" />
    <glyph glyph-name="hbar" unicode="&#x127;" 
d="M-8 599v71h156v-71h-156zM7 0v744h95v-242c12 20 32 40 61 40h4c37 0 49 -33 49 -54v-488h-95v458c0 7 -2 12 -10 12c-6 0 -9 -4 -9 -13v-457h-95z" />
    <glyph glyph-name="Itilde" unicode="&#x128;" horiz-adv-x="114" 
d="M106 744v-744h-98v744h98zM56 821c12 -4 16 -7 20 -7c3 0 4 2 4 6v14h52v-35c0 -27 -11 -43 -34 -43h-2c-13 0 -24 4 -40 11c-10 5 -16 7 -19 7s-5 -2 -5 -6v-14h-51v37c0 27 12 42 36 42h1c12 0 22 -5 38 -12z" />
    <glyph glyph-name="itilde" unicode="&#x129;" horiz-adv-x="109" 
d="M71 635h48v-47c0 -25 -10 -38 -30 -38h-1c-11 0 -18 4 -31 13c-8 4 -12 8 -15 8s-4 -2 -4 -7v-16h-48v48c0 23 10 38 30 38h1c11 0 18 -4 31 -13c7 -4 12 -8 15 -8s4 2 4 7v15zM102 538v-538h-95v538h95z" />
    <glyph glyph-name="Imacron" unicode="&#x12a;" horiz-adv-x="114" 
d="M106 744v-744h-98v744h98zM-8 758v63h131v-63h-131z" />
    <glyph glyph-name="imacron" unicode="&#x12b;" horiz-adv-x="109" 
d="M-2 554v63h113v-63h-113zM102 538v-538h-95v538h95z" />
    <glyph glyph-name="Ibreve" unicode="&#x12c;" horiz-adv-x="114" 
d="M106 744v-744h-98v744h98zM59 753h-3c-49 0 -73 30 -73 69v9h62v-8c0 -11 4 -16 12 -16c9 0 13 5 13 16v8h61v-9c0 -39 -25 -69 -72 -69z" />
    <glyph glyph-name="ibreve" unicode="&#x12d;" horiz-adv-x="109" 
d="M56 547h-2c-47 0 -62 30 -62 61v22h53v-13c0 -11 3 -16 10 -16s10 5 10 16v13h52v-22c0 -31 -17 -61 -61 -61zM102 538v-538h-95v538h95z" />
    <glyph glyph-name="Iogonek" unicode="&#x12e;" horiz-adv-x="114" 
d="M106 744v-744h-98v744h98zM16 -105v4c0 37 24 74 51 101h39c-13 -20 -21 -53 -21 -76v-2c0 -19 6 -24 17 -24h4v-57h-26c-32 0 -64 14 -64 54z" />
    <glyph glyph-name="iogonek" unicode="&#x12f;" horiz-adv-x="109" 
d="M102 649v-100h-95v100h95zM102 538v-538h-95v538h95zM12 -105v4c0 37 24 74 51 101h39c-13 -20 -21 -53 -21 -76v-2c0 -19 6 -24 17 -24h4v-57h-26c-32 0 -64 14 -64 54z" />
    <glyph glyph-name="Idotaccent" unicode="&#x130;" horiz-adv-x="114" 
d="M106 744v-744h-98v744h98zM105 844v-89h-95v89h95z" />
    <glyph glyph-name="IJ" unicode="&#x132;" horiz-adv-x="332" 
d="M106 744v-744h-98v744h98zM230 -5h-26c-63 0 -85 38 -85 85v234h88v-225c0 -7 3 -10 9 -10c5 0 8 3 8 10v655h99v-662c0 -49 -28 -87 -93 -87z" />
    <glyph glyph-name="ij" unicode="&#x133;" horiz-adv-x="216" 
d="M102 649v-100h-95v100h95zM102 538v-538h-95v538h95zM209 649v-100h-95v100h95zM87 -76h19c5 0 8 3 8 9v605h95v-651c0 -31 -19 -46 -42 -46h-80v83z" />
    <glyph glyph-name="Jcircumflex" unicode="&#x134;" horiz-adv-x="219" 
d="M201 836l40 -81h-68l-13 33l-13 -33h-67l39 81h82zM118 -5h-26c-63 0 -85 38 -85 85v234h88v-225c0 -7 3 -10 9 -10c5 0 8 3 8 10v655h99v-662c0 -49 -28 -87 -93 -87z" />
    <glyph glyph-name="jcircumflex" unicode="&#x135;" horiz-adv-x="109" 
d="M95 649l24 -100h-55l-10 52l-9 -52h-55l26 100h79zM-20 -76h19c5 0 8 3 8 9v605h95v-651c0 -31 -19 -46 -42 -46h-80v83z" />
    <glyph glyph-name="uni0136" unicode="&#x136;" horiz-adv-x="236" 
d="M144 -139h-41c7 16 10 36 10 51h-30v77h76v-58c0 -28 -8 -55 -15 -70zM105 0h-96v744h96l-1 -281l32 281h96l-47 -343l51 -401h-102l-30 300z" />
    <glyph glyph-name="uni0137" unicode="&#x137;" horiz-adv-x="220" 
d="M138 -139h-41c7 16 10 36 10 51h-30v77h76v-58c0 -28 -8 -55 -15 -70zM102 0h-95v744h95v-276l-1 -114l24 184h90l-35 -230l41 -308h-94l-26 235z" />
    <glyph glyph-name="Lacute" unicode="&#x139;" horiz-adv-x="171" 
d="M18 755l30 81h81l-33 -81h-78zM8 744h96l1 -653h60v-91h-157v744z" />
    <glyph glyph-name="lacute" unicode="&#x13a;" horiz-adv-x="109" 
d="M16 754l30 81h81l-33 -81h-78zM102 744v-744h-95v744h95z" />
    <glyph glyph-name="uni013B" unicode="&#x13b;" horiz-adv-x="171" 
d="M111 -139h-41c7 16 10 36 10 51h-30v77h76v-58c0 -28 -8 -55 -15 -70zM8 744h96l1 -653h60v-91h-157v744z" />
    <glyph glyph-name="uni013C" unicode="&#x13c;" horiz-adv-x="109" 
d="M79 -139h-41c7 16 10 36 10 51h-30v77h76v-58c0 -28 -8 -55 -15 -70zM102 744v-744h-95v744h95z" />
    <glyph glyph-name="Lcaron" unicode="&#x13d;" horiz-adv-x="171" 
d="M112 642l3 102h66l-7 -102h-62zM8 744h96l1 -653h60v-91h-157v744z" />
    <glyph glyph-name="lcaron" unicode="&#x13e;" horiz-adv-x="109" 
d="M109 642l3 102h66l-7 -102h-62zM102 744v-744h-95v744h95z" />
    <glyph glyph-name="Ldot" unicode="&#x13f;" horiz-adv-x="204" 
d="M199 433v-108h-84v108h84zM8 744h96l1 -653h60v-91h-157v744z" />
    <glyph glyph-name="ldot" unicode="&#x140;" horiz-adv-x="201" 
d="M196 444v-108h-84v108h84zM102 744v-744h-95v744h95z" />
    <glyph glyph-name="Lslash" unicode="&#x141;" horiz-adv-x="179" 
d="M16 744h96v-287l40 44v-89l-40 -43l1 -278h60v-91h-157v266l-14 -15v85l14 15v393z" />
    <glyph glyph-name="lslash" unicode="&#x142;" horiz-adv-x="130" 
d="M112 443v-443h-95v345l-14 -14v81l14 14v318h95v-219l15 16v-82z" />
    <glyph glyph-name="Nacute" unicode="&#x143;" horiz-adv-x="232" 
d="M79 755l30 81h81l-33 -81h-78zM9 744h99l38 -429l-2 429h80v-744h-91l-46 478l1 -478h-79v744z" />
    <glyph glyph-name="nacute" unicode="&#x144;" 
d="M75 549l28 100h77l-29 -100h-76zM7 0v538h94v-37c13 20 33 41 62 41h4c40 0 49 -33 49 -54v-488h-95v458c0 7 -2 12 -10 12c-6 0 -9 -4 -9 -13v-457h-95z" />
    <glyph glyph-name="uni0145" unicode="&#x145;" horiz-adv-x="232" 
d="M141 -139h-41c7 16 10 36 10 51h-30v77h76v-58c0 -28 -8 -55 -15 -70zM9 744h99l38 -429l-2 429h80v-744h-91l-46 478l1 -478h-79v744z" />
    <glyph glyph-name="uni0146" unicode="&#x146;" 
d="M136 -139h-41c7 16 10 36 10 51h-30v77h76v-58c0 -28 -8 -55 -15 -70zM7 0v538h94v-37c13 20 33 41 62 41h4c40 0 49 -33 49 -54v-488h-95v458c0 7 -2 12 -10 12c-6 0 -9 -4 -9 -13v-457h-95z" />
    <glyph glyph-name="Ncaron" unicode="&#x147;" horiz-adv-x="232" 
d="M77 755l-39 81h67l13 -34l13 34h67l-39 -81h-82zM9 744h99l38 -429l-2 429h80v-744h-91l-46 478l1 -478h-79v744z" />
    <glyph glyph-name="ncaron" unicode="&#x148;" 
d="M73 549l-37 100h65l11 -50l12 50h64l-36 -100h-79zM7 0v538h94v-37c13 20 33 41 62 41h4c40 0 49 -33 49 -54v-488h-95v458c0 7 -2 12 -10 12c-6 0 -9 -4 -9 -13v-457h-95z" />
    <glyph glyph-name="napostrophe" unicode="&#x149;" horiz-adv-x="286" 
d="M61 588h-45c7 19 14 44 14 64h-29v92h76v-74c0 -31 -9 -65 -16 -82zM70 0v538h94v-37c13 20 33 41 62 41h4c40 0 49 -33 49 -54v-488h-95v458c0 7 -2 12 -10 12c-6 0 -9 -4 -9 -13v-457h-95z" />
    <glyph glyph-name="Eng" unicode="&#x14a;" horiz-adv-x="230" 
d="M222 744v-849c0 -33 -19 -54 -47 -54h-72v79h22c6 0 9 3 9 10v70l-48 478v-478h-78v744h99l37 -438l-1 438h79z" />
    <glyph glyph-name="eng" unicode="&#x14b;" 
d="M121 -67v525c0 7 -2 12 -10 12c-6 0 -9 -4 -9 -13v-457h-95v538h94v-37c15 21 34 41 63 41h5c36 0 47 -33 47 -54v-601c0 -31 -18 -46 -41 -46h-73v83h11c5 0 8 3 8 9z" />
    <glyph glyph-name="Omacron" unicode="&#x14c;" horiz-adv-x="237" 
d="M54 761v63h131v-63h-131zM229 636v-530c0 -72 -38 -111 -103 -111h-14c-68 0 -104 40 -104 111v530c0 71 32 113 104 113h14c72 0 103 -44 103 -113zM130 98v548c0 11 -4 17 -11 17s-11 -6 -11 -17v-548c0 -11 4 -16 11 -16s11 5 11 16z" />
    <glyph glyph-name="omacron" unicode="&#x14d;" 
d="M47 557v64h131v-64h-131zM118 -6h-14c-65 0 -97 33 -97 100v350c0 68 36 100 97 100h15c65 0 97 -33 97 -100v-350c0 -68 -37 -100 -98 -100zM111 66c7 0 10 5 10 14v380c0 7 -2 14 -10 14s-9 -7 -9 -14v-380c0 -9 3 -14 9 -14z" />
    <glyph glyph-name="Obreve" unicode="&#x14e;" horiz-adv-x="237" 
d="M121 756h-3c-49 0 -73 30 -73 69v9h62v-8c0 -11 4 -16 12 -16c9 0 13 5 13 16v8h61v-9c0 -39 -25 -69 -72 -69zM229 636v-530c0 -72 -38 -111 -103 -111h-14c-68 0 -104 40 -104 111v530c0 71 32 113 104 113h14c72 0 103 -44 103 -113zM130 98v548c0 11 -4 17 -11 17
s-11 -6 -11 -17v-548c0 -11 4 -16 11 -16s11 5 11 16z" />
    <glyph glyph-name="obreve" unicode="&#x14f;" 
d="M118 -6h-14c-65 0 -97 33 -97 100v350c0 68 36 100 97 100h15c65 0 97 -33 97 -100v-350c0 -68 -37 -100 -98 -100zM111 66c7 0 10 5 10 14v380c0 7 -2 14 -10 14s-9 -7 -9 -14v-380c0 -9 3 -14 9 -14zM113 550h-2c-51 0 -74 28 -74 72v11h62v-8c0 -13 4 -20 12 -20
c9 0 13 7 13 20v8h61v-11c0 -44 -25 -72 -72 -72z" />
    <glyph glyph-name="Ohungarumlaut" unicode="&#x150;" horiz-adv-x="237" 
d="M128 757l23 79h67l-24 -79h-66zM50 757l22 79h67l-23 -79h-66zM229 636v-530c0 -72 -38 -111 -103 -111h-14c-68 0 -104 40 -104 111v530c0 71 32 113 104 113h14c72 0 103 -44 103 -113zM130 98v548c0 11 -4 17 -11 17s-11 -6 -11 -17v-548c0 -11 4 -16 11 -16
s11 5 11 16z" />
    <glyph glyph-name="ohungarumlaut" unicode="&#x151;" 
d="M121 552l21 97h64l-21 -97h-64zM45 552l21 97h64l-21 -97h-64zM118 -6h-14c-65 0 -97 33 -97 100v350c0 68 36 100 97 100h15c65 0 97 -33 97 -100v-350c0 -68 -37 -100 -98 -100zM111 66c7 0 10 5 10 14v380c0 7 -2 14 -10 14s-9 -7 -9 -14v-380c0 -9 3 -14 9 -14z" />
    <glyph glyph-name="Racute" unicode="&#x154;" horiz-adv-x="230" 
d="M70 755l30 81h81l-33 -81h-78zM106 669v-243h7c7 0 11 4 11 13v217c0 9 -1 13 -10 13h-8zM106 342v-342h-98v744h152c35 0 60 -22 60 -69v-215c0 -39 -19 -55 -34 -62c16 -7 36 -23 36 -54v-317c0 -11 1 -18 4 -25v-2h-95c-5 5 -7 13 -7 24v305c0 7 0 13 -11 13h-7z" />
    <glyph glyph-name="racute" unicode="&#x155;" horiz-adv-x="205" 
d="M71 549l28 100h77l-29 -100h-76zM102 461v-461h-95v538h94v-38c7 15 26 41 54 41h5c27 0 39 -20 39 -43v-193h-83v156c0 6 -2 9 -7 9s-7 -3 -7 -9z" />
    <glyph glyph-name="uni0156" unicode="&#x156;" horiz-adv-x="230" 
d="M141 -139h-41c7 16 10 36 10 51h-30v77h76v-58c0 -28 -8 -55 -15 -70zM106 669v-243h7c7 0 11 4 11 13v217c0 9 -1 13 -10 13h-8zM106 342v-342h-98v744h152c35 0 60 -22 60 -69v-215c0 -39 -19 -55 -34 -62c16 -7 36 -23 36 -54v-317c0 -11 1 -18 4 -25v-2h-95
c-5 5 -7 13 -7 24v305c0 7 0 13 -11 13h-7z" />
    <glyph glyph-name="uni0157" unicode="&#x157;" horiz-adv-x="205" 
d="M78 -139h-41c7 16 10 36 10 51h-30v77h76v-58c0 -28 -8 -55 -15 -70zM102 461v-461h-95v538h94v-38c7 15 26 41 54 41h5c27 0 39 -20 39 -43v-193h-83v156c0 6 -2 9 -7 9s-7 -3 -7 -9z" />
    <glyph glyph-name="Rcaron" unicode="&#x158;" horiz-adv-x="230" 
d="M67 755l-39 81h67l13 -34l13 34h67l-39 -81h-82zM106 669v-243h7c7 0 11 4 11 13v217c0 9 -1 13 -10 13h-8zM106 342v-342h-98v744h152c35 0 60 -22 60 -69v-215c0 -39 -19 -55 -34 -62c16 -7 36 -23 36 -54v-317c0 -11 1 -18 4 -25v-2h-95c-5 5 -7 13 -7 24v305
c0 7 0 13 -11 13h-7z" />
    <glyph glyph-name="rcaron" unicode="&#x159;" horiz-adv-x="205" 
d="M69 549l-37 100h65l11 -50l12 50h64l-36 -100h-79zM102 461v-461h-95v538h94v-38c7 15 26 41 54 41h5c27 0 39 -20 39 -43v-193h-83v156c0 6 -2 9 -7 9s-7 -3 -7 -9z" />
    <glyph glyph-name="Sacute" unicode="&#x15a;" horiz-adv-x="230" 
d="M78 757l31 79h80l-32 -79h-79zM124 -5h-22c-64 0 -96 30 -96 90v232h96v-225c0 -11 3 -16 10 -16s11 5 11 16v193c0 20 -2 27 -17 42l-53 52c-32 31 -44 62 -44 109v169c0 56 26 92 97 92h22c71 0 92 -36 92 -84v-200h-93v196c0 8 -3 12 -10 12s-10 -4 -10 -12v-169
c0 -19 3 -25 15 -38l52 -52c37 -35 50 -61 50 -113v-192c0 -64 -32 -102 -100 -102z" />
    <glyph glyph-name="sacute" unicode="&#x15b;" horiz-adv-x="200" 
d="M63 552l27 97h78l-29 -97h-76zM109 -6h-23c-51 0 -81 22 -81 73v157h83v-154c0 -7 3 -10 9 -10c5 0 8 3 8 10v131c0 17 -2 22 -15 35l-40 32c-36 31 -43 53 -43 92v110c0 49 28 74 84 74h21c51 0 79 -19 79 -67v-132h-81v128c0 7 -3 11 -8 11s-8 -4 -8 -11v-108
c0 -19 2 -21 13 -32l42 -33c37 -33 46 -55 46 -96v-131c0 -52 -33 -79 -86 -79z" />
    <glyph glyph-name="Scircumflex" unicode="&#x15c;" horiz-adv-x="230" 
d="M159 836l38 -79h-68l-13 32l-13 -32h-67l38 79h85zM124 -5h-22c-64 0 -96 30 -96 90v232h96v-225c0 -11 3 -16 10 -16s11 5 11 16v193c0 20 -2 27 -17 42l-53 52c-32 31 -44 62 -44 109v169c0 56 26 92 97 92h22c71 0 92 -36 92 -84v-200h-93v196c0 8 -3 12 -10 12
s-10 -4 -10 -12v-169c0 -19 3 -25 15 -38l52 -52c37 -35 50 -61 50 -113v-192c0 -64 -32 -102 -100 -102z" />
    <glyph glyph-name="scircumflex" unicode="&#x15d;" horiz-adv-x="200" 
d="M141 649l37 -97h-64l-12 46l-11 -46h-65l37 97h78zM109 -6h-23c-51 0 -81 22 -81 73v157h83v-154c0 -7 3 -10 9 -10c5 0 8 3 8 10v131c0 17 -2 22 -15 35l-40 32c-36 31 -43 53 -43 92v110c0 49 28 74 84 74h21c51 0 79 -19 79 -67v-132h-81v128c0 7 -3 11 -8 11
s-8 -4 -8 -11v-108c0 -19 2 -21 13 -32l42 -33c37 -33 46 -55 46 -96v-131c0 -52 -33 -79 -86 -79z" />
    <glyph glyph-name="uni015E" unicode="&#x15e;" horiz-adv-x="230" 
d="M124 -5h-22c-64 0 -96 30 -96 90v232h96v-225c0 -11 3 -16 10 -16s11 5 11 16v193c0 20 -2 27 -17 42l-53 52c-32 31 -44 62 -44 109v169c0 56 26 92 97 92h22c71 0 92 -36 92 -84v-200h-93v196c0 8 -3 12 -10 12s-10 -4 -10 -12v-169c0 -19 3 -25 15 -38l52 -52
c37 -35 50 -61 50 -113v-192c0 -64 -32 -102 -100 -102zM71 -117v45h33c7 0 11 3 11 8s-4 7 -11 7h-26v57h42v-18h2c35 0 52 -19 52 -46v-1c0 -31 -19 -52 -56 -52h-47z" />
    <glyph glyph-name="uni015F" unicode="&#x15f;" horiz-adv-x="200" 
d="M109 -6h-23c-51 0 -81 22 -81 73v157h83v-154c0 -7 3 -10 9 -10c5 0 8 3 8 10v131c0 17 -2 22 -15 35l-40 32c-36 31 -43 53 -43 92v110c0 49 28 74 84 74h21c51 0 79 -19 79 -67v-132h-81v128c0 7 -3 11 -8 11s-8 -4 -8 -11v-108c0 -19 2 -21 13 -32l42 -33
c37 -33 46 -55 46 -96v-131c0 -52 -33 -79 -86 -79zM54 -117v45h33c7 0 11 3 11 8s-4 7 -11 7h-26v57h42v-18h2c35 0 52 -19 52 -46v-1c0 -31 -19 -52 -56 -52h-47z" />
    <glyph glyph-name="Scaron" unicode="&#x160;" horiz-adv-x="230" 
d="M124 -5h-22c-64 0 -96 30 -96 90v232h96v-225c0 -11 3 -16 10 -16s11 5 11 16v193c0 20 -2 27 -17 42l-53 52c-32 31 -44 62 -44 109v169c0 56 26 92 97 92h22c71 0 92 -36 92 -84v-200h-93v196c0 8 -3 12 -10 12s-10 -4 -10 -12v-169c0 -19 3 -25 15 -38l52 -52
c37 -35 50 -61 50 -113v-192c0 -64 -32 -102 -100 -102zM76 755l-39 81h67l13 -34l13 34h67l-39 -81h-82z" />
    <glyph glyph-name="scaron" unicode="&#x161;" horiz-adv-x="200" 
d="M109 -6h-23c-51 0 -81 22 -81 73v157h83v-154c0 -7 3 -10 9 -10c5 0 8 3 8 10v131c0 17 -2 22 -15 35l-40 32c-36 31 -43 53 -43 92v110c0 49 28 74 84 74h21c51 0 79 -19 79 -67v-132h-81v128c0 7 -3 11 -8 11s-8 -4 -8 -11v-108c0 -19 2 -21 13 -32l42 -33
c37 -33 46 -55 46 -96v-131c0 -52 -33 -79 -86 -79zM62 549l-37 100h65l11 -50l12 50h64l-36 -100h-79z" />
    <glyph glyph-name="Tcommaaccent" unicode="&#x162;" horiz-adv-x="195" 
d="M121 -139h-41c7 16 10 36 10 51h-30v77h76v-58c0 -28 -8 -55 -15 -70zM49 0v655h-43v89h183v-89h-44v-655h-96z" />
    <glyph glyph-name="tcommaaccent" unicode="&#x163;" horiz-adv-x="160" 
d="M124 -139h-41c7 16 10 36 10 51h-30v77h76v-58c0 -28 -8 -55 -15 -70zM155 0h-89c-17 0 -33 11 -33 38v421h-29v79h29v169h95v-169h27v-79h-27v-369c0 -7 3 -10 9 -10h18v-80z" />
    <glyph glyph-name="Tcaron" unicode="&#x164;" horiz-adv-x="195" 
d="M57 755l-39 81h67l13 -34l13 34h67l-39 -81h-82zM49 0v655h-43v89h183v-89h-44v-655h-96z" />
    <glyph glyph-name="tcaron" unicode="&#x165;" horiz-adv-x="160" 
d="M135 642l3 102h66l-7 -102h-62zM155 0h-89c-17 0 -33 11 -33 38v421h-29v79h29v169h95v-169h27v-79h-27v-369c0 -7 3 -10 9 -10h18v-80z" />
    <glyph glyph-name="Tbar" unicode="&#x166;" horiz-adv-x="195" 
d="M176 388h-157v77h157v-77zM49 0v655h-43v89h183v-89h-44v-655h-96z" />
    <glyph glyph-name="tbar" unicode="&#x167;" horiz-adv-x="160" 
d="M4 374h29v85h-29v79h29v169h95v-169h27v-79h-27v-85h27v-69h-27v-215c0 -7 3 -10 9 -10h18v-80h-89c-17 0 -33 11 -33 38v267h-29v69z" />
    <glyph glyph-name="Utilde" unicode="&#x168;" horiz-adv-x="235" 
d="M119 821c12 -4 16 -7 20 -7c3 0 4 2 4 6v14h52v-35c0 -27 -11 -43 -34 -43h-2c-13 0 -24 4 -40 11c-10 5 -16 7 -19 7s-5 -2 -5 -6v-14h-51v37c0 27 12 42 36 42h1c12 0 22 -5 38 -12zM125 -5h-15c-75 0 -102 43 -102 94v655h99v-644c0 -10 3 -15 10 -15s11 5 11 15v644
h99v-655c0 -51 -31 -94 -102 -94z" />
    <glyph glyph-name="utilde" unicode="&#x169;" 
d="M216 538v-538h-93v37c-15 -20 -33 -40 -64 -40h-3c-36 0 -49 33 -49 54v487h96v-457c0 -9 3 -13 9 -13s9 4 9 13v457h95zM134 635h52v-43c0 -24 -11 -42 -36 -42h-1c-13 0 -22 5 -37 13c-11 7 -14 9 -18 9c-2 0 -3 -2 -3 -7v-17h-52v43c0 25 11 43 36 43h1
c13 0 24 -5 37 -13c9 -5 15 -8 18 -8c2 0 3 2 3 6v16z" />
    <glyph glyph-name="Umacron" unicode="&#x16a;" horiz-adv-x="235" 
d="M125 -5h-15c-75 0 -102 43 -102 94v655h99v-644c0 -10 3 -15 10 -15s11 5 11 15v644h99v-655c0 -51 -31 -94 -102 -94zM52 758v63h131v-63h-131z" />
    <glyph glyph-name="umacron" unicode="&#x16b;" 
d="M216 538v-538h-93v37c-15 -20 -33 -40 -64 -40h-3c-36 0 -49 33 -49 54v487h96v-457c0 -9 3 -13 9 -13s9 4 9 13v457h95zM47 554v64h131v-64h-131z" />
    <glyph glyph-name="Ubreve" unicode="&#x16c;" horiz-adv-x="235" 
d="M125 -5h-15c-75 0 -102 43 -102 94v655h99v-644c0 -10 3 -15 10 -15s11 5 11 15v644h99v-655c0 -51 -31 -94 -102 -94zM119 753h-3c-49 0 -73 30 -73 69v9h62v-8c0 -11 4 -16 12 -16c9 0 13 5 13 16v8h61v-9c0 -39 -25 -69 -72 -69z" />
    <glyph glyph-name="ubreve" unicode="&#x16d;" 
d="M216 538v-538h-93v37c-15 -20 -33 -40 -64 -40h-3c-36 0 -49 33 -49 54v487h96v-457c0 -9 3 -13 9 -13s9 4 9 13v457h95zM113 547h-2c-51 0 -74 28 -74 72v11h62v-8c0 -13 4 -20 12 -20c9 0 13 7 13 20v8h61v-11c0 -44 -25 -72 -72 -72z" />
    <glyph glyph-name="Uring" unicode="&#x16e;" horiz-adv-x="235" 
d="M125 -5h-15c-75 0 -102 43 -102 94v655h99v-644c0 -10 3 -15 10 -15s11 5 11 15v644h99v-655c0 -51 -31 -94 -102 -94zM63 805c0 31 23 52 54 52s55 -21 55 -52s-24 -52 -55 -52s-54 21 -54 52zM117 826c-12 0 -21 -8 -21 -21s9 -22 21 -22s21 9 21 22s-9 21 -21 21z" />
    <glyph glyph-name="uring" unicode="&#x16f;" 
d="M166 600c0 -31 -24 -52 -55 -52s-54 21 -54 52s23 52 54 52s55 -21 55 -52zM90 600c0 -13 9 -22 21 -22s21 9 21 22s-9 21 -21 21s-21 -8 -21 -21zM216 538v-538h-93v37c-15 -20 -33 -40 -64 -40h-3c-36 0 -49 33 -49 54v487h96v-457c0 -9 3 -13 9 -13s9 4 9 13v457h95z
" />
    <glyph glyph-name="Uhungarumlaut" unicode="&#x170;" horiz-adv-x="235" 
d="M125 755l23 81h67l-24 -81h-66zM47 755l22 81h67l-23 -81h-66zM125 -5h-15c-75 0 -102 43 -102 94v655h99v-644c0 -10 3 -15 10 -15s11 5 11 15v644h99v-655c0 -51 -31 -94 -102 -94z" />
    <glyph glyph-name="uhungarumlaut" unicode="&#x171;" 
d="M216 538v-538h-93v37c-15 -20 -33 -40 -64 -40h-3c-36 0 -49 33 -49 54v487h96v-457c0 -9 3 -13 9 -13s9 4 9 13v457h95zM118 549l22 100h64l-22 -100h-64zM42 549l22 100h64l-22 -100h-64z" />
    <glyph glyph-name="Uogonek" unicode="&#x172;" horiz-adv-x="235" 
d="M182 -159h-26c-33 0 -65 14 -65 54v4c0 35 23 68 54 97c-7 -1 -13 -1 -20 -1h-15c-75 0 -102 43 -102 94v655h99v-644c0 -10 3 -15 10 -15s11 5 11 15v644h99v-655c0 -43 -24 -70 -40 -95s-27 -50 -27 -70v-2c0 -19 7 -24 18 -24h4v-57z" />
    <glyph glyph-name="uogonek" unicode="&#x173;" 
d="M126 -105v4c0 37 24 74 51 101h39c-13 -20 -21 -53 -21 -76v-2c0 -19 6 -24 17 -24h4v-57h-26c-32 0 -64 14 -64 54zM216 538v-538h-93v37c-15 -20 -33 -40 -64 -40h-3c-36 0 -49 33 -49 54v487h96v-457c0 -9 3 -13 9 -13s9 4 9 13v457h95z" />
    <glyph glyph-name="Wcircumflex" unicode="&#x174;" horiz-adv-x="343" 
d="M214 836l40 -81h-68l-13 33l-13 -33h-67l39 81h82zM160 0h-114l-46 744h101l10 -520l18 520h91l18 -509l11 509h94l-46 -744h-111l-13 439z" />
    <glyph glyph-name="wcircumflex" unicode="&#x175;" horiz-adv-x="319" 
d="M198 649l36 -100h-64l-12 49l-11 -49h-65l37 100h79zM149 0h-106l-43 538h95l9 -375l13 375h86l15 -378l8 378h93l-44 -538h-104l-11 345z" />
    <glyph glyph-name="Ycircumflex" unicode="&#x176;" horiz-adv-x="215" 
d="M61 0v302l-62 442h96l17 -279l17 279h87l-58 -442v-302h-97zM153 836l40 -81h-68l-13 33l-13 -33h-67l39 81h82z" />
    <glyph glyph-name="ycircumflex" unicode="&#x177;" horiz-adv-x="208" 
d="M24 -159v78h28c5 0 8 3 8 9c0 5 1 20 1 31c0 12 0 21 -3 40l-58 539h93l15 -338l9 338h92l-65 -656c-5 -32 -24 -41 -43 -41h-77zM144 649l36 -100h-64l-12 49l-11 -49h-65l37 100h79z" />
    <glyph glyph-name="Zacute" unicode="&#x179;" horiz-adv-x="197" 
d="M59 755l30 81h81l-33 -81h-78zM9 744h178v-80l-79 -576h83v-88h-185v80l78 576h-75v88z" />
    <glyph glyph-name="zacute" unicode="&#x17a;" horiz-adv-x="172" 
d="M48 549l28 100h77l-29 -100h-76zM6 538h159v-68l-62 -391h64v-79h-163v68l64 394h-62v76z" />
    <glyph glyph-name="Zdotaccent" unicode="&#x17b;" horiz-adv-x="197" 
d="M9 744h178v-80l-79 -576h83v-88h-185v80l78 576h-75v88zM146 844v-89h-95v89h95z" />
    <glyph glyph-name="zdotaccent" unicode="&#x17c;" horiz-adv-x="172" 
d="M6 538h159v-68l-62 -391h64v-79h-163v68l64 394h-62v76zM135 649v-100h-95v100h95z" />
    <glyph glyph-name="Zcaron" unicode="&#x17d;" horiz-adv-x="197" 
d="M58 755l-39 81h67l13 -34l13 34h67l-39 -81h-82zM9 744h178v-80l-79 -576h83v-88h-185v80l78 576h-75v88z" />
    <glyph glyph-name="zcaron" unicode="&#x17e;" horiz-adv-x="172" 
d="M47 549l-37 100h65l11 -50l12 50h64l-36 -100h-79zM6 538h159v-68l-62 -391h64v-79h-163v68l64 394h-62v76z" />
    <glyph glyph-name="Aringacute" unicode="&#x1fa;" horiz-adv-x="219" 
d="M117 236l-12 314l-12 -314h24zM126 0l-6 151h-31l-6 -151h-84l47 744h124l50 -744h-94zM71 864l30 81h81l-33 -81h-78zM54 805c0 31 23 52 54 52s55 -21 55 -52s-24 -52 -55 -52s-54 21 -54 52zM108 826c-12 0 -21 -8 -21 -21s9 -22 21 -22s21 9 21 22s-9 21 -21 21z" />
    <glyph glyph-name="aringacute" unicode="&#x1fb;" horiz-adv-x="217" 
d="M112 75v207c-15 -9 -16 -14 -16 -29v-179c0 -7 3 -11 8 -11c7 0 8 5 8 12zM6 53v196c0 35 11 51 38 66c16 8 49 22 61 27c5 2 7 6 7 12v116c0 7 -3 11 -8 11h-1c-5 0 -8 -4 -8 -11v-125h-87v127c0 52 37 72 90 72h10c60 0 96 -17 96 -72v-390c0 -3 1 -4 4 -4h7v-78h-79
c-15 0 -23 12 -23 37c-9 -19 -29 -41 -58 -41h-2c-32 0 -47 29 -47 57zM67 661l28 100h77l-29 -100h-76zM158 603c0 -31 -24 -52 -55 -52s-54 21 -54 52s23 52 54 52s55 -21 55 -52zM82 603c0 -13 9 -22 21 -22s21 9 21 22s-9 21 -21 21s-21 -8 -21 -21z" />
    <glyph glyph-name="AEacute" unicode="&#x1fc;" horiz-adv-x="293" 
d="M132 755l30 81h81l-33 -81h-78zM129 210v360l-23 -360h23zM129 0v124h-29l-8 -124h-93l66 744h219v-89h-59v-217h50v-92h-50v-256h62v-90h-158z" />
    <glyph glyph-name="aeacute" unicode="&#x1fd;" horiz-adv-x="319" 
d="M124 549l28 100h77l-29 -100h-76zM205 468v-143h18v143c0 11 -1 14 -9 14c-6 0 -9 -5 -9 -14zM112 75v195c-15 -9 -16 -14 -16 -29v-167c0 -7 3 -11 8 -11c7 0 8 5 8 12zM313 245v-165c0 -55 -34 -86 -90 -86h-18c-49 0 -73 20 -82 44c-12 -17 -31 -42 -66 -42h-2
c-35 0 -49 29 -49 57v183c0 35 11 51 38 66c16 8 49 20 61 27c5 2 7 6 7 11v130c0 7 -3 11 -8 11h-1c-5 0 -8 -4 -8 -11v-138h-86v140c0 52 35 72 86 72h9c36 0 51 -10 58 -17c7 7 20 17 52 17h10c49 0 89 -24 89 -89v-186h-108v-195c0 -9 3 -13 9 -13c8 0 9 5 9 13v171h90z
" />
    <glyph glyph-name="Oslashacute" unicode="&#x1fe;" horiz-adv-x="237" 
d="M79 757l30 79h81l-33 -79h-78zM106 646v-94c0 -49 0 -123 -3 -196l28 213v77c0 12 -4 18 -12 18c-9 0 -13 -6 -13 -18zM119 82c8 0 12 6 12 17v93c0 49 1 133 4 213l-29 -214v-92c0 -11 4 -17 13 -17zM52 -6h-43l16 47c-9 16 -17 37 -17 65v533c0 65 32 110 104 110h11
c23 0 41 -6 53 -14l6 15h43l-15 -41c12 -17 19 -38 19 -69v-537c0 -67 -39 -108 -103 -108h-12c-27 0 -44 6 -56 17z" />
    <glyph glyph-name="oslashacute" unicode="&#x1ff;" horiz-adv-x="220" 
d="M69 552l27 97h78l-29 -97h-76zM52 -5h-39l14 32c-13 17 -20 40 -20 69v346c0 68 33 102 100 102h4c23 0 39 -5 51 -13l6 13h40l-16 -33c12 -15 21 -38 21 -69v-346c0 -68 -37 -101 -102 -101h-2c-23 0 -40 5 -52 12zM109 66c7 0 11 5 11 15v56c0 36 1 93 4 148l-25 -136
v-68c0 -10 3 -15 10 -15zM99 459v-66c0 -29 0 -81 -3 -133l24 134v65c0 8 0 15 -11 15c-9 0 -10 -7 -10 -15z" />
    <glyph glyph-name="uni0218" unicode="&#x218;" horiz-adv-x="230" 
d="M140 -142h-41c7 16 10 36 10 51h-30v77h76v-58c0 -28 -8 -55 -15 -70zM124 -5h-22c-64 0 -96 30 -96 90v232h96v-225c0 -11 3 -16 10 -16s11 5 11 16v193c0 20 -2 27 -17 42l-53 52c-32 31 -44 62 -44 109v169c0 56 26 92 97 92h22c71 0 92 -36 92 -84v-200h-93v196
c0 8 -3 12 -10 12s-10 -4 -10 -12v-169c0 -19 3 -25 15 -38l52 -52c37 -35 50 -61 50 -113v-192c0 -64 -32 -102 -100 -102z" />
    <glyph glyph-name="uni0219" unicode="&#x219;" horiz-adv-x="200" 
d="M123 -142h-41c7 16 10 36 10 51h-30v77h76v-58c0 -28 -8 -55 -15 -70zM109 -6h-23c-51 0 -81 22 -81 73v157h83v-154c0 -7 3 -10 9 -10c5 0 8 3 8 10v131c0 17 -2 22 -15 35l-40 32c-36 31 -43 53 -43 92v110c0 49 28 74 84 74h21c51 0 79 -19 79 -67v-132h-81v128
c0 7 -3 11 -8 11s-8 -4 -8 -11v-108c0 -19 2 -21 13 -32l42 -33c37 -33 46 -55 46 -96v-131c0 -52 -33 -79 -86 -79z" />
    <glyph glyph-name="uni021A" unicode="&#x21a;" horiz-adv-x="195" 
d="M121 -139h-41c7 16 10 36 10 51h-30v77h76v-58c0 -28 -8 -55 -15 -70zM49 0v655h-43v89h183v-89h-44v-655h-96z" />
    <glyph glyph-name="uni021B" unicode="&#x21b;" horiz-adv-x="160" 
d="M124 -139h-41c7 16 10 36 10 51h-30v77h76v-58c0 -28 -8 -55 -15 -70zM155 0h-89c-17 0 -33 11 -33 38v421h-29v79h29v169h95v-169h27v-79h-27v-369c0 -7 3 -10 9 -10h18v-80z" />
    <glyph glyph-name="uni0237" unicode="&#x237;" horiz-adv-x="109" 
d="M-20 -76h19c5 0 8 3 8 9v605h95v-651c0 -31 -19 -46 -42 -46h-80v83z" />
    <glyph glyph-name="Wgrave" unicode="&#x1e80;" horiz-adv-x="343" 
d="M184 836l29 -81h-78l-32 81h81zM160 0h-114l-46 744h101l10 -520l18 520h91l18 -509l11 509h94l-46 -744h-111l-13 439z" />
    <glyph glyph-name="wgrave" unicode="&#x1e81;" horiz-adv-x="319" 
d="M149 0h-106l-43 538h95l9 -375l13 375h86l15 -378l8 378h93l-44 -538h-104l-11 345zM170 649l27 -100h-75l-30 100h78z" />
    <glyph glyph-name="Wacute" unicode="&#x1e82;" horiz-adv-x="343" 
d="M136 755l30 81h81l-33 -81h-78zM160 0h-114l-46 744h101l10 -520l18 520h91l18 -509l11 509h94l-46 -744h-111l-13 439z" />
    <glyph glyph-name="wacute" unicode="&#x1e83;" horiz-adv-x="319" 
d="M122 549l28 100h77l-29 -100h-76zM149 0h-106l-43 538h95l9 -375l13 375h86l15 -378l8 378h93l-44 -538h-104l-11 345z" />
    <glyph glyph-name="Wdieresis" unicode="&#x1e84;" horiz-adv-x="343" 
d="M167 833v-78h-70v78h70zM250 833v-78h-71v78h71zM160 0h-114l-46 744h101l10 -520l18 520h91l18 -509l11 509h94l-46 -744h-111l-13 439z" />
    <glyph glyph-name="wdieresis" unicode="&#x1e85;" horiz-adv-x="319" 
d="M234 629v-80h-70v80h70zM152 629v-80h-69v80h69zM149 0h-106l-43 538h95l9 -375l13 375h86l15 -378l8 378h93l-44 -538h-104l-11 345z" />
    <glyph glyph-name="Ygrave" unicode="&#x1ef2;" horiz-adv-x="215" 
d="M61 0v302l-62 442h96l17 -279l17 279h87l-58 -442v-302h-97zM123 836l29 -81h-78l-32 81h81z" />
    <glyph glyph-name="ygrave" unicode="&#x1ef3;" horiz-adv-x="208" 
d="M24 -159v78h28c5 0 8 3 8 9c0 5 1 20 1 31c0 12 0 21 -3 40l-58 539h93l15 -338l9 338h92l-65 -656c-5 -32 -24 -41 -43 -41h-77zM117 649l27 -100h-75l-30 100h78z" />
    <glyph glyph-name="uni2009" unicode="&#x2009;" horiz-adv-x="3" 
 />
    <glyph glyph-name="uni2032" unicode="&#x2032;" horiz-adv-x="80" 
d="M78 744l-11 -130h-65l12 130h64z" />
    <glyph glyph-name="uni2033" unicode="&#x2033;" horiz-adv-x="152" 
d="M150 744l-12 -130h-63l11 130h64zM77 744l-11 -130h-64l11 130h64z" />
    <glyph glyph-name="published" unicode="&#x2117;" horiz-adv-x="301" 
d="M155 -5h-9c-83 0 -138 40 -138 135v485c0 91 54 134 139 134h8c83 0 138 -41 138 -134v-484c0 -93 -61 -136 -138 -136zM53 608v-472c0 -72 28 -104 95 -104h6c63 0 95 35 95 105v471c0 73 -31 104 -94 104h-7c-67 0 -95 -28 -95 -104zM180 334h-33v-269h-70v617h101
c35 0 54 -14 54 -57v-233c0 -39 -20 -58 -52 -58zM147 627v-237h8c5 0 8 4 8 11v215c0 7 -3 11 -8 11h-8z" />
    <glyph glyph-name="onethird" unicode="&#x2153;" horiz-adv-x="283" 
d="M27 673h-24v50c19 0 29 7 30 21h57v-343h-63v272zM173 744h55l-161 -744h-55zM199 220h-58v76c0 29 17 50 60 50h8c43 0 65 -16 65 -49v-76c0 -19 -12 -28 -21 -31c11 -4 26 -13 26 -38v-98c0 -35 -20 -58 -68 -58h-9c-49 0 -62 23 -62 54v94h61v-90c0 -5 2 -8 6 -8
c3 0 5 3 5 8v98c0 4 -2 6 -5 6h-29v49h28c3 0 5 2 5 6v80c0 5 -2 8 -6 8s-6 -3 -6 -8v-73z" />
    <glyph glyph-name="twothirds" unicode="&#x2154;" horiz-adv-x="336" 
d="M144 401h-139v52c0 52 13 67 45 126c27 52 28 52 28 76v37c0 5 -2 8 -6 8s-6 -3 -6 -8v-65h-59v63c0 32 14 57 61 57h8c51 0 67 -22 67 -55v-31c0 -45 -11 -59 -44 -108c-34 -49 -36 -58 -36 -86v-18h25v72h56v-120zM227 744h55l-161 -744h-55zM252 220h-58v76
c0 29 17 50 60 50h8c43 0 65 -16 65 -49v-76c0 -19 -12 -28 -21 -31c11 -4 26 -13 26 -38v-98c0 -35 -20 -58 -68 -58h-9c-49 0 -62 23 -62 54v94h61v-90c0 -5 2 -8 6 -8c3 0 5 3 5 8v98c0 4 -2 6 -5 6h-29v49h28c3 0 5 2 5 6v80c0 5 -2 8 -6 8s-6 -3 -6 -8v-73z" />
    <glyph glyph-name="oneeighth" unicode="&#x215b;" horiz-adv-x="282" 
d="M27 673h-24v50c19 0 29 7 30 21h57v-343h-63v272zM173 744h55l-161 -744h-55zM276 293v-74c0 -23 -14 -32 -22 -36c11 -4 23 -15 23 -38v-91c0 -38 -21 -57 -64 -57h-10c-43 0 -65 19 -65 57v91c0 23 12 34 23 38c-9 5 -21 13 -21 36v74c0 33 19 53 63 53h10
c43 0 63 -20 63 -53zM214 214v76c0 7 -2 10 -6 10s-6 -3 -6 -10v-76c0 -7 2 -10 6 -10s6 3 6 10zM214 56v95c0 7 -2 10 -6 10s-6 -3 -6 -10v-95c0 -7 2 -10 6 -10s6 3 6 10z" />
    <glyph glyph-name="threeeighths" unicode="&#x215c;" horiz-adv-x="326" 
d="M217 744h55l-161 -744h-55zM64 621h-58v76c0 29 17 50 60 50h8c43 0 65 -16 65 -49v-76c0 -19 -12 -28 -21 -31c11 -4 26 -13 26 -38v-98c0 -35 -20 -58 -68 -58h-9c-49 0 -62 23 -62 54v94h61v-90c0 -5 2 -8 6 -8c3 0 5 3 5 8v98c0 4 -2 6 -5 6h-29v49h28c3 0 5 2 5 6
v80c0 5 -2 8 -6 8s-6 -3 -6 -8v-73zM319 293v-74c0 -23 -14 -32 -22 -36c11 -4 23 -15 23 -38v-91c0 -38 -21 -57 -64 -57h-10c-43 0 -65 19 -65 57v91c0 23 12 34 23 38c-9 5 -21 13 -21 36v74c0 33 19 53 63 53h10c43 0 63 -20 63 -53zM257 214v76c0 7 -2 10 -6 10
s-6 -3 -6 -10v-76c0 -7 2 -10 6 -10s6 3 6 10zM257 56v95c0 7 -2 10 -6 10s-6 -3 -6 -10v-95c0 -7 2 -10 6 -10s6 3 6 10z" />
    <glyph glyph-name="fiveeighths" unicode="&#x215d;" horiz-adv-x="325" 
d="M216 744h55l-161 -744h-55zM66 559h-58v185h129v-52h-72v-70c7 12 19 26 38 26h3c27 0 37 -19 37 -44v-146c0 -36 -19 -60 -66 -60h-10c-49 0 -62 23 -62 54v82h61v-81c0 -5 2 -8 6 -8s6 3 6 8v136c0 8 -2 9 -6 9s-6 -3 -6 -9v-30zM318 293v-74c0 -23 -14 -32 -22 -36
c11 -4 23 -15 23 -38v-91c0 -38 -21 -57 -64 -57h-10c-43 0 -65 19 -65 57v91c0 23 12 34 23 38c-9 5 -21 13 -21 36v74c0 33 19 53 63 53h10c43 0 63 -20 63 -53zM256 214v76c0 7 -2 10 -6 10s-6 -3 -6 -10v-76c0 -7 2 -10 6 -10s6 3 6 10zM256 56v95c0 7 -2 10 -6 10
s-6 -3 -6 -10v-95c0 -7 2 -10 6 -10s6 3 6 10z" />
    <glyph glyph-name="seveneighths" unicode="&#x215e;" horiz-adv-x="298" 
d="M4 744h128v-32c0 -49 -10 -87 -18 -167c-7 -55 -7 -91 -7 -132v-12h-74v11c0 43 2 70 18 131c24 90 27 113 27 158h-19v-77h-55v120zM189 744h55l-161 -744h-55zM292 293v-74c0 -23 -14 -32 -22 -36c11 -4 23 -15 23 -38v-91c0 -38 -21 -57 -64 -57h-10
c-43 0 -65 19 -65 57v91c0 23 12 34 23 38c-9 5 -21 13 -21 36v74c0 33 19 53 63 53h10c43 0 63 -20 63 -53zM230 214v76c0 7 -2 10 -6 10s-6 -3 -6 -10v-76c0 -7 2 -10 6 -10s6 3 6 10zM230 56v95c0 7 -2 10 -6 10s-6 -3 -6 -10v-95c0 -7 2 -10 6 -10s6 3 6 10z" />
    <glyph glyph-name="minus" unicode="&#x2212;" horiz-adv-x="177" 
d="M7 332h163v-58h-163v58z" />
    <glyph glyph-name="f_b" unicode="&#xe227;" horiz-adv-x="380" 
d="M165 744h95v-243c13 20 32 40 61 40h3c33 0 50 -29 50 -65v-412c0 -35 -22 -69 -57 -69h-2c-31 0 -48 18 -64 45c-3 -11 -4 -27 -5 -40h-81v744zM269 64c7 0 9 5 9 12v385c0 7 -1 12 -9 12s-9 -6 -9 -13v-383c0 -7 1 -13 9 -13zM155 744v-77h-18c-6 0 -9 -3 -9 -10v-119
h27v-79h-27v-459h-95v459h-29v79h29v155c0 35 23 51 50 51h72z" />
    <glyph glyph-name="f_f_b" unicode="&#xe228;" horiz-adv-x="510" 
d="M295 744h95v-243c13 20 32 40 61 40h3c33 0 50 -29 50 -65v-412c0 -35 -22 -69 -57 -69h-2c-31 0 -48 18 -64 45c-3 -11 -4 -27 -5 -40h-81v744zM399 64c7 0 9 5 9 12v385c0 7 -1 12 -9 12s-9 -6 -9 -13v-383c0 -7 1 -13 9 -13zM128 0h-95v459h-29v79h29v155
c0 35 23 51 50 51h71v-77h-17c-6 0 -9 -3 -9 -10v-119h35v155c0 35 23 51 50 51h72v-77h-19c-5 0 -8 -3 -8 -10v-119h27v-79h-27v-459h-95v459h-35v-459z" />
    <glyph glyph-name="f_f_h" unicode="&#xe229;" horiz-adv-x="511" 
d="M295 0v744h95v-242c12 20 32 40 61 40h4c37 0 49 -33 49 -54v-488h-95v458c0 7 -2 12 -10 12c-6 0 -9 -4 -9 -13v-457h-95zM128 0h-95v459h-29v79h29v155c0 35 23 51 50 51h71v-77h-17c-6 0 -9 -3 -9 -10v-119h35v155c0 35 23 51 50 51h72v-77h-19c-5 0 -8 -3 -8 -10
v-119h27v-79h-27v-459h-95v459h-35v-459z" />
    <glyph glyph-name="f_f_j" unicode="&#xe22a;" horiz-adv-x="397" 
d="M390 649v-100h-95v100h95zM268 -76h19c5 0 8 3 8 9v605h95v-651c0 -31 -19 -46 -42 -46h-80v83zM128 0h-95v459h-29v79h29v155c0 35 23 51 50 51h71v-77h-17c-6 0 -9 -3 -9 -10v-119h35v155c0 35 23 51 50 51h72v-77h-19c-5 0 -8 -3 -8 -10v-119h27v-79h-27v-459h-95v459
h-35v-459z" />
    <glyph glyph-name="f_f_k" unicode="&#xe22b;" horiz-adv-x="508" 
d="M390 0h-95v744h95v-276l-1 -114l24 184h90l-35 -230l41 -308h-94l-26 235zM128 0h-95v459h-29v79h29v155c0 35 23 51 50 51h71v-77h-17c-6 0 -9 -3 -9 -10v-119h35v155c0 35 23 51 50 51h72v-77h-19c-5 0 -8 -3 -8 -10v-119h27v-79h-27v-459h-95v459h-35v-459z" />
    <glyph glyph-name="f_h" unicode="&#xe22c;" horiz-adv-x="381" 
d="M165 0v744h95v-242c12 20 32 40 61 40h4c37 0 49 -33 49 -54v-488h-95v458c0 7 -2 12 -10 12c-6 0 -9 -4 -9 -13v-457h-95zM155 744v-77h-18c-6 0 -9 -3 -9 -10v-119h27v-79h-27v-459h-95v459h-29v79h29v155c0 35 23 51 50 51h72z" />
    <glyph glyph-name="f_j" unicode="&#xe22d;" horiz-adv-x="267" 
d="M260 649v-100h-95v100h95zM138 -76h19c5 0 8 3 8 9v605h95v-651c0 -31 -19 -46 -42 -46h-80v83zM155 744v-77h-18c-6 0 -9 -3 -9 -10v-119h27v-79h-27v-459h-95v459h-29v79h29v155c0 35 23 51 50 51h72z" />
    <glyph glyph-name="f_k" unicode="&#xe22e;" horiz-adv-x="378" 
d="M260 0h-95v744h95v-276l-1 -114l24 184h90l-35 -230l41 -308h-94l-26 235zM155 744v-77h-18c-6 0 -9 -3 -9 -10v-119h27v-79h-27v-459h-95v459h-29v79h29v155c0 35 23 51 50 51h72z" />
    <glyph glyph-name="E.alt" unicode="&#xe484;" horiz-adv-x="178" 
d="M8 744h162v-89h-66v-218h64v-91h-64v-256h68v-90h-164v744z" />
    <glyph glyph-name="F.alt" unicode="&#xe485;" horiz-adv-x="177" 
d="M8 744h163v-89h-66v-217h64v-92h-64v-346h-97v744z" />
    <glyph glyph-name="J.alt" unicode="&#xe489;" horiz-adv-x="153" 
d="M5 0v91h26c12 0 14 5 14 16v637h100v-671c0 -45 -23 -73 -66 -73h-74z" />
    <glyph glyph-name="a.alt" unicode="&#xe4c0;" horiz-adv-x="211" 
d="M112 75v207c-13 -9 -16 -14 -16 -29v-179c0 -7 3 -11 8 -11c7 0 8 5 8 12zM113 37c-9 -19 -29 -41 -58 -41h-2c-32 0 -47 29 -47 57v196c0 35 11 51 38 66c16 8 49 22 61 27c5 2 7 6 7 12v116c0 7 -3 11 -8 11h-1c-5 0 -8 -4 -8 -11v-125h-87v127c0 52 37 72 90 72h10
c60 0 96 -17 96 -72v-400c0 -49 2 -60 5 -69v-3h-91c-3 4 -5 14 -5 37z" />
    <glyph glyph-name="r.alt" unicode="&#xe4d1;" horiz-adv-x="171" 
d="M101 538v-47c10 33 25 50 46 50h3c7 0 15 -3 16 -3v-108c-5 1 -13 4 -29 4h-4c-24 0 -32 -8 -32 -23v-411h-94v538h94z" />
    <glyph glyph-name="f_f_i" unicode="&#xfb03;" horiz-adv-x="397" 
d="M390 649v-100h-95v100h95zM390 538v-538h-95v538h95zM128 0h-95v459h-29v79h29v155c0 35 23 51 50 51h71v-77h-17c-6 0 -9 -3 -9 -10v-119h35v155c0 35 23 51 50 51h72v-77h-19c-5 0 -8 -3 -8 -10v-119h27v-79h-27v-459h-95v459h-35v-459z" />
    <glyph glyph-name="f_f_l" unicode="&#xfb04;" horiz-adv-x="397" 
d="M128 0h-95v459h-29v79h29v155c0 35 23 51 50 51h71v-77h-17c-6 0 -9 -3 -9 -10v-119h35v155c0 35 23 51 50 51h72v-77h-19c-5 0 -8 -3 -8 -10v-119h27v-79h-27v-459h-95v459h-35v-459zM390 744v-744h-95v744h95z" />
    </font>
</defs>
</svg>
